<svg width="38" height="38" viewBox="0 0 38 38" fill="none" xmlns="http://www.w3.org/2000/svg">
<circle cx="19" cy="19" r="19" fill="white"/>
<mask id="path-2-inside-1_1636_9602" fill="white">
<path d="M4 18.4942C4 20.3976 4.37504 22.2824 5.1037 24.0409C5.83236 25.7994 6.90037 27.3973 8.24676 28.7432C10.9659 31.4614 14.6539 32.9884 18.4994 32.9884C21.8475 33.0011 25.0944 31.8423 27.6775 29.7127L30.5773 32.6116C30.7812 32.8127 31.0401 32.949 31.3214 33.0031C31.6027 33.0573 31.8937 33.027 32.1578 32.916C32.4186 32.7956 32.6379 32.6004 32.7876 32.3553C32.9373 32.1101 33.0108 31.826 32.9987 31.539V18.4942C32.9987 14.6501 31.4711 10.9635 28.752 8.24527C26.0328 5.52707 22.3448 4.00001 18.4994 4.00001C14.6539 4.00001 10.9659 5.52707 8.24676 8.24527C5.52761 10.9635 4 14.6501 4 18.4942ZM30.0988 18.4942V28.0459L28.7504 26.698C28.4787 26.428 28.1113 26.2765 27.7282 26.2765C27.3451 26.2765 26.9777 26.428 26.706 26.698C24.8095 28.5958 22.3135 29.7777 19.6431 30.0422C16.9726 30.3067 14.2931 29.6375 12.061 28.1485C9.8288 26.6595 8.18214 24.443 7.40151 21.8764C6.62089 19.3099 6.7546 16.5522 7.77986 14.0732C8.80512 11.5941 10.6585 9.54716 13.0242 8.28097C15.39 7.01477 18.1217 6.60771 20.754 7.12913C23.3863 7.65055 25.7564 9.06819 27.4603 11.1405C29.1643 13.2129 30.0967 15.8117 30.0988 18.4942Z"/>
</mask>
<path d="M4 18.4942C4 20.3976 4.37504 22.2824 5.1037 24.0409C5.83236 25.7994 6.90037 27.3973 8.24676 28.7432C10.9659 31.4614 14.6539 32.9884 18.4994 32.9884C21.8475 33.0011 25.0944 31.8423 27.6775 29.7127L30.5773 32.6116C30.7812 32.8127 31.0401 32.949 31.3214 33.0031C31.6027 33.0573 31.8937 33.027 32.1578 32.916C32.4186 32.7956 32.6379 32.6004 32.7876 32.3553C32.9373 32.1101 33.0108 31.826 32.9987 31.539V18.4942C32.9987 14.6501 31.4711 10.9635 28.752 8.24527C26.0328 5.52707 22.3448 4.00001 18.4994 4.00001C14.6539 4.00001 10.9659 5.52707 8.24676 8.24527C5.52761 10.9635 4 14.6501 4 18.4942ZM30.0988 18.4942V28.0459L28.7504 26.698C28.4787 26.428 28.1113 26.2765 27.7282 26.2765C27.3451 26.2765 26.9777 26.428 26.706 26.698C24.8095 28.5958 22.3135 29.7777 19.6431 30.0422C16.9726 30.3067 14.2931 29.6375 12.061 28.1485C9.8288 26.6595 8.18214 24.443 7.40151 21.8764C6.62089 19.3099 6.7546 16.5522 7.77986 14.0732C8.80512 11.5941 10.6585 9.54716 13.0242 8.28097C15.39 7.01477 18.1217 6.60771 20.754 7.12913C23.3863 7.65055 25.7564 9.06819 27.4603 11.1405C29.1643 13.2129 30.0967 15.8117 30.0988 18.4942Z" fill="#FF9A33"/>
<path d="M4 18.4942H8.02037H4ZM8.24676 28.7432L11.0891 25.8999L8.24676 28.7432ZM18.4994 32.9884L18.5146 28.9681L18.507 28.9681H18.4994V32.9884ZM27.6775 29.7127L30.5198 26.8694L27.9374 24.288L25.12 26.6107L27.6775 29.7127ZM30.5773 32.6116L27.735 35.4549L27.7445 35.4644L27.7541 35.4738L30.5773 32.6116ZM32.1578 32.916L33.7157 36.6222L33.7795 36.5954L33.8423 36.5664L32.1578 32.916ZM32.9987 31.539H28.9784V31.6237L28.9819 31.7082L32.9987 31.539ZM30.0988 18.4942H34.1192L34.1192 18.4911L30.0988 18.4942ZM30.0988 28.0459L27.2565 30.8892L34.1192 37.7495V28.0459H30.0988ZM28.7504 26.698L31.5927 23.8546L31.5843 23.8462L28.7504 26.698ZM27.7282 26.2765V22.2561V26.2765ZM26.706 26.698L23.8721 23.8462L23.8671 23.8512L23.8621 23.8562L26.706 26.698ZM-0.0203652 18.4942C-0.0203652 20.9258 0.458739 23.3335 1.38956 25.5799L8.81784 22.5019C8.29133 21.2313 8.02037 19.8695 8.02037 18.4942H-0.0203652ZM1.38956 25.5799C2.32038 27.8263 3.68466 29.8673 5.40444 31.5865L11.0891 25.8999C10.1161 24.9272 9.34434 23.7726 8.81784 22.5019L1.38956 25.5799ZM5.40444 31.5865C8.87767 35.0585 13.5881 37.0088 18.4994 37.0088V28.9681C15.7197 28.9681 13.0542 27.8642 11.0891 25.8999L5.40444 31.5865ZM18.4841 37.0088C22.7705 37.025 26.9277 35.5414 30.2349 32.8148L25.12 26.6107C23.2612 28.1431 20.9244 28.9772 18.5146 28.9681L18.4841 37.0088ZM24.8351 32.5561L27.735 35.4549L33.4196 29.7683L30.5198 26.8694L24.8351 32.5561ZM27.7541 35.4738C28.5234 36.2327 29.5002 36.7466 30.5611 36.9509L32.0817 29.0553C32.5801 29.1513 33.039 29.3927 33.4006 29.7493L27.7541 35.4738ZM30.5611 36.9509C31.622 37.1553 32.7197 37.0409 33.7157 36.6222L30.5998 29.2097C31.0677 29.013 31.5834 28.9593 32.0817 29.0553L30.5611 36.9509ZM33.8423 36.5664C34.8264 36.1123 35.6536 35.376 36.2187 34.4508L29.3565 30.2598C29.6221 29.8249 30.0109 29.4789 30.4733 29.2655L33.8423 36.5664ZM36.2187 34.4508C36.7837 33.5255 37.0611 32.4532 37.0155 31.3698L28.9819 31.7082C28.9605 31.1988 29.0909 30.6947 29.3565 30.2598L36.2187 34.4508ZM37.0191 31.539V18.4942H28.9784V31.539H37.0191ZM37.0191 18.4942C37.0191 13.5834 35.0676 8.87398 31.5943 5.40193L25.9096 11.0886C27.8747 13.0529 28.9784 15.7169 28.9784 18.4942H37.0191ZM31.5943 5.40193C28.121 1.92993 23.4106 -0.0203552 18.4994 -0.0203552V8.02037C21.279 8.02037 23.9445 9.12421 25.9096 11.0886L31.5943 5.40193ZM18.4994 -0.0203552C13.5881 -0.0203552 8.87767 1.92993 5.40444 5.40193L11.0891 11.0886C13.0542 9.12421 15.7197 8.02037 18.4994 8.02037V-0.0203552ZM5.40444 5.40193C1.93116 8.87398 -0.0203652 13.5834 -0.0203652 18.4942H8.02037C8.02037 15.7168 9.12405 13.0529 11.0891 11.0886L5.40444 5.40193ZM26.0785 18.4942V28.0459H34.1192V18.4942H26.0785ZM32.9412 25.2026L31.5927 23.8546L25.9081 29.5413L27.2565 30.8892L32.9412 25.2026ZM31.5843 23.8462C30.5592 22.8276 29.1729 22.2561 27.7282 22.2561V30.2968C27.0496 30.2968 26.3983 30.0284 25.9166 29.5497L31.5843 23.8462ZM27.7282 22.2561C26.2835 22.2561 24.8972 22.8276 23.8721 23.8462L29.5398 29.5497C29.0581 30.0284 28.4068 30.2968 27.7282 30.2968V22.2561ZM23.8621 23.8562C22.623 25.0962 20.992 25.8686 19.2468 26.0414L20.0393 34.043C23.6349 33.6869 26.996 32.0955 29.5499 29.5397L23.8621 23.8562ZM19.2468 26.0414C17.5016 26.2143 15.7505 25.7769 14.2919 24.8039L9.82995 31.493C12.8357 33.498 16.4437 34.3991 20.0393 34.043L19.2468 26.0414ZM14.2919 24.8039C12.8334 23.831 11.7578 22.3829 11.2479 20.7065L3.55513 23.0463C4.60649 26.503 6.82417 29.488 9.82995 31.493L14.2919 24.8039ZM11.2479 20.7065C10.738 19.0302 10.8253 17.229 11.495 15.6097L4.06469 12.5367C2.68385 15.8755 2.50375 19.5896 3.55513 23.0463L11.2479 20.7065ZM11.495 15.6097C12.1647 13.9904 13.3755 12.653 14.9214 11.8256L11.1271 4.73637C7.94151 6.44137 5.44551 9.19792 4.06469 12.5367L11.495 15.6097ZM14.9214 11.8256C16.4673 10.9982 18.2525 10.7321 19.9728 11.0729L21.5352 3.18539C17.9909 2.48331 14.3127 3.03139 11.1271 4.73637L14.9214 11.8256ZM19.9728 11.0729C21.6931 11.4136 23.2417 12.34 24.3549 13.6939L30.5657 8.58714C28.271 5.79634 25.0795 3.88746 21.5352 3.18539L19.9728 11.0729ZM24.3549 13.6939C25.4681 15.0478 26.0771 16.7453 26.0785 18.4974L34.1192 18.4911C34.1164 14.8781 32.8605 11.378 30.5657 8.58714L24.3549 13.6939Z" fill="#FF9A33" mask="url(#path-2-inside-1_1636_9602)"/>
<mask id="path-4-inside-2_1636_9602" fill="white">
<path d="M27.2198 23.5273C27.1834 23.5354 27.1454 23.5344 27.1096 23.5242C26.9291 23.4937 26.7542 23.4379 26.5901 23.3584C26.4738 23.3026 26.3722 23.2213 26.2931 23.1208C26.214 23.0203 26.1596 22.9033 26.1341 22.7788C26.0711 22.5174 26.0475 22.2483 26.0641 21.9801C26.091 21.4382 26.2341 20.9076 26.484 20.4229C26.5455 20.3053 26.614 20.1913 26.6892 20.0815C26.7047 20.0596 26.7126 20.0577 26.7345 20.0786C26.8717 20.1958 27.0336 20.2819 27.2086 20.3309C27.3837 20.3799 27.5677 20.3905 27.7476 20.3622C27.8409 20.3501 27.932 20.325 28.018 20.2876C28.0601 20.2685 28.0637 20.2797 28.0662 20.3184C28.0936 20.9377 28.3261 21.5308 28.7284 22.0081C28.8957 22.2075 29.0933 22.3803 29.3144 22.5205C29.442 22.6017 29.4628 22.6996 29.3813 22.8255C29.2636 22.995 29.1068 23.135 28.9236 23.2339C28.9038 23.246 28.8914 23.2359 28.8763 23.229C28.6739 23.1336 28.4967 22.9937 28.3584 22.8201C28.1248 22.5378 27.9701 22.2007 27.9096 21.8417C27.8996 21.7877 27.8677 21.7588 27.8189 21.7633C27.77 21.7678 27.7478 21.7994 27.7515 21.8589C27.8136 22.4726 28.0698 22.9892 28.5588 23.382L28.5752 23.3975C28.4788 23.4349 28.3797 23.4651 28.2787 23.488C28.131 23.5236 27.9807 23.5473 27.8291 23.5587C27.7652 23.5615 27.7013 23.5607 27.6375 23.5564C27.6163 23.5577 27.6042 23.5405 27.5911 23.5291C27.4591 23.4062 27.3542 23.2582 27.2828 23.0941C27.1319 22.7727 27.0608 22.4207 27.0751 22.0668C27.076 22.0221 27.0791 21.9781 27.0792 21.9335C27.0803 21.9234 27.0791 21.9133 27.0759 21.9037C27.0726 21.8941 27.0673 21.8853 27.0603 21.8778C27.0533 21.8704 27.0448 21.8645 27.0354 21.8605C27.0259 21.8565 27.0156 21.8546 27.0053 21.8547C26.9863 21.8532 26.9674 21.8591 26.9527 21.871C26.9379 21.8829 26.9285 21.9 26.9265 21.9187C26.9052 22.0238 26.8937 22.1307 26.8923 22.2379C26.8787 22.607 26.9497 22.9743 27.0999 23.3127C27.1359 23.3863 27.176 23.4579 27.2198 23.5273Z"/>
</mask>
<path d="M27.2198 23.5273C27.1834 23.5354 27.1454 23.5344 27.1096 23.5242C26.9291 23.4937 26.7542 23.4379 26.5901 23.3584C26.4738 23.3026 26.3722 23.2213 26.2931 23.1208C26.214 23.0203 26.1596 22.9033 26.1341 22.7788C26.0711 22.5174 26.0475 22.2483 26.0641 21.9801C26.091 21.4382 26.2341 20.9076 26.484 20.4229C26.5455 20.3053 26.614 20.1913 26.6892 20.0815C26.7047 20.0596 26.7126 20.0577 26.7345 20.0786C26.8717 20.1958 27.0336 20.2819 27.2086 20.3309C27.3837 20.3799 27.5677 20.3905 27.7476 20.3622C27.8409 20.3501 27.932 20.325 28.018 20.2876C28.0601 20.2685 28.0637 20.2797 28.0662 20.3184C28.0936 20.9377 28.3261 21.5308 28.7284 22.0081C28.8957 22.2075 29.0933 22.3803 29.3144 22.5205C29.442 22.6017 29.4628 22.6996 29.3813 22.8255C29.2636 22.995 29.1068 23.135 28.9236 23.2339C28.9038 23.246 28.8914 23.2359 28.8763 23.229C28.6739 23.1336 28.4967 22.9937 28.3584 22.8201C28.1248 22.5378 27.9701 22.2007 27.9096 21.8417C27.8996 21.7877 27.8677 21.7588 27.8189 21.7633C27.77 21.7678 27.7478 21.7994 27.7515 21.8589C27.8136 22.4726 28.0698 22.9892 28.5588 23.382L28.5752 23.3975C28.4788 23.4349 28.3797 23.4651 28.2787 23.488C28.131 23.5236 27.9807 23.5473 27.8291 23.5587C27.7652 23.5615 27.7013 23.5607 27.6375 23.5564C27.6163 23.5577 27.6042 23.5405 27.5911 23.5291C27.4591 23.4062 27.3542 23.2582 27.2828 23.0941C27.1319 22.7727 27.0608 22.4207 27.0751 22.0668C27.076 22.0221 27.0791 21.9781 27.0792 21.9335C27.0803 21.9234 27.0791 21.9133 27.0759 21.9037C27.0726 21.8941 27.0673 21.8853 27.0603 21.8778C27.0533 21.8704 27.0448 21.8645 27.0354 21.8605C27.0259 21.8565 27.0156 21.8546 27.0053 21.8547C26.9863 21.8532 26.9674 21.8591 26.9527 21.871C26.9379 21.8829 26.9285 21.9 26.9265 21.9187C26.9052 22.0238 26.8937 22.1307 26.8923 22.2379C26.8787 22.607 26.9497 22.9743 27.0999 23.3127C27.1359 23.3863 27.176 23.4579 27.2198 23.5273Z" fill="#FF9A33"/>
<path d="M27.2198 23.5273L28.0988 27.4504L33.6664 26.2029L30.6184 21.3796L27.2198 23.5273ZM27.1096 23.5242L28.2118 19.6578L27.9978 19.5968L27.7783 19.5598L27.1096 23.5242ZM26.5901 23.3584L28.3433 19.7404L28.3357 19.7367L28.328 19.733L26.5901 23.3584ZM26.1341 22.7788L30.0726 21.9717L30.0588 21.9042L30.0426 21.8371L26.1341 22.7788ZM26.0641 21.9801L30.0768 22.2273L30.0783 22.2036L30.0795 22.1799L26.0641 21.9801ZM26.484 20.4229L22.9212 18.5602L22.9159 18.5704L22.9106 18.5806L26.484 20.4229ZM26.6892 20.0815L23.4112 17.7538L23.3911 17.7821L23.3715 17.8107L26.6892 20.0815ZM26.7345 20.0786L23.9547 22.9831L24.0372 23.0621L24.1241 23.1363L26.7345 20.0786ZM27.7476 20.3622L27.2328 16.3749L27.1769 16.3821L27.1213 16.3909L27.7476 20.3622ZM28.018 20.2876L29.6198 23.9751L29.653 23.9607L29.686 23.9457L28.018 20.2876ZM28.0662 20.3184L32.0826 20.1402L32.0809 20.1031L32.0786 20.0661L28.0662 20.3184ZM28.7284 22.0081L31.8084 19.4241L31.8025 19.417L28.7284 22.0081ZM29.3144 22.5205L31.4716 19.1279L31.4678 19.1255L29.3144 22.5205ZM29.3813 22.8255L32.6837 25.1184L32.7205 25.0654L32.7556 25.0113L29.3813 22.8255ZM28.9236 23.2339L27.0126 19.6968L26.9224 19.7455L26.8347 19.7988L28.9236 23.2339ZM28.8763 23.229L27.1625 26.8657L27.1784 26.8732L27.1943 26.8806L28.8763 23.229ZM28.3584 22.8201L31.5035 20.3157L31.4796 20.2857L31.4551 20.2561L28.3584 22.8201ZM27.9096 21.8417L31.8742 21.174L31.8688 21.142L31.8628 21.11L27.9096 21.8417ZM27.7515 21.8589L23.7391 22.1112L23.7439 22.1874L23.7516 22.2634L27.7515 21.8589ZM28.5588 23.382L31.3226 20.4623L31.2038 20.3498L31.0763 20.2474L28.5588 23.382ZM28.5752 23.3975L30.0287 27.1459L35.9555 24.8477L31.339 20.4778L28.5752 23.3975ZM28.2787 23.488L27.3897 19.5672L27.3628 19.5733L27.3359 19.5797L28.2787 23.488ZM27.8291 23.5587L28.0036 27.5753L28.0676 27.5725L28.1315 27.5677L27.8291 23.5587ZM27.6375 23.5564L27.9097 19.5452L27.6475 19.5274L27.3852 19.5439L27.6375 23.5564ZM27.5911 23.5291L24.8509 26.4711L24.9058 26.5221L24.9625 26.5711L27.5911 23.5291ZM27.2828 23.0941L30.9689 21.4891L30.9462 21.4371L30.9222 21.3858L27.2828 23.0941ZM27.0751 22.0668L31.0922 22.23L31.0939 22.1871L31.0948 22.1443L27.0751 22.0668ZM27.0792 21.9335L23.0798 21.5233L23.0595 21.722L23.0589 21.9218L27.0792 21.9335ZM27.0053 21.8547L26.6867 25.8625L26.8794 25.8778L27.0728 25.8745L27.0053 21.8547ZM26.9265 21.9187L30.8668 22.7169L30.9023 22.5415L30.9221 22.3636L26.9265 21.9187ZM26.8923 22.2379L30.9099 22.3851L30.9116 22.3386L30.9123 22.2921L26.8923 22.2379ZM27.0999 23.3127L23.4255 24.9443L23.4557 25.0123L23.4885 25.0791L27.0999 23.3127ZM26.3408 19.6042C26.9577 19.466 27.6009 19.4837 28.2118 19.6578L26.0073 27.3905C26.6899 27.5851 27.409 27.6049 28.0988 27.4504L26.3408 19.6042ZM27.7783 19.5598C27.9725 19.5926 28.1628 19.653 28.3433 19.7404L24.8369 26.9763C25.3455 27.2228 25.8857 27.3949 26.4408 27.4885L27.7783 19.5598ZM28.328 19.733C28.7614 19.9408 29.1479 20.2474 29.4527 20.6349L23.1334 25.6068C23.5965 26.1953 24.1861 26.6644 24.8523 26.9837L28.328 19.733ZM29.4527 20.6349C29.7579 21.0228 29.9718 21.4799 30.0726 21.9717L22.1956 23.5859C22.3474 24.3268 22.6701 25.0179 23.1334 25.6068L29.4527 20.6349ZM30.0426 21.8371C30.0733 21.9646 30.0849 22.0962 30.0768 22.2273L22.0513 21.7328C22.0102 22.4005 22.0689 23.0703 22.2256 23.7204L30.0426 21.8371ZM30.0795 22.1799C30.0778 22.2137 30.069 22.2428 30.0574 22.2653L22.9106 18.5806C22.3993 19.5724 22.1043 20.6627 22.0487 21.7803L30.0795 22.1799ZM30.0468 22.2856C30.0346 22.3091 30.0212 22.3313 30.0069 22.3522L23.3715 17.8107C23.2068 18.0512 23.0564 18.3015 22.9212 18.5602L30.0468 22.2856ZM29.9672 22.4091C29.9299 22.4616 29.7237 22.7577 29.3815 23.0641C29.0042 23.4019 28.2253 23.9643 27.0694 24.0682C25.9294 24.1707 25.0765 23.7675 24.663 23.5212C24.2742 23.2896 24.0191 23.0448 23.9547 22.9831L29.5142 17.1741C29.4389 17.102 29.1746 16.8495 28.7777 16.6131C28.3561 16.362 27.4962 15.9567 26.3495 16.0598C25.1869 16.1643 24.4018 16.73 24.0179 17.0737C23.6692 17.3859 23.4562 17.6904 23.4112 17.7538L29.9672 22.4091ZM24.1241 23.1363C24.7087 23.6353 25.3925 23.9974 26.1251 24.2025L28.2922 16.4593C28.6746 16.5663 29.0347 16.7562 29.3448 17.0209L24.1241 23.1363ZM26.1251 24.2025C26.8576 24.4075 27.6248 24.4516 28.374 24.3334L27.1213 16.3909C27.5106 16.3295 27.9098 16.3523 28.2922 16.4593L26.1251 24.2025ZM28.2625 24.3494C28.7295 24.2891 29.1865 24.1633 29.6198 23.9751L26.4162 16.6002C26.6774 16.4867 26.9523 16.4111 27.2328 16.3749L28.2625 24.3494ZM29.686 23.9457C29.6161 23.9775 29.2308 24.1579 28.6958 24.2459C28.1159 24.3414 26.7677 24.4133 25.5227 23.4024C24.4391 22.5225 24.1893 21.4 24.1341 21.1447C24.0923 20.9514 24.0742 20.7969 24.0665 20.7224C24.0583 20.6438 24.0545 20.5834 24.0537 20.5707L32.0786 20.0661C32.0772 20.0437 32.0728 19.9746 32.0638 19.888C32.0552 19.8056 32.0361 19.6439 31.993 19.4444C31.9351 19.1768 31.6813 18.0454 30.5912 17.1603C29.3397 16.1441 27.9826 16.2144 27.3901 16.3119C26.8425 16.402 26.441 16.5882 26.3501 16.6296L29.686 23.9457ZM24.0497 20.4966C24.1169 22.0088 24.6847 23.4487 25.6544 24.5991L31.8025 19.417C31.9675 19.6129 32.0704 19.8665 32.0826 20.1402L24.0497 20.4966ZM25.6484 24.5921C26.0827 25.1097 26.5933 25.5555 27.161 25.9156L31.4678 19.1255C31.5933 19.2051 31.7087 19.3052 31.8084 19.4241L25.6484 24.5921ZM27.1572 25.9132C26.7494 25.6539 25.8051 24.9227 25.4979 23.5113C25.1909 22.1008 25.7451 21.044 26.007 20.6397L32.7556 25.0113C33.099 24.4811 33.6836 23.3124 33.3547 21.8012C33.0256 20.2891 32.007 19.4684 31.4716 19.1279L27.1572 25.9132ZM26.0789 20.5326C26.3242 20.1792 26.6459 19.8949 27.0126 19.6968L30.8346 26.7711C31.5676 26.375 32.2029 25.8108 32.6837 25.1184L26.0789 20.5326ZM26.8347 19.7988C27.2072 19.5723 27.6989 19.3582 28.2967 19.2659C28.904 19.1722 29.446 19.2311 29.8758 19.3389C30.2661 19.4367 30.5501 19.5729 30.6306 19.6117C30.6694 19.6303 30.7126 19.6522 30.6875 19.6396C30.6802 19.6359 30.6266 19.6088 30.5583 19.5774L27.1943 26.8806C27.1298 26.8509 27.08 26.8256 27.0763 26.8238C27.0548 26.813 27.1016 26.8367 27.144 26.8571C27.2317 26.8993 27.5228 27.0386 27.9207 27.1383C28.3579 27.2479 28.9076 27.3075 29.5233 27.2125C30.1294 27.119 30.63 26.9016 31.0124 26.669L26.8347 19.7988ZM30.5902 19.5922C30.9402 19.7572 31.2542 20.0027 31.5035 20.3157L25.2134 25.3245C25.7391 25.9846 26.4076 26.51 27.1625 26.8657L30.5902 19.5922ZM31.4551 20.2561C31.6693 20.5148 31.8163 20.8307 31.8742 21.174L23.9451 22.5094C24.1238 23.5707 24.5802 24.5609 25.2618 25.384L31.4551 20.2561ZM31.8628 21.11C31.7492 20.496 31.423 19.5397 30.5266 18.7552C29.5559 17.9057 28.3922 17.6729 27.4493 17.76L28.1885 25.7667C27.2944 25.8492 26.1711 25.6286 25.2311 24.8059C24.3654 24.0483 24.0601 23.1334 23.9564 22.5735L31.8628 21.11ZM27.4493 17.76C26.5881 17.8395 25.3409 18.2512 24.4787 19.4753C23.7227 20.5485 23.7091 21.6345 23.7391 22.1112L31.764 21.6065C31.7902 22.0238 31.7859 23.0643 31.0523 24.1057C30.2125 25.2979 29.0009 25.6917 28.1885 25.7667L27.4493 17.76ZM23.7516 22.2634C23.912 23.8495 24.6374 25.389 26.0413 26.5165L31.0763 20.2474C31.2478 20.3851 31.4255 20.5867 31.56 20.8446C31.6912 21.0963 31.7377 21.3175 31.7515 21.4543L23.7516 22.2634ZM25.795 26.3017L25.8114 26.3172L31.339 20.4778L31.3226 20.4623L25.795 26.3017ZM27.1217 19.649C27.2092 19.6151 27.2988 19.5878 27.3897 19.5672L29.1676 27.4089C29.4605 27.3425 29.7483 27.2546 30.0287 27.1459L27.1217 19.649ZM27.3359 19.5797C27.3988 19.5646 27.4626 19.5546 27.5267 19.5497L28.1315 27.5677C28.4988 27.54 28.8633 27.4827 29.2214 27.3963L27.3359 19.5797ZM27.6547 19.5421C27.7396 19.5384 27.8248 19.5395 27.9097 19.5452L27.3653 27.5675C27.5778 27.5819 27.7908 27.5845 28.0036 27.5753L27.6547 19.5421ZM27.3852 19.5439C28.6632 19.4636 29.5895 20.0013 30.0439 20.3466C30.2392 20.495 30.3776 20.6309 30.3896 20.6424C30.4557 20.7061 30.3306 20.583 30.2196 20.4871L24.9625 26.5711C24.8581 26.4809 24.7394 26.3642 24.8122 26.4343C24.8308 26.4522 24.9761 26.5944 25.1787 26.7484C25.6477 27.1049 26.5906 27.6505 27.8898 27.5688L27.3852 19.5439ZM30.3312 20.5872C30.6 20.8376 30.8185 21.1437 30.9689 21.4891L23.5967 24.6991C23.89 25.3727 24.3182 25.9749 24.8509 26.4711L30.3312 20.5872ZM30.9222 21.3858C31.0449 21.6474 31.1041 21.9371 31.0922 22.23L23.0581 21.9036C23.0174 22.9042 23.2189 23.898 23.6434 24.8024L30.9222 21.3858ZM31.0948 22.1443C31.0943 22.1659 31.0938 22.1808 31.0937 22.183C31.0937 22.1843 31.0937 22.1841 31.0938 22.1804C31.0939 22.1785 31.094 22.1766 31.0941 22.1735C31.0942 22.1707 31.0944 22.167 31.0945 22.163C31.0956 22.1372 31.0993 22.0495 31.0996 21.9452L23.0589 21.9218C23.059 21.8889 23.0596 21.8637 23.06 21.8502C23.0603 21.8376 23.0607 21.8301 23.0604 21.8373C23.0603 21.8388 23.0603 21.8406 23.0601 21.8433C23.06 21.8458 23.0599 21.8494 23.0597 21.8531C23.0594 21.8605 23.059 21.8714 23.0585 21.8837C23.0576 21.9081 23.0564 21.9453 23.0555 21.9892L31.0948 22.1443ZM31.0786 22.3437C31.1387 21.7582 31.0716 21.1671 30.8827 20.6108L23.269 23.1966C23.0866 22.6594 23.0219 22.0887 23.0798 21.5233L31.0786 22.3437ZM30.8827 20.6108C30.6938 20.0546 30.3887 19.5495 29.9921 19.1268L24.1286 24.6289C23.7459 24.221 23.4514 23.7335 23.269 23.1966L30.8827 20.6108ZM29.9921 19.1268C29.5954 18.7041 29.1172 18.3743 28.592 18.1537L25.4788 25.5673C24.9725 25.3547 24.5113 25.0367 24.1286 24.6289L29.9921 19.1268ZM28.592 18.1537C28.0662 17.9329 27.5027 17.8255 26.9379 17.8349L27.0728 25.8745C26.5286 25.8837 25.9855 25.7801 25.4788 25.5673L28.592 18.1537ZM27.324 17.847C26.2845 17.7644 25.2435 18.0813 24.4213 18.7476L29.484 24.9944C28.6914 25.6368 27.6881 25.9421 26.6867 25.8625L27.324 17.847ZM24.4213 18.7476C23.5971 19.4156 23.0515 20.3895 22.9308 21.4737L30.9221 22.3636C30.8055 23.4106 30.2787 24.3503 29.484 24.9944L24.4213 18.7476ZM22.9861 21.1204C22.9153 21.4703 22.8771 21.8263 22.8723 22.1836L30.9123 22.2921C30.9103 22.4351 30.8951 22.5773 30.8668 22.7169L22.9861 21.1204ZM22.8746 22.0907C22.8386 23.0725 23.0276 24.0481 23.4255 24.9443L30.7743 21.6811C30.8718 21.9005 30.9189 22.1416 30.9099 22.3851L22.8746 22.0907ZM23.4885 25.0791C23.5886 25.2838 23.6996 25.4827 23.8211 25.675L30.6184 21.3796C30.6523 21.4331 30.6833 21.4887 30.7114 21.5462L23.4885 25.0791Z" fill="#FF9A33" mask="url(#path-4-inside-2_1636_9602)"/>
<mask id="path-6-inside-3_1636_9602" fill="white">
<path d="M27.5896 20.009C27.3926 20.0211 27.1965 19.9746 27.0258 19.8755C26.8551 19.7764 26.7176 19.6291 26.6305 19.452C26.5433 19.2749 26.5105 19.0761 26.5361 18.8804C26.5617 18.6847 26.6446 18.501 26.7743 18.3522C26.904 18.2035 27.0749 18.0965 27.2653 18.0446C27.4557 17.9928 27.6572 17.9983 27.8444 18.0607C28.0317 18.123 28.1963 18.2393 28.3176 18.3949C28.4389 18.5506 28.5115 18.7386 28.5263 18.9354C28.5363 19.0676 28.5199 19.2005 28.478 19.3263C28.4362 19.4521 28.3698 19.5684 28.2826 19.6683C28.1955 19.7682 28.0893 19.8497 27.9703 19.9082C27.8513 19.9667 27.7219 20.001 27.5896 20.009Z"/>
</mask>
<path d="M27.5896 20.009C27.3926 20.0211 27.1965 19.9746 27.0258 19.8755C26.8551 19.7764 26.7176 19.6291 26.6305 19.452C26.5433 19.2749 26.5105 19.0761 26.5361 18.8804C26.5617 18.6847 26.6446 18.501 26.7743 18.3522C26.904 18.2035 27.0749 18.0965 27.2653 18.0446C27.4557 17.9928 27.6572 17.9983 27.8444 18.0607C28.0317 18.123 28.1963 18.2393 28.3176 18.3949C28.4389 18.5506 28.5115 18.7386 28.5263 18.9354C28.5363 19.0676 28.5199 19.2005 28.478 19.3263C28.4362 19.4521 28.3698 19.5684 28.2826 19.6683C28.1955 19.7682 28.0893 19.8497 27.9703 19.9082C27.8513 19.9667 27.7219 20.001 27.5896 20.009Z" fill="#FF9A33"/>
<path d="M27.5896 20.009L27.3466 15.996L27.3435 15.9962L27.5896 20.009ZM28.5263 18.9354L24.5171 19.2356L24.5173 19.2386L28.5263 18.9354ZM27.3435 15.9962C27.9379 15.9597 28.5298 16.0998 29.0448 16.3989L25.0068 23.3522C25.8631 23.8494 26.8473 24.0824 27.8356 24.0218L27.3435 15.9962ZM29.0448 16.3989C29.5597 16.6979 29.9748 17.1426 30.2377 17.6769L23.0232 21.2271C23.4604 22.1156 24.1506 22.8549 25.0068 23.3522L29.0448 16.3989ZM30.2377 17.6769C30.5006 18.2112 30.5997 18.8113 30.5225 19.4018L22.5497 18.359C22.4213 19.3408 22.586 20.3387 23.0232 21.2271L30.2377 17.6769ZM30.5225 19.4018C30.4453 19.9922 30.1952 20.5467 29.8037 20.9954L23.7449 15.7091C23.0939 16.4552 22.6781 17.3772 22.5497 18.359L30.5225 19.4018ZM29.8037 20.9954C29.4122 21.4441 28.8968 21.767 28.3222 21.9236L26.2083 14.1657C25.2529 14.426 24.3959 14.963 23.7449 15.7091L29.8037 20.9954ZM28.3222 21.9236C27.7476 22.0801 27.1396 22.0633 26.5746 21.8752L29.1142 14.2461C28.1747 13.9334 27.1637 13.9054 26.2083 14.1657L28.3222 21.9236ZM26.5746 21.8752C26.0096 21.6871 25.5128 21.3362 25.1467 20.8665L31.4885 15.9234C30.8798 15.1424 30.0537 14.5588 29.1142 14.2461L26.5746 21.8752ZM25.1467 20.8665C24.7806 20.3969 24.5616 19.8294 24.5171 19.2356L32.5354 18.6353C32.4615 17.6478 32.0972 16.7043 31.4885 15.9234L25.1467 20.8665ZM24.5173 19.2386C24.4871 18.8393 24.5366 18.438 24.663 18.058L32.2931 20.5947C32.5031 19.9631 32.5854 19.296 32.5352 18.6323L24.5173 19.2386ZM24.663 18.058C24.7893 17.678 24.99 17.3269 25.2532 17.0251L31.312 22.3114C31.7496 21.8099 32.0831 21.2263 32.2931 20.5947L24.663 18.058ZM25.2532 17.0251C25.5165 16.7234 25.8371 16.477 26.1965 16.3003L29.7441 23.5161C30.3415 23.2225 30.8744 22.8129 31.312 22.3114L25.2532 17.0251ZM26.1965 16.3003C26.5559 16.1236 26.9469 16.0202 27.3466 15.996L27.8326 24.022C28.497 23.9818 29.1467 23.8098 29.7441 23.5161L26.1965 16.3003Z" fill="#FF9A33" mask="url(#path-6-inside-3_1636_9602)"/>
<mask id="path-8-inside-4_1636_9602" fill="white">
<path d="M10.8249 12.7702L20.6334 11.3027C20.698 11.2929 20.7638 11.3081 20.8176 11.3453L29.2671 17.2159C29.3096 17.2453 29.3423 17.2868 29.3609 17.3351C29.3796 17.3834 29.3833 17.4362 29.3717 17.4867C29.36 17.5372 29.3335 17.583 29.2956 17.6181C29.2576 17.6532 29.2101 17.676 29.1591 17.6835L28.5474 18.0002L28.4009 17.8531C27.7864 17.2358 26.7455 17.4372 26.4032 18.2395H25.808C25.7682 18.2457 25.374 18.2446 25.3356 18.232C25.2973 18.2193 25.2626 18.1977 25.2342 18.169C24.5313 17.454 21.518 12.975 13.8167 15.3931C13.7754 15.4085 13.731 15.4137 13.6873 15.4085C13.6435 15.4032 13.6016 15.3876 13.565 15.3629L10.7095 13.2335C10.6686 13.2031 10.6377 13.1611 10.6205 13.113C10.6034 13.0649 10.6008 13.0127 10.6132 12.9631C10.6255 12.9135 10.6522 12.8688 10.6899 12.8344C10.7276 12.8001 10.7746 12.7778 10.8249 12.7702Z"/>
</mask>
<path d="M10.8249 12.7702L20.6334 11.3027C20.698 11.2929 20.7638 11.3081 20.8176 11.3453L29.2671 17.2159C29.3096 17.2453 29.3423 17.2868 29.3609 17.3351C29.3796 17.3834 29.3833 17.4362 29.3717 17.4867C29.36 17.5372 29.3335 17.583 29.2956 17.6181C29.2576 17.6532 29.2101 17.676 29.1591 17.6835L28.5474 18.0002L28.4009 17.8531C27.7864 17.2358 26.7455 17.4372 26.4032 18.2395H25.808C25.7682 18.2457 25.374 18.2446 25.3356 18.232C25.2973 18.2193 25.2626 18.1977 25.2342 18.169C24.5313 17.454 21.518 12.975 13.8167 15.3931C13.7754 15.4085 13.731 15.4137 13.6873 15.4085C13.6435 15.4032 13.6016 15.3876 13.565 15.3629L10.7095 13.2335C10.6686 13.2031 10.6377 13.1611 10.6205 13.113C10.6034 13.0649 10.6008 13.0127 10.6132 12.9631C10.6255 12.9135 10.6522 12.8688 10.6899 12.8344C10.7276 12.8001 10.7746 12.7778 10.8249 12.7702Z" fill="#FF9A33"/>
<path d="M10.8249 12.7702L11.4187 16.7465L11.4197 16.7464L10.8249 12.7702ZM20.6334 11.3027L21.2283 15.2789L21.2412 15.2769L20.6334 11.3027ZM20.8176 11.3453L23.1115 8.04362L23.1057 8.03958L20.8176 11.3453ZM29.2671 17.2159L26.9731 20.5176L26.9818 20.5236L29.2671 17.2159ZM29.1591 17.6835L28.5714 13.7063L27.9069 13.8045L27.3105 14.1133L29.1591 17.6835ZM25.808 18.2395V14.2191H25.4965L25.1887 14.2671L25.808 18.2395ZM25.2342 18.169L22.3672 20.9875L22.3741 20.9944L25.2342 18.169ZM13.8167 15.3931L12.6124 11.5574L12.5133 11.5885L12.416 11.6247L13.8167 15.3931ZM13.565 15.3629L11.1617 18.5858L11.2363 18.6415L11.3134 18.6936L13.565 15.3629ZM10.7095 13.2335L13.1128 10.0106L13.1119 10.0099L10.7095 13.2335ZM26.4032 18.2395V22.2599H29.0588L30.101 19.8173L26.4032 18.2395ZM28.5474 18.0002L25.6983 20.8367L27.7781 22.9258L30.3959 21.5704L28.5474 18.0002ZM28.4009 17.8531L31.25 15.0166L31.25 15.0165L28.4009 17.8531ZM11.4197 16.7464L21.2283 15.2789L20.0385 7.32663L10.23 8.79413L11.4197 16.7464ZM21.2412 15.2769C20.2888 15.4226 19.3188 15.1974 18.5294 14.651L23.1057 8.03958C22.2089 7.41881 21.1071 7.16319 20.0256 7.32858L21.2412 15.2769ZM18.5236 14.647L26.9731 20.5176L31.5611 13.9142L23.1115 8.04363L18.5236 14.647ZM26.9818 20.5236C26.3585 20.093 25.8817 19.4858 25.6105 18.7834L33.1114 15.8868C32.8028 15.0878 32.2607 14.3976 31.5524 13.9082L26.9818 20.5236ZM25.6105 18.7834C25.3393 18.0812 25.2852 17.3142 25.4545 16.5816L33.2888 18.3918C33.4814 17.5583 33.4199 16.6856 33.1114 15.8868L25.6105 18.7834ZM25.4545 16.5816C25.6238 15.8489 26.0095 15.1814 26.5647 14.6676L32.0265 20.5686C32.6575 19.9845 33.0962 19.2254 33.2888 18.3918L25.4545 16.5816ZM26.5647 14.6676C27.12 14.1535 27.8191 13.8175 28.5714 13.7063L29.7468 21.6607C30.6011 21.5344 31.3952 21.1528 32.0265 20.5686L26.5647 14.6676ZM25.1887 14.2671C25.3756 14.238 25.5235 14.2295 25.5362 14.2287C25.5822 14.2257 25.6165 14.2243 25.6301 14.2238C25.6591 14.2228 25.6748 14.2226 25.6695 14.2227C25.6627 14.2228 25.6401 14.2229 25.6114 14.2226C25.5792 14.2223 25.5713 14.2218 25.587 14.2225C25.5908 14.2226 25.6366 14.2244 25.7043 14.2301C25.7364 14.2328 25.81 14.2394 25.9054 14.2528C25.9538 14.2596 26.0314 14.2714 26.1264 14.2904C26.2073 14.3065 26.3816 14.3434 26.5966 14.4145L24.0747 22.0495C24.4416 22.1706 24.7484 22.21 24.7883 22.2156C24.8937 22.2304 24.9797 22.2383 25.0263 22.2422C25.1231 22.2504 25.2063 22.2543 25.253 22.2562C25.3546 22.2605 25.455 22.2622 25.5311 22.263C25.6107 22.2638 25.6966 22.2638 25.776 22.2627C25.8139 22.2622 25.8672 22.2613 25.9256 22.2591C25.9538 22.2581 26.0007 22.2562 26.0569 22.2525C26.0798 22.251 26.2354 22.2418 26.4273 22.2119L25.1887 14.2671ZM26.5966 14.4145C27.1637 14.6018 27.6766 14.9207 28.0943 15.3435L22.3741 20.9944C22.8485 21.4747 23.431 21.8369 24.0747 22.0495L26.5966 14.4145ZM28.1011 15.3505C28.1711 15.4217 26.5408 13.3138 23.9557 12.0142C21.1434 10.6003 17.377 10.0614 12.6124 11.5574L15.0211 19.2288C17.9577 18.3068 19.5486 18.7983 20.344 19.1981C21.3666 19.7122 21.5943 20.2013 22.3672 20.9875L28.1011 15.3505ZM12.416 11.6247C12.9743 11.4171 13.5745 11.3457 14.1667 11.4168L13.2079 19.4002C13.8875 19.4818 14.5765 19.3998 15.2175 19.1616L12.416 11.6247ZM14.1667 11.4168C14.7588 11.4879 15.3243 11.6993 15.8166 12.0322L11.3134 18.6936C11.8789 19.0759 12.5282 19.3185 13.2079 19.4002L14.1667 11.4168ZM15.9684 12.1399L13.1128 10.0106L8.30614 16.4564L11.1617 18.5858L15.9684 12.1399ZM13.1119 10.0099C13.7094 10.4552 14.1593 11.0664 14.4078 11.7641L6.83318 14.4619C7.11596 15.2559 7.62778 15.9509 8.30705 16.4571L13.1119 10.0099ZM14.4078 11.7641C14.6563 12.4617 14.6932 13.2169 14.5143 13.9349L6.71202 11.9913C6.50844 12.8086 6.55045 13.668 6.83318 14.4619L14.4078 11.7641ZM14.5143 13.9349C14.3354 14.6532 13.9479 15.3048 13.3977 15.8062L7.98213 9.86267C7.35657 10.4327 6.91565 11.1739 6.71202 11.9913L14.5143 13.9349ZM13.3977 15.8062C12.8472 16.3077 12.1588 16.636 11.4187 16.7465L10.2311 8.79397C9.39031 8.91952 8.60794 9.29245 7.98213 9.86267L13.3977 15.8062ZM26.4032 14.2191H25.808V22.2599H26.4032V14.2191ZM27.3105 14.1133L26.6989 14.43L30.3959 21.5704L31.0076 21.2537L27.3105 14.1133ZM31.3965 15.1637L31.25 15.0166L25.5518 20.6896L25.6983 20.8367L31.3965 15.1637ZM30.101 19.8173C29.3288 21.6271 26.9563 22.1003 25.5518 20.6896L31.25 15.0165C28.6165 12.3714 24.1623 13.2472 22.7054 16.6617L30.101 19.8173Z" fill="#FF9A33" mask="url(#path-8-inside-4_1636_9602)"/>
<mask id="path-10-inside-5_1636_9602" fill="white">
<path d="M10.6855 23.9203C10.5393 23.9208 10.3946 23.89 10.2612 23.8298C10.1279 23.7697 10.009 23.6817 9.91252 23.5717C9.81604 23.4617 9.74423 23.3324 9.70194 23.1923C9.65965 23.0522 9.64784 22.9047 9.66733 22.7597C9.94582 20.8457 10.9038 19.0961 12.366 17.8308C13.8282 16.5655 15.6969 15.8691 17.6302 15.8691C19.5635 15.8691 21.4322 16.5655 22.8944 17.8308C24.3566 19.0961 25.3146 20.8457 25.5931 22.7597C25.6126 22.9047 25.6009 23.0523 25.5587 23.1924C25.5164 23.3325 25.4446 23.4619 25.3481 23.5719C25.2516 23.6819 25.1327 23.7699 24.9993 23.83C24.8659 23.8901 24.7212 23.9209 24.5749 23.9203H10.6855ZM14.5923 19.5297C14.4031 19.5297 14.2182 19.5859 14.0609 19.691C13.9036 19.7962 13.781 19.9456 13.7086 20.1204C13.6362 20.2953 13.6173 20.4877 13.6542 20.6733C13.6911 20.8589 13.7822 21.0294 13.9159 21.1632C14.0497 21.2971 14.2201 21.3882 14.4057 21.4251C14.5912 21.462 14.7835 21.4431 14.9583 21.3707C15.1331 21.2982 15.2825 21.1756 15.3876 21.0182C15.4927 20.8609 15.5488 20.6759 15.5488 20.4866C15.5488 20.2328 15.448 19.9895 15.2686 19.81C15.0892 19.6306 14.846 19.5297 14.5923 19.5297ZM20.6687 19.5297C20.4795 19.5297 20.2946 19.5859 20.1373 19.691C19.98 19.7962 19.8574 19.9456 19.785 20.1204C19.7126 20.2953 19.6937 20.4877 19.7306 20.6733C19.7675 20.8589 19.8586 21.0294 19.9924 21.1632C20.1261 21.2971 20.2966 21.3882 20.4821 21.4251C20.6677 21.462 20.86 21.4431 21.0347 21.3707C21.2095 21.2982 21.3589 21.1756 21.464 21.0182C21.5691 20.8609 21.6252 20.6759 21.6252 20.4866C21.6252 20.361 21.6005 20.2365 21.5524 20.1204C21.5043 20.0043 21.4339 19.8989 21.345 19.81C21.2562 19.7212 21.1508 19.6507 21.0347 19.6026C20.9187 19.5545 20.7943 19.5297 20.6687 19.5297Z"/>
</mask>
<path d="M10.6855 23.9203C10.5393 23.9208 10.3946 23.89 10.2612 23.8298C10.1279 23.7697 10.009 23.6817 9.91252 23.5717C9.81604 23.4617 9.74423 23.3324 9.70194 23.1923C9.65965 23.0522 9.64784 22.9047 9.66733 22.7597C9.94582 20.8457 10.9038 19.0961 12.366 17.8308C13.8282 16.5655 15.6969 15.8691 17.6302 15.8691C19.5635 15.8691 21.4322 16.5655 22.8944 17.8308C24.3566 19.0961 25.3146 20.8457 25.5931 22.7597C25.6126 22.9047 25.6009 23.0523 25.5587 23.1924C25.5164 23.3325 25.4446 23.4619 25.3481 23.5719C25.2516 23.6819 25.1327 23.7699 24.9993 23.83C24.8659 23.8901 24.7212 23.9209 24.5749 23.9203H10.6855ZM14.5923 19.5297C14.4031 19.5297 14.2182 19.5859 14.0609 19.691C13.9036 19.7962 13.781 19.9456 13.7086 20.1204C13.6362 20.2953 13.6173 20.4877 13.6542 20.6733C13.6911 20.8589 13.7822 21.0294 13.9159 21.1632C14.0497 21.2971 14.2201 21.3882 14.4057 21.4251C14.5912 21.462 14.7835 21.4431 14.9583 21.3707C15.1331 21.2982 15.2825 21.1756 15.3876 21.0182C15.4927 20.8609 15.5488 20.6759 15.5488 20.4866C15.5488 20.2328 15.448 19.9895 15.2686 19.81C15.0892 19.6306 14.846 19.5297 14.5923 19.5297ZM20.6687 19.5297C20.4795 19.5297 20.2946 19.5859 20.1373 19.691C19.98 19.7962 19.8574 19.9456 19.785 20.1204C19.7126 20.2953 19.6937 20.4877 19.7306 20.6733C19.7675 20.8589 19.8586 21.0294 19.9924 21.1632C20.1261 21.2971 20.2966 21.3882 20.4821 21.4251C20.6677 21.462 20.86 21.4431 21.0347 21.3707C21.2095 21.2982 21.3589 21.1756 21.464 21.0182C21.5691 20.8609 21.6252 20.6759 21.6252 20.4866C21.6252 20.361 21.6005 20.2365 21.5524 20.1204C21.5043 20.0043 21.4339 19.8989 21.345 19.81C21.2562 19.7212 21.1508 19.6507 21.0347 19.6026C20.9187 19.5545 20.7943 19.5297 20.6687 19.5297Z" fill="#FF9A33"/>
<path d="M10.6855 23.9203V19.8999L10.6715 19.9L10.6855 23.9203ZM10.2612 23.8298L11.914 20.1649L10.2612 23.8298ZM9.66733 22.7597L5.68886 22.1808L5.68569 22.2025L5.68277 22.2243L9.66733 22.7597ZM25.5931 22.7597L29.5772 22.2216L29.5745 22.2012L29.5715 22.1808L25.5931 22.7597ZM24.5749 23.9203L24.5917 19.9L24.5833 19.8999H24.5749V23.9203ZM13.7086 20.1204L9.99405 18.5825L13.7086 20.1204ZM10.6715 19.9C11.0998 19.8985 11.5235 19.9888 11.914 20.1649L8.60854 27.4948C9.26569 27.7911 9.97871 27.9431 10.6995 27.9406L10.6715 19.9ZM11.914 20.1649C12.3044 20.3409 12.6524 20.5986 12.9347 20.9204L6.89032 26.2231C7.36558 26.7648 7.95145 27.1985 8.60854 27.4948L11.914 20.1649ZM12.9347 20.9204C13.217 21.2422 13.427 21.6206 13.5507 22.0302L5.8532 24.3544C6.06145 25.0441 6.41505 25.6813 6.89032 26.2231L12.9347 20.9204ZM13.5507 22.0302C13.6744 22.4397 13.7089 22.871 13.6519 23.2951L5.68277 22.2243C5.58683 22.9384 5.64494 23.6647 5.8532 24.3544L13.5507 22.0302ZM13.6458 23.3386C13.7853 22.38 14.265 21.5041 14.9967 20.8709L9.73525 14.7906C7.54259 16.688 6.10637 19.3114 5.68886 22.1808L13.6458 23.3386ZM14.9967 20.8709C15.7285 20.2378 16.6633 19.8895 17.6302 19.8895V11.8488C14.7305 11.8488 11.9279 12.8932 9.73525 14.7906L14.9967 20.8709ZM17.6302 19.8895C18.5971 19.8895 19.5319 20.2378 20.2636 20.8709L25.5251 14.7906C23.3324 12.8932 20.5299 11.8488 17.6302 11.8488V19.8895ZM20.2636 20.8709C20.9954 21.5041 21.4751 22.38 21.6146 23.3386L29.5715 22.1808C29.154 19.3114 27.7178 16.688 25.5251 14.7906L20.2636 20.8709ZM21.6089 23.2978C21.5515 22.8734 21.5859 22.4416 21.7095 22.0316L29.4078 24.3532C29.616 23.6629 29.6737 22.936 29.5772 22.2216L21.6089 23.2978ZM21.7095 22.0316C21.8332 21.6215 22.0433 21.2427 22.3259 20.9206L28.3703 26.2233C28.8459 25.6812 29.1996 25.0435 29.4078 24.3532L21.7095 22.0316ZM22.3259 20.9206C22.6085 20.5985 22.9569 20.3406 23.3478 20.1645L26.6507 27.4956C27.3084 27.1992 27.8948 26.7653 28.3703 26.2233L22.3259 20.9206ZM23.3478 20.1645C23.7388 19.9884 24.1629 19.8982 24.5917 19.9L24.558 27.9406C25.2794 27.9436 25.993 27.7919 26.6507 27.4956L23.3478 20.1645ZM24.5749 19.8999H10.6855V27.9407H24.5749V19.8999ZM14.5923 15.5094C13.6076 15.5094 12.6451 15.8015 11.8266 16.3486L16.2951 23.0334C15.7912 23.3702 15.1986 23.5501 14.5923 23.5501V15.5094ZM11.8266 16.3486C11.0082 16.8957 10.3705 17.6732 9.99405 18.5825L17.4232 21.6584C17.1915 22.218 16.799 22.6966 16.2951 23.0334L11.8266 16.3486ZM9.99405 18.5825C9.61758 19.4917 9.5191 20.4922 9.711 21.4573L17.5974 19.8893C17.7154 20.4832 17.6548 21.0989 17.4232 21.6584L9.99405 18.5825ZM9.711 21.4573C9.9029 22.4225 10.3766 23.3093 11.0725 24.0055L16.7594 18.321C17.1877 18.7496 17.4793 19.2954 17.5974 19.8893L9.711 21.4573ZM11.0725 24.0055C11.7685 24.7017 12.6553 25.176 13.621 25.3682L15.1903 17.4821C15.785 17.6004 16.331 17.8924 16.7594 18.321L11.0725 24.0055ZM13.621 25.3682C14.5868 25.5604 15.5878 25.4617 16.4974 25.0848L13.4192 17.6566C13.9793 17.4245 14.5956 17.3637 15.1903 17.4821L13.621 25.3682ZM16.4974 25.0848C17.4069 24.7079 18.1841 24.0697 18.7308 23.2512L12.0443 18.7853C12.3808 18.2815 12.8592 17.8886 13.4192 17.6566L16.4974 25.0848ZM18.7308 23.2512C19.2775 22.4327 19.5691 21.4706 19.5691 20.4866H11.5284C11.5284 19.8811 11.7079 19.2891 12.0443 18.7853L18.7308 23.2512ZM19.5691 20.4866C19.5691 19.1671 19.0452 17.9013 18.112 16.9678L12.4252 22.6522C11.8508 22.0776 11.5284 21.2986 11.5284 20.4866H19.5691ZM18.112 16.9678C17.1788 16.0342 15.9128 15.5094 14.5923 15.5094V23.5501C13.7791 23.5501 12.9996 23.2269 12.4252 22.6522L18.112 16.9678ZM20.6687 15.5094C19.684 15.5094 18.7215 15.8015 17.9031 16.3486L22.3716 23.0334C21.8677 23.3702 21.2751 23.5501 20.6687 23.5501V15.5094ZM17.9031 16.3486C17.0846 16.8957 16.447 17.6732 16.0705 18.5825L23.4996 21.6584C23.2679 22.218 22.8755 22.6966 22.3716 23.0334L17.9031 16.3486ZM16.0705 18.5825C15.694 19.4917 15.5955 20.4922 15.7874 21.4573L23.6738 19.8893C23.7919 20.4832 23.7313 21.0989 23.4996 21.6584L16.0705 18.5825ZM15.7874 21.4573C15.9793 22.4225 16.453 23.3093 17.149 24.0055L22.8358 18.321C23.2642 18.7496 23.5557 19.2954 23.6738 19.8893L15.7874 21.4573ZM17.149 24.0055C17.8449 24.7017 18.7317 25.176 19.6975 25.3682L21.2668 17.4821C21.8614 17.6004 22.4074 17.8924 22.8358 18.321L17.149 24.0055ZM19.6975 25.3682C20.6632 25.5604 21.6642 25.4617 22.5738 25.0848L19.4957 17.6566C20.0557 17.4245 20.6721 17.3637 21.2668 17.4821L19.6975 25.3682ZM22.5738 25.0848C23.4834 24.7079 24.2606 24.0697 24.8072 23.2512L18.1208 18.7853C18.4572 18.2815 18.9357 17.8886 19.4957 17.6566L22.5738 25.0848ZM24.8072 23.2512C25.3539 22.4327 25.6456 21.4706 25.6456 20.4866H17.6048C17.6048 19.8811 17.7843 19.289 18.1208 18.7853L24.8072 23.2512ZM25.6456 20.4866C25.6456 19.8332 25.5169 19.1862 25.267 18.5825L17.8378 21.6584C17.684 21.2869 17.6048 20.8887 17.6048 20.4866H25.6456ZM25.267 18.5825C25.017 17.9787 24.6505 17.43 24.1885 16.9678L18.5016 22.6522C18.2172 22.3677 17.9917 22.03 17.8378 21.6584L25.267 18.5825ZM24.1885 16.9678C23.7264 16.5055 23.1778 16.1387 22.5738 15.8885L19.4957 23.3167C19.1238 23.1626 18.7861 22.9368 18.5016 22.6522L24.1885 16.9678ZM22.5738 15.8885C21.9699 15.6382 21.3225 15.5094 20.6687 15.5094V23.5501C20.2661 23.5501 19.8675 23.4708 19.4957 23.3167L22.5738 15.8885Z" fill="#FF9A33" mask="url(#path-10-inside-5_1636_9602)"/>
</svg>
