<svg width="20" height="20" viewBox="0 0 20 20" fill="none" xmlns="http://www.w3.org/2000/svg">
<rect width="20" height="20" fill="#272727"/>
<rect width="1998" height="820" transform="translate(-451 -216)" fill="white"/>
<rect x="-306.5" y="-93.5" width="1716" height="488" rx="4.5" stroke="#9747FF" stroke-dasharray="10 5"/>
<rect x="-20" y="-14" width="220" height="48" rx="11" fill="#FF9A33"/>
<path d="M0.432617 10.1573C0.432617 11.3726 0.672067 12.5759 1.1373 13.6987C1.60252 14.8215 2.28442 15.8416 3.14405 16.7009C4.88015 18.4364 7.2348 19.4114 9.69002 19.4114C11.8277 19.4195 13.9008 18.6796 15.55 17.32L17.4014 19.1708C17.5316 19.2992 17.6969 19.3862 17.8765 19.4208C18.0561 19.4554 18.2419 19.436 18.4105 19.3651C18.5771 19.2883 18.717 19.1637 18.8126 19.0072C18.9082 18.8506 18.9551 18.6692 18.9474 18.486V10.1573C18.9474 7.70295 17.9721 5.34913 16.236 3.61364C14.4999 1.87816 12.1452 0.903175 9.69002 0.903175C7.2348 0.903175 4.88015 1.87816 3.14405 3.61364C1.40795 5.34913 0.432617 7.70295 0.432617 10.1573ZM17.0959 10.1573V16.2558L16.235 15.3951C16.0616 15.2228 15.8269 15.126 15.5824 15.126C15.3378 15.126 15.1032 15.2228 14.9297 15.3951C13.7189 16.6069 12.1252 17.3615 10.4202 17.5303C8.71526 17.6992 7.00445 17.2719 5.57929 16.3213C4.15413 15.3706 3.10278 13.9554 2.60438 12.3167C2.10597 10.6781 2.19134 8.91737 2.84594 7.33459C3.50054 5.75181 4.68387 4.44487 6.19432 3.63644C7.70478 2.82801 9.4489 2.56811 11.1296 2.90102C12.8102 3.23393 14.3234 4.13906 15.4113 5.46218C16.4992 6.78531 17.0946 8.44458 17.0959 10.1573Z" fill="white"/>
<path d="M15.2578 13.3711C15.2346 13.3764 15.2103 13.3757 15.1875 13.3691C15.0722 13.3497 14.9605 13.3141 14.8558 13.2633C14.7815 13.2277 14.7166 13.1758 14.6662 13.1116C14.6157 13.0475 14.5809 12.9728 14.5646 12.8933C14.5244 12.7264 14.5094 12.5546 14.5199 12.3833C14.5372 12.0373 14.6285 11.6985 14.788 11.3891C14.8273 11.314 14.8711 11.2412 14.919 11.1711C14.9289 11.1572 14.934 11.1559 14.948 11.1693C15.0356 11.2441 15.1389 11.299 15.2507 11.3303C15.3625 11.3616 15.48 11.3684 15.5948 11.3503C15.6544 11.3426 15.7125 11.3266 15.7675 11.3027C15.7943 11.2905 15.7967 11.2977 15.7982 11.3224C15.8158 11.7178 15.9642 12.0965 16.221 12.4012C16.3278 12.5285 16.454 12.6388 16.5952 12.7284C16.6766 12.7802 16.6899 12.8427 16.6379 12.9231C16.5627 13.0313 16.4626 13.1207 16.3456 13.1838C16.333 13.1915 16.3251 13.1851 16.3155 13.1807C16.1862 13.1198 16.0731 13.0304 15.9848 12.9196C15.8356 12.7394 15.7369 12.5242 15.6983 12.295C15.6919 12.2605 15.6715 12.242 15.6403 12.2449C15.6091 12.2478 15.5949 12.268 15.5973 12.3059C15.637 12.6977 15.8005 13.0276 16.1128 13.2784L16.1232 13.2883C16.0617 13.3121 15.9984 13.3315 15.9339 13.3461C15.8396 13.3688 15.7436 13.3839 15.6469 13.3912C15.6061 13.393 15.5652 13.3925 15.5245 13.3897C15.511 13.3906 15.5033 13.3796 15.4949 13.3723C15.4106 13.2939 15.3437 13.1993 15.298 13.0946C15.2017 12.8894 15.1563 12.6646 15.1655 12.4386C15.166 12.4101 15.168 12.382 15.1681 12.3536C15.1687 12.3471 15.168 12.3406 15.1659 12.3345C15.1638 12.3284 15.1605 12.3228 15.156 12.318C15.1516 12.3133 15.1461 12.3095 15.1401 12.307C15.134 12.3044 15.1275 12.3032 15.1209 12.3033C15.1088 12.3023 15.0967 12.306 15.0873 12.3137C15.0779 12.3213 15.0719 12.3322 15.0705 12.3441C15.0569 12.4112 15.0496 12.4795 15.0487 12.5479C15.0401 12.7836 15.0854 13.0181 15.1813 13.2341C15.2043 13.2811 15.2298 13.3268 15.2578 13.3711Z" fill="white"/>
<path d="M15.4923 11.1259C15.3665 11.1336 15.2413 11.104 15.1323 11.0407C15.0233 10.9774 14.9355 10.8834 14.8799 10.7703C14.8243 10.6572 14.8033 10.5303 14.8196 10.4053C14.836 10.2804 14.8889 10.1631 14.9717 10.0681C15.0546 9.9732 15.1636 9.90486 15.2852 9.87174C15.4068 9.83861 15.5354 9.84218 15.655 9.88197C15.7745 9.92177 15.8796 9.99602 15.9571 10.0954C16.0345 10.1948 16.0809 10.3148 16.0903 10.4405C16.0967 10.5249 16.0862 10.6097 16.0595 10.6901C16.0328 10.7704 15.9904 10.8446 15.9347 10.9084C15.8791 10.9722 15.8113 11.0242 15.7353 11.0616C15.6594 11.0989 15.5768 11.1208 15.4923 11.1259Z" fill="white"/>
<path d="M4.79047 6.50133L11.0529 5.56437C11.0941 5.55807 11.1362 5.56779 11.1705 5.59155L16.5653 9.33977C16.5924 9.35851 16.6133 9.38502 16.6252 9.41586C16.6371 9.4467 16.6395 9.48043 16.632 9.51266C16.6246 9.54488 16.6077 9.5741 16.5835 9.59651C16.5592 9.61893 16.5289 9.63349 16.4963 9.6383L16.1058 9.84051L16.0122 9.74657C15.6199 9.35248 14.9553 9.48103 14.7368 9.99329H14.3567C14.3313 9.99726 14.0796 9.99655 14.0552 9.98847C14.0307 9.98039 14.0085 9.96661 13.9904 9.94825C13.5416 9.49179 11.6177 6.63209 6.70068 8.17596C6.67429 8.18576 6.64596 8.18913 6.61802 8.18577C6.59008 8.18242 6.56334 8.17244 6.53999 8.15666L4.71679 6.79711C4.6907 6.77767 4.67094 6.75089 4.65999 6.72017C4.64905 6.68944 4.64742 6.65614 4.65531 6.62448C4.66319 6.59283 4.68024 6.56423 4.7043 6.54231C4.72836 6.52039 4.75834 6.50613 4.79047 6.50133Z" fill="white"/>
<path d="M4.69985 13.6209C4.60647 13.6212 4.51411 13.6015 4.42897 13.5631C4.34384 13.5247 4.26792 13.4685 4.20632 13.3983C4.14472 13.3281 4.09887 13.2455 4.07187 13.1561C4.04487 13.0666 4.03733 12.9725 4.04977 12.8799C4.22758 11.6579 4.83922 10.5408 5.77279 9.73292C6.70636 8.92506 7.89946 8.48047 9.13382 8.48047C10.3682 8.48047 11.5613 8.92506 12.4948 9.73292C13.4284 10.5408 14.0401 11.6579 14.2179 12.8799C14.2304 12.9725 14.2229 13.0667 14.1959 13.1561C14.1689 13.2456 14.1231 13.3282 14.0615 13.3985C13.9999 13.4687 13.9239 13.5249 13.8387 13.5633C13.7536 13.6016 13.6612 13.6213 13.5678 13.6209H4.69985ZM7.19421 10.8177C7.07342 10.8177 6.95535 10.8535 6.85493 10.9206C6.7545 10.9877 6.67623 11.0832 6.63001 11.1948C6.58379 11.3064 6.57169 11.4293 6.59525 11.5478C6.61882 11.6663 6.67698 11.7752 6.76239 11.8606C6.84779 11.946 6.95661 12.0042 7.07507 12.0278C7.19353 12.0514 7.31632 12.0393 7.4279 11.993C7.53949 11.9468 7.63487 11.8685 7.70197 11.768C7.76907 11.6675 7.80489 11.5494 7.80489 11.4286C7.80489 11.2666 7.74055 11.1112 7.62602 10.9966C7.5115 10.882 7.35617 10.8177 7.19421 10.8177ZM11.0738 10.8177C10.953 10.8177 10.835 10.8535 10.7345 10.9206C10.6341 10.9877 10.5558 11.0832 10.5096 11.1948C10.4634 11.3064 10.4513 11.4293 10.4749 11.5478C10.4984 11.6663 10.5566 11.7752 10.642 11.8606C10.7274 11.946 10.8362 12.0042 10.9547 12.0278C11.0731 12.0514 11.1959 12.0393 11.3075 11.993C11.4191 11.9468 11.5145 11.8685 11.5816 11.768C11.6487 11.6675 11.6845 11.5494 11.6845 11.4286C11.6845 11.3484 11.6687 11.2689 11.638 11.1948C11.6073 11.1207 11.5624 11.0533 11.5056 10.9966C11.4489 10.9399 11.3816 10.8949 11.3075 10.8642C11.2334 10.8335 11.154 10.8177 11.0738 10.8177Z" fill="white"/>
</svg>
