<svg width="50" height="50" viewBox="0 0 80 79" fill="none" xmlns="http://www.w3.org/2000/svg">
<rect x="1.241" y="1.241" width="76.9419" height="76.9419" rx="14.759" fill="white"/>
<rect x="1.241" y="1.241" width="76.9419" height="76.9419" rx="14.759" stroke="#E9EEF2" stroke-width="2.482"/>
<path d="M53.0639 38.4708H29.6005L37.394 30.6113C37.6184 30.3869 37.7569 30.0767 37.7569 29.7341C37.7569 29.3916 37.6184 29.0819 37.394 28.857C37.1696 28.6326 36.8594 28.4941 36.5169 28.4941C36.1744 28.4941 35.8646 28.6326 35.6397 28.857L25.7118 38.8843C25.4968 39.0947 25.3633 39.3881 25.3633 39.7123C25.3633 39.7296 25.3638 39.7465 25.3643 39.7634V39.7609C25.3648 40.1034 25.5038 40.4137 25.7281 40.6381L35.7554 50.566C35.9748 50.7909 36.2811 50.9299 36.6196 50.9299C36.6241 50.9299 36.6286 50.9299 36.633 50.9299C37.3106 50.92 37.8562 50.3685 37.8562 49.6889C37.8562 49.3464 37.7177 49.0361 37.4933 48.8118L29.5509 40.9523H53.0639C53.7494 40.9523 54.3049 40.3968 54.3049 39.7113C54.3049 39.0258 53.7494 38.4708 53.0639 38.4708Z" fill="#3C4852"/>
</svg>
