<svg width="400" height="320" viewBox="0 0 400 320" fill="none" xmlns="http://www.w3.org/2000/svg">
<rect width="400" height="320" rx="14" fill="url(#paint0_linear_3873_2863)"/>
<mask id="mask0_3873_2863" style="mask-type:alpha" maskUnits="userSpaceOnUse" x="0" y="0" width="400" height="320">
<rect width="400" height="320" rx="14" fill="white"/>
</mask>
<g mask="url(#mask0_3873_2863)">
<path d="M552 -0.0015564C552 33.827 545.337 67.3242 532.391 98.5777C519.446 129.831 500.471 158.229 476.551 182.149C452.63 206.07 424.233 225.044 392.979 237.99C361.726 250.935 328.229 257.598 294.4 257.598C260.572 257.598 227.074 250.935 195.821 237.99C164.567 225.044 136.17 206.07 112.249 182.149C88.329 158.229 69.3543 129.831 56.4087 98.5777C43.4631 67.3242 36.8 33.8269 36.8 -0.00158691L294.4 -0.0015564H552Z" fill="url(#paint1_linear_3873_2863)" fill-opacity="0.16"/>
</g>
<defs>
<linearGradient id="paint0_linear_3873_2863" x1="459.2" y1="-31.2" x2="-83.2" y2="384.8" gradientUnits="userSpaceOnUse">
<stop stop-color="#2CA4C7"/>
<stop offset="1" stop-color="#ADD755"/>
</linearGradient>
<linearGradient id="paint1_linear_3873_2863" x1="422.757" y1="0.883658" x2="170.469" y2="245.205" gradientUnits="userSpaceOnUse">
<stop stop-color="white" stop-opacity="0"/>
<stop offset="1" stop-color="white"/>
</linearGradient>
</defs>
</svg>
