<svg width="27" height="27" viewBox="0 0 27 27" fill="none" xmlns="http://www.w3.org/2000/svg">
<g id="Chat bot" clip-path="url(#clip0_1929_5693)">
<g id="Group 1000002663">
<g id="Group 36648">
<g id="Group 1000002664">
<path id="Vector" d="M0.977539 13.7796C0.977539 15.367 1.29032 16.9389 1.89802 18.4055C2.50573 19.8721 3.39645 21.2047 4.51934 22.3272C6.78712 24.5942 9.8629 25.8678 13.07 25.8678C15.8623 25.8784 18.5703 24.9119 20.7246 23.1359L23.1431 25.5535C23.3131 25.7212 23.529 25.8348 23.7636 25.88C23.9982 25.9252 24.2409 25.8999 24.4611 25.8073C24.6787 25.7069 24.8615 25.5442 24.9864 25.3397C25.1113 25.1353 25.1726 24.8983 25.1625 24.659V13.7796C25.1625 10.5736 23.8885 7.49892 21.6207 5.23194C19.3529 2.96497 16.2771 1.69139 13.07 1.69139C9.8629 1.69139 6.78712 2.96497 4.51934 5.23194C2.25156 7.49892 0.977539 10.5736 0.977539 13.7796ZM22.744 13.7796V21.7457L21.6194 20.6215C21.3928 20.3964 21.0864 20.27 20.7669 20.27C20.4474 20.27 20.1409 20.3964 19.9144 20.6215C18.3327 22.2044 16.251 23.19 14.0239 23.4106C11.7967 23.6312 9.562 23.0731 7.70038 21.8313C5.83876 20.5895 4.46544 18.7408 3.8144 16.6004C3.16336 14.4599 3.27487 12.1599 4.12994 10.0924C4.98501 8.02492 6.53074 6.31773 8.50377 5.26172C10.4768 4.20571 12.7551 3.86622 14.9504 4.30108C17.1458 4.73595 19.1224 5.91826 20.5435 7.6466C21.9646 9.37493 22.7422 11.5424 22.744 13.7796Z" fill="#434343"/>
<path id="Vector_2" d="M20.3429 17.9801C20.3125 17.9869 20.2809 17.986 20.251 17.9775C20.1005 17.9521 19.9545 17.9055 19.8177 17.8392C19.7207 17.7927 19.6359 17.7249 19.57 17.6411C19.5041 17.5573 19.4587 17.4597 19.4374 17.3558C19.3849 17.1379 19.3652 16.9135 19.379 16.6897C19.4015 16.2378 19.5208 15.7953 19.7292 15.3911C19.7805 15.2929 19.8377 15.1978 19.9003 15.1063C19.9133 15.0881 19.9199 15.0865 19.9381 15.1039C20.0526 15.2016 20.1876 15.2734 20.3336 15.3143C20.4796 15.3551 20.633 15.3641 20.7831 15.3404C20.8609 15.3303 20.9368 15.3094 21.0086 15.2782C21.0437 15.2622 21.0467 15.2716 21.0488 15.3039C21.0717 15.8204 21.2656 16.315 21.6011 16.7131C21.7406 16.8794 21.9054 17.0235 22.0898 17.1405C22.1962 17.2081 22.2136 17.2898 22.1456 17.3948C22.0474 17.5362 21.9166 17.6529 21.7638 17.7354C21.7473 17.7455 21.737 17.7371 21.7244 17.7313C21.5556 17.6517 21.4078 17.535 21.2925 17.3903C21.0976 17.1549 20.9686 16.8737 20.9182 16.5743C20.9099 16.5293 20.8833 16.5052 20.8425 16.5089C20.8018 16.5127 20.7832 16.5391 20.7864 16.5886C20.8381 17.1005 21.0518 17.5314 21.4596 17.8589L21.4733 17.8718C21.3929 17.903 21.3102 17.9283 21.226 17.9473C21.1029 17.9771 20.9774 17.9968 20.851 18.0063C20.7978 18.0086 20.7444 18.008 20.6913 18.0044C20.6736 18.0055 20.6635 17.9911 20.6525 17.9816C20.5425 17.8791 20.455 17.7557 20.3954 17.6188C20.2696 17.3508 20.2102 17.0572 20.2222 16.762C20.223 16.7248 20.2255 16.6881 20.2256 16.6509C20.2265 16.6425 20.2256 16.634 20.2228 16.626C20.2201 16.618 20.2157 16.6107 20.2099 16.6044C20.2041 16.5982 20.197 16.5933 20.1891 16.59C20.1812 16.5867 20.1726 16.585 20.164 16.5852C20.1481 16.5839 20.1324 16.5888 20.1201 16.5988C20.1078 16.6087 20.1 16.623 20.0982 16.6385C20.0805 16.7262 20.0709 16.8153 20.0697 16.9047C20.0584 17.2126 20.1176 17.5189 20.2429 17.8011C20.273 17.8625 20.3063 17.9222 20.3429 17.9801Z" fill="#434343"/>
<path id="Vector_3" d="M20.6493 15.0448C20.485 15.0548 20.3214 15.0161 20.1791 14.9334C20.0368 14.8508 19.9221 14.7279 19.8494 14.5802C19.7767 14.4326 19.7493 14.2667 19.7707 14.1035C19.792 13.9403 19.8611 13.787 19.9693 13.663C20.0776 13.539 20.22 13.4498 20.3788 13.4065C20.5376 13.3632 20.7057 13.3679 20.8618 13.4198C21.018 13.4718 21.1553 13.5688 21.2565 13.6986C21.3577 13.8285 21.4182 13.9853 21.4305 14.1494C21.4388 14.2597 21.4252 14.3705 21.3903 14.4754C21.3554 14.5803 21.3 14.6773 21.2273 14.7606C21.1546 14.8439 21.0661 14.9119 20.9668 14.9607C20.8676 15.0095 20.7597 15.0381 20.6493 15.0448Z" fill="#434343"/>
<path id="Vector_4" d="M6.67028 9.00467L14.8506 7.78077C14.9045 7.77254 14.9594 7.78523 15.0042 7.81627L22.0511 12.7124C22.0866 12.7369 22.1138 12.7715 22.1294 12.8118C22.1449 12.8521 22.1481 12.8961 22.1383 12.9382C22.1286 12.9803 22.1065 13.0185 22.0749 13.0478C22.0432 13.077 22.0036 13.096 21.961 13.1023L21.4509 13.3665L21.3287 13.2438C20.8162 12.729 19.9481 12.8969 19.6626 13.566H19.1662C19.133 13.5712 18.8042 13.5703 18.7723 13.5597C18.7403 13.5492 18.7113 13.5312 18.6877 13.5072C18.1015 12.911 15.5883 9.17547 9.1655 11.1921C9.13102 11.205 9.09402 11.2094 9.05752 11.205C9.02103 11.2006 8.98609 11.1876 8.9556 11.1669L6.57403 9.39103C6.53996 9.36563 6.51414 9.33066 6.49985 9.29052C6.48556 9.25038 6.48342 9.20689 6.49373 9.16554C6.50403 9.12418 6.5263 9.08683 6.55772 9.05819C6.58915 9.02956 6.62832 9.01093 6.67028 9.00467Z" fill="#434343"/>
<path id="Vector_5" d="M6.55112 18.3035C6.42914 18.304 6.30848 18.2782 6.19728 18.2281C6.08607 18.1779 5.9869 18.1045 5.90643 18.0128C5.82597 17.9211 5.76609 17.8132 5.73081 17.6964C5.69554 17.5796 5.6857 17.4565 5.70195 17.3356C5.93421 15.7394 6.73316 14.2801 7.95264 13.2249C9.17212 12.1696 10.7306 11.5889 12.343 11.5889C13.9554 11.5889 15.5138 12.1696 16.7333 13.2249C17.9528 14.2801 18.7518 15.7394 18.984 17.3356C19.0004 17.4565 18.9906 17.5796 18.9553 17.6965C18.9201 17.8133 18.8602 17.9213 18.7797 18.013C18.6993 18.1047 18.6 18.1781 18.4888 18.2283C18.3775 18.2784 18.2569 18.304 18.1348 18.3035H6.55112ZM9.80936 14.6418C9.65159 14.6418 9.49736 14.6886 9.36618 14.7763C9.235 14.864 9.13276 14.9886 9.07238 15.1345C9.012 15.2803 8.9962 15.4407 9.02698 15.5955C9.05776 15.7504 9.13374 15.8925 9.2453 16.0042C9.35686 16.1158 9.499 16.1918 9.65374 16.2226C9.80848 16.2534 9.96887 16.2375 10.1146 16.1771C10.2604 16.1167 10.385 16.0145 10.4726 15.8832C10.5603 15.752 10.6071 15.5977 10.6071 15.4399C10.6071 15.2282 10.523 15.0252 10.3734 14.8756C10.2238 14.7259 10.0209 14.6418 9.80936 14.6418ZM14.8771 14.6418C14.7193 14.6418 14.5651 14.6886 14.4339 14.7763C14.3028 14.864 14.2005 14.9886 14.1401 15.1345C14.0798 15.2803 14.064 15.4407 14.0947 15.5955C14.1255 15.7504 14.2015 15.8925 14.3131 16.0042C14.4246 16.1158 14.5668 16.1918 14.7215 16.2226C14.8762 16.2534 15.0366 16.2375 15.1824 16.1771C15.3281 16.1167 15.4527 16.0145 15.5404 15.8832C15.628 15.752 15.6748 15.5977 15.6748 15.4399C15.6748 15.3351 15.6542 15.2313 15.6141 15.1345C15.574 15.0376 15.5153 14.9497 15.4412 14.8756C15.3671 14.8014 15.2792 14.7427 15.1824 14.7026C15.0856 14.6625 14.9819 14.6418 14.8771 14.6418Z" fill="#434343"/>
</g>
</g>
</g>
</g>
<defs>
<clipPath id="clip0_1929_5693">
<rect width="26.125" height="26.125" fill="white" transform="translate(0.412109 0.512695)"/>
</clipPath>
</defs>
</svg>
