<svg width="20" height="20" viewBox="0 0 20 20" fill="none" xmlns="http://www.w3.org/2000/svg">
<g clip-path="url(#clip0_140_249)">
<path d="M20 19.1667C20 19.6267 19.6267 20 19.1667 20H2.5C1.12167 20 0 18.8783 0 17.5V0.833333C0 0.373333 0.373333 0 0.833333 0C1.29333 0 1.66667 0.373333 1.66667 0.833333V17.5C1.66667 17.9592 2.04083 18.3333 2.5 18.3333H19.1667C19.6267 18.3333 20 18.7067 20 19.1667ZM17.5 4.16667H14.1667C13.7067 4.16667 13.3333 4.54 13.3333 5C13.3333 5.46 13.7067 5.83333 14.1667 5.83333H17.1358L13.0883 9.75583C12.7742 10.0708 12.225 10.0708 11.9108 9.75583C11.8767 9.7225 10.8783 9.01167 10.8783 9.01167C9.93 8.1175 8.31417 8.15083 7.41 9.05417L3.58833 12.7325C3.25667 13.0517 3.24667 13.5792 3.56583 13.9108C3.73 14.0808 3.9475 14.1667 4.16667 14.1667C4.375 14.1667 4.58333 14.0892 4.74417 13.9342L8.5775 10.2442C8.89167 9.92917 9.44083 9.92917 9.755 10.2442C9.78917 10.2775 10.7875 10.9883 10.7875 10.9883C11.7367 11.8833 13.3508 11.8517 14.2575 10.9433L18.3325 6.99333V9.99917C18.3325 10.4592 18.7058 10.8325 19.1658 10.8325C19.6258 10.8325 19.9992 10.4592 19.9992 9.99917V6.66583C19.9992 5.2875 18.8775 4.16583 17.4992 4.16583L17.5 4.16667Z" fill="white"/>
</g>
<defs>
<clipPath id="clip0_140_249">
<rect width="20" height="20" fill="white"/>
</clipPath>
</defs>
</svg>
