<svg width="35" height="35" viewBox="0 0 35 35" fill="none" xmlns="http://www.w3.org/2000/svg">
<g id="cloud-upload-alt (1) 1" clip-path="url(#clip0_2482_604)">
<path id="Vector" d="M26.2121 10.4199C25.7294 10.3237 25.3342 10.0218 25.13 9.59013C22.8696 4.81992 17.6298 2.15263 12.3929 3.11805C7.62125 3.99305 3.88063 7.80222 3.08292 12.5987C2.84667 14.0147 2.86417 15.4322 3.13104 16.8133C3.21854 17.2639 3.02458 17.7655 2.62646 18.1272C0.956667 19.6453 0 21.808 0 24.0626C0 28.4843 3.59771 32.0835 8.02083 32.0835H24.0625C30.0942 32.0835 35 27.1776 35 21.146C35 15.947 31.3046 11.4349 26.2121 10.4199ZM24.0625 29.1653H8.02083C5.20625 29.1653 2.91667 26.8758 2.91667 24.0612C2.91667 22.6276 3.52625 21.2495 4.58792 20.2841C5.73417 19.2414 6.27229 17.6985 5.99229 16.2547C5.79104 15.2164 5.77938 14.1474 5.95729 13.0741C6.545 9.54201 9.40625 6.6268 12.915 5.98367C13.4765 5.88159 14.035 5.83201 14.5863 5.83201C17.9579 5.83201 21.0102 7.7118 22.4933 10.8399C23.0956 12.1116 24.2433 13.0012 25.6404 13.2797C29.3738 14.0249 32.0819 17.3324 32.0819 21.146C32.0819 25.5676 28.4827 29.1668 24.061 29.1668L24.0625 29.1653ZM22.0515 17.926C22.6217 18.4962 22.6217 19.4178 22.0515 19.988C21.7671 20.2724 21.3937 20.4153 21.0204 20.4153C20.6471 20.4153 20.2738 20.2724 19.9894 19.988L17.5 17.4987V24.7903C17.5 25.5968 16.8467 26.2487 16.0417 26.2487C15.2367 26.2487 14.5833 25.5968 14.5833 24.7903V17.4987L12.094 19.988C11.5238 20.5583 10.6021 20.5583 10.0319 19.988C9.46167 19.4178 9.46167 18.4962 10.0319 17.926L13.9796 13.9783C14.5425 13.4153 15.2819 13.1324 16.0212 13.128L16.0417 13.1237L16.0621 13.128C16.8029 13.1324 17.5408 13.4153 18.1038 13.9783L22.0515 17.926Z" fill="black" fill-opacity="0.6"/>
</g>
<defs>
<clipPath id="clip0_2482_604">
<rect width="35" height="35" fill="white"/>
</clipPath>
</defs>
</svg>
