<svg width="24" height="24" viewBox="0 0 24 24" fill="none" xmlns="http://www.w3.org/2000/svg">
<path d="M8.27637 17.6945C8.27637 17.6936 8.27637 17.6921 8.27637 17.6909C8.27637 17.4876 8.35922 17.3039 8.49327 17.1716L13.8889 11.776L8.49356 6.38072C8.37047 6.24904 8.29501 6.07149 8.29501 5.87649C8.29501 5.46784 8.62613 5.13672 9.03478 5.13672C9.22978 5.13672 9.40733 5.21218 9.5396 5.33557L9.5393 5.33527L15.4575 11.2534C15.5912 11.3872 15.6738 11.5721 15.6738 11.7763C15.6738 11.9805 15.5912 12.1651 15.4575 12.2992L9.5393 18.2173C9.40555 18.3511 9.22061 18.4336 9.01643 18.4336C8.81226 18.4336 8.62761 18.3511 8.49356 18.2173C8.35952 18.0851 8.27666 17.9013 8.27666 17.698C8.27666 17.6968 8.27666 17.6956 8.27666 17.6945H8.27637Z" fill="#3C4852"/>
</svg>
