<svg width="20" height="20" viewBox="0 0 20 20" fill="none" xmlns="http://www.w3.org/2000/svg">
<g clip-path="url(#clip0_46_101)">
<path d="M10 1.6669C11.1054 1.67052 12.1992 1.89335 13.2179 2.32247C14.2366 2.75159 15.1601 3.37849 15.935 4.1669H13.3333C13.1123 4.1669 12.9004 4.25469 12.7441 4.41097C12.5878 4.56726 12.5 4.77922 12.5 5.00023C12.5 5.22124 12.5878 5.43321 12.7441 5.58949C12.9004 5.74577 13.1123 5.83356 13.3333 5.83356H16.7858C17.1962 5.83334 17.5897 5.67023 17.8798 5.38007C18.17 5.0899 18.3331 4.69642 18.3333 4.28606V0.833563C18.3333 0.61255 18.2455 0.400588 18.0893 0.244308C17.933 0.0880274 17.721 0.00022997 17.5 0.00022997C17.279 0.00022997 17.067 0.0880274 16.9107 0.244308C16.7545 0.400588 16.6667 0.61255 16.6667 0.833563V2.56523C15.2893 1.32477 13.5938 0.492238 11.7701 0.160854C9.94634 -0.17053 8.06635 0.0123233 6.34065 0.688936C4.61495 1.36555 3.11168 2.50921 1.99917 3.99183C0.886671 5.47446 0.208867 7.23752 0.041665 9.08356C0.0309012 9.19961 0.0444282 9.31663 0.0813841 9.42716C0.11834 9.53769 0.177915 9.63931 0.256312 9.72555C0.334709 9.81179 0.43021 9.88075 0.53673 9.92804C0.64325 9.97533 0.758453 9.99992 0.874998 10.0002C1.07882 10.0028 1.27628 9.92926 1.42871 9.79393C1.58115 9.65861 1.67759 9.47126 1.69917 9.26856C1.88468 7.19419 2.83914 5.26415 4.37507 3.85759C5.91099 2.45104 7.91735 1.66964 10 1.6669Z" fill="white"/>
<path d="M19.1258 10.0001C18.922 9.99747 18.7246 10.071 18.5721 10.2064C18.4197 10.3417 18.3232 10.529 18.3017 10.7317C18.1639 12.3178 17.5741 13.831 16.6022 15.0919C15.6303 16.3528 14.3171 17.3085 12.8185 17.8455C11.3198 18.3826 9.6985 18.4785 8.14696 18.1218C6.59542 17.7652 5.17875 16.971 4.065 15.8334H6.66667C6.88768 15.8334 7.09964 15.7456 7.25592 15.5893C7.4122 15.433 7.5 15.2211 7.5 15.0001C7.5 14.7791 7.4122 14.5671 7.25592 14.4108C7.09964 14.2545 6.88768 14.1667 6.66667 14.1667H3.21417C3.01092 14.1666 2.80964 14.2066 2.62184 14.2843C2.43404 14.362 2.2634 14.476 2.11968 14.6197C1.97596 14.7635 1.86197 14.9341 1.78424 15.1219C1.70651 15.3097 1.66656 15.511 1.66667 15.7142V19.1667C1.66667 19.3877 1.75447 19.5997 1.91075 19.756C2.06703 19.9123 2.27899 20.0001 2.5 20.0001C2.72102 20.0001 2.93298 19.9123 3.08926 19.756C3.24554 19.5997 3.33333 19.3877 3.33333 19.1667V17.4351C4.71069 18.6755 6.40618 19.5081 8.22992 19.8394C10.0537 20.1708 11.9336 19.988 13.6593 19.3114C15.385 18.6347 16.8883 17.4911 18.0008 16.0085C19.1133 14.5258 19.7911 12.7628 19.9583 10.9167C19.9691 10.8007 19.9556 10.6837 19.9186 10.5731C19.8817 10.4626 19.8221 10.361 19.7437 10.2747C19.6653 10.1885 19.5698 10.1195 19.4633 10.0723C19.3568 10.025 19.2424 10.0004 19.1258 10.0001Z" fill="white"/>
</g>
<defs>
<clipPath id="clip0_46_101">
<rect width="20" height="20" fill="white"/>
</clipPath>
</defs>
</svg>
