<svg width="1280" height="602" viewBox="0 0 1280 602" fill="none" xmlns="http://www.w3.org/2000/svg">
<rect x="481.004" y="97.9297" width="317.992" height="254.394" fill="white"/>
<path fill-rule="evenodd" clip-rule="evenodd" d="M561.138 268.374H676.887C677.542 268.374 678.181 268.303 678.795 268.169C679.41 268.303 680.048 268.374 680.703 268.374H746.846C751.763 268.374 755.749 264.387 755.749 259.47C755.749 254.553 751.763 250.566 746.846 250.566H739.214C734.296 250.566 730.31 246.58 730.31 241.662C730.31 236.745 734.296 232.759 739.214 232.759H763.381C768.299 232.759 772.285 228.772 772.285 223.855C772.285 218.937 768.299 214.951 763.381 214.951H735.398C740.315 214.951 744.302 210.965 744.302 206.047C744.302 201.13 740.315 197.144 735.398 197.144H653.992C658.909 197.144 662.896 193.157 662.896 188.24C662.896 183.322 658.909 179.336 653.992 179.336H581.49C576.572 179.336 572.586 183.322 572.586 188.24C572.586 193.157 576.572 197.144 581.49 197.144H530.611C525.693 197.144 521.707 201.13 521.707 206.047C521.707 210.965 525.693 214.951 530.611 214.951H562.41C567.327 214.951 571.314 218.937 571.314 223.855C571.314 228.772 567.327 232.759 562.41 232.759H511.531C506.614 232.759 502.627 236.745 502.627 241.662C502.627 246.58 506.614 250.566 511.531 250.566H561.138C556.221 250.566 552.234 254.553 552.234 259.47C552.234 264.387 556.221 268.374 561.138 268.374ZM768.469 268.374C773.386 268.374 777.373 264.387 777.373 259.47C777.373 254.552 773.386 250.566 768.469 250.566C763.552 250.566 759.565 254.552 759.565 259.47C759.565 264.387 763.552 268.374 768.469 268.374Z" fill="#FF9A33"/>
<path fill-rule="evenodd" clip-rule="evenodd" d="M598.025 276.007C582.57 276.007 570.042 263.763 570.042 248.66C570.042 233.556 582.57 221.312 598.025 221.312C598.682 221.312 599.334 221.335 599.98 221.378C599.531 218.88 599.297 216.308 599.297 213.681C599.297 189.796 618.659 170.434 642.544 170.434C661.612 170.434 677.798 182.774 683.551 199.904C684.913 199.762 686.298 199.689 687.699 199.689C709.125 199.689 726.494 216.773 726.494 237.848C726.494 257.87 710.817 274.388 690.879 275.979V276.007H619.022H598.025ZM613.284 276.007H604.425Z" fill="white"/>
<path d="M613.284 276.007H604.425M598.025 276.007C582.57 276.007 570.042 263.763 570.042 248.66C570.042 233.556 582.57 221.312 598.025 221.312C598.682 221.312 599.334 221.335 599.98 221.378C599.531 218.88 599.297 216.308 599.297 213.681C599.297 189.796 618.659 170.434 642.544 170.434C661.612 170.434 677.798 182.774 683.551 199.904C684.913 199.762 686.298 199.689 687.699 199.689C709.125 199.689 726.494 216.773 726.494 237.848C726.494 257.87 710.817 274.388 690.879 275.979V276.007H619.022H598.025Z" stroke="#FF9A33" stroke-width="3.17992" stroke-linecap="round"/>
<path fill-rule="evenodd" clip-rule="evenodd" d="M629.331 179.77C629.331 220.757 666.244 254.531 713.774 259.091C707.818 266.415 698.619 271.384 688.14 272.164V272.188H602.786C592.43 272.188 575.13 267.825 575.13 248.718C575.13 229.612 588.58 225.248 602.786 225.248C603.39 225.248 603.99 225.267 604.583 225.305C604.171 223.161 604.098 220.951 603.955 218.699C602.991 203.482 609.629 184.304 629.354 178.062C629.338 178.631 629.331 179.2 629.331 179.77ZM642.692 243.897C638.827 243.897 635.693 246.993 635.693 250.813C635.693 254.632 638.827 257.728 642.692 257.728C646.557 257.728 649.69 254.632 649.69 250.813C649.69 246.993 646.557 243.897 642.692 243.897Z" fill="#FFE6D0" fill-opacity="0.62"/>
<path d="M643.18 258.199C647.044 258.199 650.176 255.067 650.176 251.203C650.176 247.339 647.044 244.207 643.18 244.207C639.316 244.207 636.184 247.339 636.184 251.203C636.184 255.067 639.316 258.199 643.18 258.199Z" stroke="#FF9A33" stroke-width="3.17992"/>
<path d="M623.464 236.572L632.368 229.585L623.464 222.934" stroke="#FF9A33" stroke-width="3.17992" stroke-linecap="round" stroke-linejoin="round"/>
<path d="M662.896 236.572L653.992 229.585L662.896 222.934" stroke="#FF9A33" stroke-width="3.17992" stroke-linecap="round" stroke-linejoin="round"/>
<path d="M655.263 183.152C663.543 185.343 670.08 191.818 672.359 200.061" stroke="#FF9A33" stroke-width="3.17992" stroke-linecap="round"/>
<path d="M681.975 161.526C684.083 161.526 685.791 159.818 685.791 157.71C685.791 155.603 684.083 153.895 681.975 153.895C679.868 153.895 678.159 155.603 678.159 157.71C678.159 159.818 679.868 161.526 681.975 161.526Z" fill="#FDD5AC" stroke="#FF9A33" stroke-width="2.54394"/>
<path d="M721.406 181.878C723.513 181.878 725.222 180.169 725.222 178.062C725.222 175.955 723.513 174.246 721.406 174.246C719.299 174.246 717.59 175.955 717.59 178.062C717.59 180.169 719.299 181.878 721.406 181.878Z" fill="#FDD5AC"/>
<path fill-rule="evenodd" clip-rule="evenodd" d="M702.635 171.395L692.004 182.026L702.635 171.395ZM691.842 171.395L702.473 182.026Z" fill="#FDD5AC"/>
<path d="M691.842 171.395L702.473 182.026M702.635 171.395L692.004 182.026L702.635 171.395Z" stroke="#FF9A33" stroke-width="3.17992" stroke-linecap="round" stroke-linejoin="round"/>
<path fill-rule="evenodd" clip-rule="evenodd" d="M579.459 194.086L571.827 201.718L579.459 194.086ZM571.827 194.086L579.459 201.718Z" fill="#FDD5AC"/>
<path d="M571.827 194.086L579.459 201.718M579.459 194.086L571.827 201.718L579.459 194.086Z" stroke="#FF9A33" stroke-width="3.17992" stroke-linecap="round" stroke-linejoin="round"/>
<path d="M589.121 185.694C591.229 185.694 592.937 183.986 592.937 181.878C592.937 179.771 591.229 178.062 589.121 178.062C587.014 178.062 585.305 179.771 585.305 181.878C585.305 183.986 587.014 185.694 589.121 185.694Z" fill="#FDD5AC"/>
<path d="M505.424 334.162C505.424 335.808 505.123 337.224 504.521 338.408C503.918 339.587 503.093 340.496 502.044 341.133C501 341.766 499.813 342.082 498.483 342.082C497.148 342.082 495.956 341.766 494.907 341.133C493.863 340.496 493.04 339.585 492.438 338.4C491.835 337.216 491.534 335.803 491.534 334.162C491.534 332.516 491.835 331.103 492.438 329.924C493.04 328.739 493.863 327.831 494.907 327.198C495.956 326.561 497.148 326.242 498.483 326.242C499.813 326.242 501 326.561 502.044 327.198C503.093 327.831 503.918 328.739 504.521 329.924C505.123 331.103 505.424 332.516 505.424 334.162ZM503.12 334.162C503.12 332.907 502.917 331.851 502.511 330.993C502.109 330.129 501.557 329.477 500.854 329.035C500.157 328.588 499.366 328.365 498.483 328.365C497.595 328.365 496.802 328.588 496.104 329.035C495.406 329.477 494.854 330.129 494.448 330.993C494.046 331.851 493.845 332.907 493.845 334.162C493.845 335.417 494.046 336.476 494.448 337.339C494.854 338.197 495.406 338.85 496.104 339.296C496.802 339.738 497.595 339.959 498.483 339.959C499.366 339.959 500.157 339.738 500.854 339.296C501.557 338.85 502.109 338.197 502.511 337.339C502.917 336.476 503.12 335.417 503.12 334.162ZM513.015 342.104C511.931 342.104 510.984 341.856 510.176 341.359C509.368 340.862 508.741 340.167 508.294 339.274C507.848 338.38 507.624 337.336 507.624 336.142C507.624 334.942 507.848 333.893 508.294 332.995C508.741 332.097 509.368 331.399 510.176 330.902C510.984 330.405 511.931 330.157 513.015 330.157C514.099 330.157 515.045 330.405 515.853 330.902C516.661 331.399 517.288 332.097 517.735 332.995C518.182 333.893 518.405 334.942 518.405 336.142C518.405 337.336 518.182 338.38 517.735 339.274C517.288 340.167 516.661 340.862 515.853 341.359C515.045 341.856 514.099 342.104 513.015 342.104ZM513.022 340.215C513.725 340.215 514.307 340.029 514.769 339.658C515.23 339.286 515.572 338.792 515.793 338.175C516.018 337.557 516.131 336.877 516.131 336.134C516.131 335.397 516.018 334.719 515.793 334.102C515.572 333.479 515.23 332.98 514.769 332.604C514.307 332.227 513.725 332.039 513.022 332.039C512.314 332.039 511.727 332.227 511.26 332.604C510.799 332.98 510.455 333.479 510.229 334.102C510.008 334.719 509.898 335.397 509.898 336.134C509.898 336.877 510.008 337.557 510.229 338.175C510.455 338.792 510.799 339.286 511.26 339.658C511.727 340.029 512.314 340.215 513.022 340.215ZM520.918 346.207V330.307H523.116V332.182H523.304C523.435 331.941 523.623 331.663 523.869 331.346C524.115 331.03 524.456 330.754 524.893 330.518C525.329 330.277 525.906 330.157 526.624 330.157C527.558 330.157 528.391 330.393 529.124 330.865C529.856 331.336 530.431 332.016 530.848 332.905C531.269 333.793 531.48 334.862 531.48 336.112C531.48 337.362 531.272 338.433 530.855 339.326C530.438 340.215 529.866 340.9 529.139 341.382C528.411 341.859 527.58 342.097 526.647 342.097C525.944 342.097 525.369 341.979 524.923 341.743C524.481 341.507 524.135 341.231 523.884 340.915C523.633 340.599 523.44 340.318 523.304 340.072H523.169V346.207H520.918ZM523.123 336.089C523.123 336.902 523.241 337.615 523.477 338.227C523.713 338.84 524.054 339.319 524.501 339.665C524.948 340.007 525.495 340.177 526.142 340.177C526.815 340.177 527.377 339.999 527.829 339.643C528.28 339.281 528.622 338.792 528.852 338.175C529.088 337.557 529.206 336.862 529.206 336.089C529.206 335.326 529.091 334.641 528.86 334.034C528.634 333.427 528.293 332.947 527.836 332.596C527.384 332.245 526.82 332.069 526.142 332.069C525.49 332.069 524.938 332.237 524.486 332.574C524.039 332.91 523.701 333.379 523.47 333.981C523.239 334.584 523.123 335.286 523.123 336.089ZM542.667 333.131L540.627 333.492C540.542 333.231 540.406 332.983 540.22 332.747C540.04 332.511 539.794 332.318 539.483 332.167C539.171 332.016 538.782 331.941 538.316 331.941C537.678 331.941 537.146 332.084 536.72 332.37C536.293 332.651 536.08 333.015 536.08 333.462C536.08 333.848 536.223 334.159 536.509 334.395C536.795 334.631 537.257 334.825 537.894 334.975L539.731 335.397C540.795 335.643 541.588 336.022 542.11 336.533C542.632 337.045 542.893 337.71 542.893 338.528C542.893 339.221 542.692 339.838 542.291 340.38C541.894 340.917 541.34 341.339 540.627 341.645C539.919 341.951 539.099 342.104 538.165 342.104C536.87 342.104 535.814 341.828 534.996 341.276C534.178 340.719 533.676 339.929 533.49 338.905L535.666 338.574C535.801 339.141 536.08 339.57 536.501 339.861C536.923 340.147 537.473 340.29 538.15 340.29C538.888 340.29 539.478 340.137 539.919 339.831C540.361 339.52 540.582 339.141 540.582 338.694C540.582 338.333 540.446 338.029 540.175 337.783C539.909 337.537 539.5 337.352 538.948 337.226L536.991 336.797C535.912 336.551 535.114 336.16 534.597 335.623C534.085 335.085 533.829 334.405 533.829 333.582C533.829 332.9 534.02 332.302 534.401 331.791C534.782 331.279 535.309 330.88 535.982 330.594C536.654 330.302 537.425 330.157 538.293 330.157C539.543 330.157 540.527 330.428 541.244 330.97C541.962 331.507 542.436 332.227 542.667 333.131ZM548.206 326.453L548.01 337.437H545.925L545.729 326.453H548.206ZM546.971 342.014C546.555 342.014 546.199 341.869 545.902 341.577C545.606 341.281 545.461 340.925 545.466 340.508C545.461 340.097 545.606 339.746 545.902 339.454C546.199 339.158 546.555 339.01 546.971 339.01C547.378 339.01 547.729 339.158 548.025 339.454C548.322 339.746 548.472 340.097 548.477 340.508C548.472 340.784 548.399 341.038 548.259 341.269C548.123 341.495 547.943 341.675 547.717 341.811C547.491 341.946 547.243 342.014 546.971 342.014ZM565.8 330.503C565.72 329.791 565.389 329.238 564.806 328.847C564.224 328.45 563.491 328.252 562.608 328.252C561.976 328.252 561.429 328.353 560.967 328.553C560.505 328.749 560.146 329.02 559.89 329.366C559.639 329.708 559.514 330.097 559.514 330.533C559.514 330.9 559.599 331.216 559.77 331.482C559.945 331.748 560.174 331.971 560.455 332.152C560.741 332.328 561.047 332.476 561.373 332.596C561.7 332.712 562.013 332.807 562.314 332.882L563.82 333.274C564.312 333.394 564.816 333.557 565.333 333.763C565.85 333.969 566.33 334.24 566.771 334.576C567.213 334.912 567.569 335.329 567.84 335.826C568.116 336.323 568.254 336.917 568.254 337.61C568.254 338.483 568.028 339.259 567.577 339.936C567.13 340.614 566.48 341.148 565.627 341.54C564.779 341.931 563.752 342.127 562.548 342.127C561.393 342.127 560.395 341.944 559.551 341.577C558.708 341.211 558.048 340.692 557.572 340.019C557.095 339.342 556.831 338.539 556.781 337.61H559.115C559.16 338.167 559.341 338.631 559.657 339.003C559.978 339.369 560.387 339.643 560.884 339.823C561.386 339.999 561.935 340.087 562.533 340.087C563.19 340.087 563.775 339.984 564.287 339.778C564.804 339.567 565.21 339.276 565.506 338.905C565.803 338.528 565.951 338.089 565.951 337.587C565.951 337.131 565.82 336.757 565.559 336.466C565.303 336.175 564.954 335.934 564.513 335.743C564.076 335.552 563.582 335.384 563.03 335.239L561.208 334.742C559.973 334.405 558.994 333.911 558.272 333.259C557.554 332.606 557.195 331.743 557.195 330.669C557.195 329.78 557.436 329.005 557.918 328.343C558.4 327.68 559.052 327.166 559.875 326.799C560.698 326.428 561.627 326.242 562.661 326.242C563.705 326.242 564.626 326.425 565.424 326.792C566.227 327.158 566.859 327.662 567.321 328.305C567.783 328.942 568.023 329.675 568.044 330.503H565.8ZM575.724 342.104C574.64 342.104 573.694 341.856 572.886 341.359C572.078 340.862 571.451 340.167 571.004 339.274C570.557 338.38 570.334 337.336 570.334 336.142C570.334 334.942 570.557 333.893 571.004 332.995C571.451 332.097 572.078 331.399 572.886 330.902C573.694 330.405 574.64 330.157 575.724 330.157C576.808 330.157 577.755 330.405 578.563 330.902C579.371 331.399 579.998 332.097 580.445 332.995C580.891 333.893 581.115 334.942 581.115 336.142C581.115 337.336 580.891 338.38 580.445 339.274C579.998 340.167 579.371 340.862 578.563 341.359C577.755 341.856 576.808 342.104 575.724 342.104ZM575.732 340.215C576.435 340.215 577.017 340.029 577.478 339.658C577.94 339.286 578.282 338.792 578.502 338.175C578.728 337.557 578.841 336.877 578.841 336.134C578.841 335.397 578.728 334.719 578.502 334.102C578.282 333.479 577.94 332.98 577.478 332.604C577.017 332.227 576.435 332.039 575.732 332.039C575.024 332.039 574.437 332.227 573.97 332.604C573.509 332.98 573.165 333.479 572.939 334.102C572.718 334.719 572.608 335.397 572.608 336.134C572.608 336.877 572.718 337.557 572.939 338.175C573.165 338.792 573.509 339.286 573.97 339.658C574.437 340.029 575.024 340.215 575.732 340.215ZM583.627 341.871V330.307H585.788V332.19H585.931C586.172 331.552 586.566 331.055 587.113 330.699C587.66 330.338 588.315 330.157 589.078 330.157C589.851 330.157 590.498 330.338 591.02 330.699C591.547 331.06 591.936 331.557 592.187 332.19H592.308C592.584 331.572 593.023 331.08 593.625 330.714C594.227 330.343 594.945 330.157 595.778 330.157C596.827 330.157 597.683 330.486 598.345 331.143C599.013 331.801 599.347 332.792 599.347 334.117V341.871H597.096V334.328C597.096 333.545 596.882 332.978 596.456 332.626C596.029 332.275 595.52 332.099 594.927 332.099C594.195 332.099 593.625 332.325 593.219 332.777C592.812 333.223 592.609 333.798 592.609 334.501V341.871H590.365V334.185C590.365 333.557 590.17 333.053 589.778 332.671C589.387 332.29 588.877 332.099 588.25 332.099C587.823 332.099 587.429 332.212 587.068 332.438C586.711 332.659 586.423 332.967 586.202 333.364C585.986 333.76 585.878 334.22 585.878 334.742V341.871H583.627ZM607.347 342.104C606.208 342.104 605.227 341.861 604.404 341.374C603.586 340.882 602.953 340.192 602.507 339.304C602.065 338.411 601.844 337.364 601.844 336.165C601.844 334.98 602.065 333.936 602.507 333.033C602.953 332.129 603.576 331.424 604.374 330.917C605.177 330.41 606.115 330.157 607.189 330.157C607.842 330.157 608.474 330.265 609.087 330.481C609.699 330.696 610.248 331.035 610.735 331.497C611.222 331.959 611.606 332.558 611.887 333.296C612.168 334.029 612.309 334.92 612.309 335.969V336.767H603.116V335.08H610.103C610.103 334.488 609.982 333.964 609.741 333.507C609.501 333.045 609.162 332.681 608.725 332.415C608.294 332.149 607.787 332.016 607.204 332.016C606.572 332.016 606.02 332.172 605.548 332.483C605.081 332.789 604.72 333.191 604.464 333.688C604.213 334.18 604.088 334.714 604.088 335.291V336.609C604.088 337.382 604.223 338.039 604.494 338.581C604.77 339.123 605.154 339.537 605.646 339.823C606.138 340.104 606.713 340.245 607.37 340.245C607.797 340.245 608.186 340.185 608.537 340.064C608.888 339.939 609.192 339.753 609.448 339.507C609.704 339.261 609.9 338.958 610.035 338.596L612.166 338.98C611.995 339.608 611.689 340.157 611.247 340.629C610.811 341.096 610.261 341.46 609.598 341.721C608.941 341.976 608.191 342.104 607.347 342.104ZM620.204 330.307V332.114H613.888V330.307H620.204ZM615.582 327.537H617.833V338.476C617.833 338.912 617.898 339.241 618.028 339.462C618.159 339.678 618.327 339.826 618.533 339.906C618.744 339.981 618.972 340.019 619.218 340.019C619.399 340.019 619.557 340.007 619.692 339.981C619.828 339.956 619.933 339.936 620.008 339.921L620.415 341.781C620.284 341.831 620.099 341.881 619.858 341.931C619.617 341.987 619.316 342.017 618.954 342.022C618.362 342.032 617.81 341.926 617.298 341.705C616.786 341.485 616.372 341.143 616.056 340.682C615.74 340.22 615.582 339.64 615.582 338.943V327.537ZM625.194 335.005V341.871H622.943V326.453H625.163V332.19H625.306C625.578 331.567 625.992 331.073 626.549 330.706C627.106 330.34 627.834 330.157 628.732 330.157C629.525 330.157 630.218 330.32 630.81 330.646C631.407 330.972 631.869 331.459 632.195 332.107C632.526 332.749 632.692 333.552 632.692 334.516V341.871H630.441V334.787C630.441 333.939 630.223 333.281 629.786 332.814C629.349 332.343 628.742 332.107 627.964 332.107C627.432 332.107 626.955 332.22 626.534 332.446C626.117 332.671 625.788 333.003 625.547 333.439C625.312 333.871 625.194 334.393 625.194 335.005ZM635.696 341.871V330.307H637.947V341.871H635.696ZM636.832 328.523C636.441 328.523 636.105 328.393 635.824 328.132C635.548 327.866 635.41 327.55 635.41 327.183C635.41 326.812 635.548 326.496 635.824 326.235C636.105 325.969 636.441 325.836 636.832 325.836C637.224 325.836 637.558 325.969 637.834 326.235C638.115 326.496 638.255 326.812 638.255 327.183C638.255 327.55 638.115 327.866 637.834 328.132C637.558 328.393 637.224 328.523 636.832 328.523ZM643.226 335.005V341.871H640.975V330.307H643.136V332.19H643.279C643.545 331.577 643.961 331.085 644.528 330.714C645.101 330.343 645.821 330.157 646.689 330.157C647.477 330.157 648.167 330.323 648.759 330.654C649.352 330.98 649.811 331.467 650.137 332.114C650.463 332.762 650.626 333.562 650.626 334.516V341.871H648.375V334.787C648.375 333.949 648.157 333.294 647.72 332.822C647.284 332.345 646.684 332.107 645.921 332.107C645.399 332.107 644.935 332.22 644.528 332.446C644.127 332.671 643.808 333.003 643.572 333.439C643.341 333.871 643.226 334.393 643.226 335.005ZM658.494 346.448C657.575 346.448 656.785 346.328 656.122 346.087C655.465 345.846 654.928 345.527 654.511 345.131C654.094 344.734 653.783 344.3 653.578 343.828L655.512 343.03C655.648 343.251 655.829 343.485 656.054 343.731C656.285 343.982 656.596 344.195 656.988 344.371C657.384 344.546 657.894 344.634 658.516 344.634C659.369 344.634 660.075 344.426 660.632 344.009C661.189 343.598 661.467 342.94 661.467 342.037V339.763H661.324C661.189 340.009 660.993 340.283 660.737 340.584C660.486 340.885 660.14 341.146 659.698 341.367C659.256 341.588 658.682 341.698 657.974 341.698C657.061 341.698 656.238 341.485 655.505 341.058C654.777 340.626 654.2 339.992 653.773 339.153C653.352 338.31 653.141 337.274 653.141 336.044C653.141 334.814 653.349 333.76 653.766 332.882C654.187 332.004 654.765 331.331 655.497 330.865C656.23 330.393 657.061 330.157 657.989 330.157C658.707 330.157 659.287 330.277 659.728 330.518C660.17 330.754 660.514 331.03 660.76 331.346C661.011 331.663 661.204 331.941 661.339 332.182H661.505V330.307H663.711V342.127C663.711 343.121 663.48 343.936 663.018 344.574C662.556 345.211 661.932 345.683 661.144 345.989C660.361 346.295 659.477 346.448 658.494 346.448ZM658.471 339.831C659.118 339.831 659.666 339.68 660.112 339.379C660.564 339.073 660.905 338.636 661.136 338.069C661.372 337.497 661.49 336.812 661.49 336.014C661.49 335.236 661.374 334.551 661.144 333.959C660.913 333.367 660.574 332.905 660.127 332.574C659.681 332.237 659.128 332.069 658.471 332.069C657.793 332.069 657.229 332.245 656.777 332.596C656.325 332.942 655.984 333.414 655.753 334.011C655.527 334.609 655.414 335.276 655.414 336.014C655.414 336.772 655.53 337.437 655.761 338.009C655.992 338.581 656.333 339.028 656.785 339.349C657.241 339.67 657.803 339.831 658.471 339.831ZM675.54 341.871L671.264 326.453H673.71L676.714 338.393H676.857L679.982 326.453H682.406L685.53 338.4H685.673L688.669 326.453H691.124L686.84 341.871H684.499L681.254 330.323H681.133L677.889 341.871H675.54ZM696.909 342.104C695.77 342.104 694.789 341.861 693.966 341.374C693.147 340.882 692.515 340.192 692.068 339.304C691.627 338.411 691.406 337.364 691.406 336.165C691.406 334.98 691.627 333.936 692.068 333.033C692.515 332.129 693.137 331.424 693.935 330.917C694.738 330.41 695.677 330.157 696.751 330.157C697.404 330.157 698.036 330.265 698.648 330.481C699.261 330.696 699.81 331.035 700.297 331.497C700.784 331.959 701.168 332.558 701.449 333.296C701.73 334.029 701.87 334.92 701.87 335.969V336.767H692.678V335.08H699.665C699.665 334.488 699.544 333.964 699.303 333.507C699.062 333.045 698.724 332.681 698.287 332.415C697.855 332.149 697.348 332.016 696.766 332.016C696.134 332.016 695.582 332.172 695.11 332.483C694.643 332.789 694.282 333.191 694.026 333.688C693.775 334.18 693.649 334.714 693.649 335.291V336.609C693.649 337.382 693.785 338.039 694.056 338.581C694.332 339.123 694.716 339.537 695.208 339.823C695.7 340.104 696.274 340.245 696.932 340.245C697.358 340.245 697.747 340.185 698.099 340.064C698.45 339.939 698.754 339.753 699.01 339.507C699.266 339.261 699.461 338.958 699.597 338.596L701.727 338.98C701.557 339.608 701.251 340.157 700.809 340.629C700.372 341.096 699.823 341.46 699.16 341.721C698.503 341.976 697.752 342.104 696.909 342.104ZM706.619 335.005V341.871H704.368V330.307H706.529V332.19H706.672C706.938 331.577 707.354 331.085 707.921 330.714C708.494 330.343 709.214 330.157 710.082 330.157C710.87 330.157 711.56 330.323 712.152 330.654C712.745 330.98 713.204 331.467 713.53 332.114C713.856 332.762 714.019 333.562 714.019 334.516V341.871H711.768V334.787C711.768 333.949 711.55 333.294 711.113 332.822C710.677 332.345 710.077 332.107 709.314 332.107C708.792 332.107 708.328 332.22 707.921 332.446C707.52 332.671 707.201 333.003 706.965 333.439C706.734 333.871 706.619 334.393 706.619 335.005ZM722.436 330.307V332.114H716.12V330.307H722.436ZM717.814 327.537H720.065V338.476C720.065 338.912 720.13 339.241 720.26 339.462C720.391 339.678 720.559 339.826 720.765 339.906C720.976 339.981 721.204 340.019 721.45 340.019C721.631 340.019 721.789 340.007 721.924 339.981C722.06 339.956 722.165 339.936 722.24 339.921L722.647 341.781C722.516 341.831 722.331 341.881 722.09 341.931C721.849 341.987 721.548 342.017 721.186 342.022C720.594 342.032 720.042 341.926 719.53 341.705C719.018 341.485 718.604 341.143 718.288 340.682C717.972 340.22 717.814 339.64 717.814 338.943V327.537ZM733.736 341.871L729.46 326.453H731.907L734.911 338.393H735.054L738.178 326.453H740.602L743.726 338.4H743.87L746.866 326.453H749.32L745.036 341.871H742.695L739.45 330.323H739.33L736.085 341.871H733.736ZM750.536 341.871V330.307H752.712V332.144H752.832C753.043 331.522 753.414 331.033 753.946 330.676C754.483 330.315 755.091 330.134 755.768 330.134C755.909 330.134 756.074 330.139 756.265 330.149C756.461 330.159 756.614 330.172 756.724 330.187V332.34C756.634 332.315 756.473 332.287 756.242 332.257C756.012 332.222 755.781 332.205 755.55 332.205C755.018 332.205 754.544 332.318 754.127 332.543C753.715 332.764 753.389 333.073 753.148 333.469C752.907 333.861 752.787 334.308 752.787 334.809V341.871H750.536ZM763.129 342.104C762.045 342.104 761.099 341.856 760.291 341.359C759.483 340.862 758.855 340.167 758.409 339.274C757.962 338.38 757.739 337.336 757.739 336.142C757.739 334.942 757.962 333.893 758.409 332.995C758.855 332.097 759.483 331.399 760.291 330.902C761.099 330.405 762.045 330.157 763.129 330.157C764.213 330.157 765.159 330.405 765.967 330.902C766.775 331.399 767.403 332.097 767.849 332.995C768.296 333.893 768.519 334.942 768.519 336.142C768.519 337.336 768.296 338.38 767.849 339.274C767.403 340.167 766.775 340.862 765.967 341.359C765.159 341.856 764.213 342.104 763.129 342.104ZM763.137 340.215C763.839 340.215 764.421 340.029 764.883 339.658C765.345 339.286 765.686 338.792 765.907 338.175C766.133 337.557 766.246 336.877 766.246 336.134C766.246 335.397 766.133 334.719 765.907 334.102C765.686 333.479 765.345 332.98 764.883 332.604C764.421 332.227 763.839 332.039 763.137 332.039C762.429 332.039 761.842 332.227 761.375 332.604C760.913 332.98 760.569 333.479 760.344 334.102C760.123 334.719 760.012 335.397 760.012 336.134C760.012 336.877 760.123 337.557 760.344 338.175C760.569 338.792 760.913 339.286 761.375 339.658C761.842 340.029 762.429 340.215 763.137 340.215ZM773.283 335.005V341.871H771.032V330.307H773.193V332.19H773.336C773.602 331.577 774.018 331.085 774.585 330.714C775.158 330.343 775.878 330.157 776.746 330.157C777.534 330.157 778.224 330.323 778.816 330.654C779.409 330.98 779.868 331.467 780.194 332.114C780.52 332.762 780.683 333.562 780.683 334.516V341.871H778.432V334.787C778.432 333.949 778.214 333.294 777.777 332.822C777.341 332.345 776.741 332.107 775.978 332.107C775.456 332.107 774.992 332.22 774.585 332.446C774.184 332.671 773.865 333.003 773.629 333.439C773.398 333.871 773.283 334.393 773.283 335.005ZM788.551 346.448C787.632 346.448 786.842 346.328 786.179 346.087C785.522 345.846 784.985 345.527 784.568 345.131C784.152 344.734 783.84 344.3 783.635 343.828L785.569 343.03C785.705 343.251 785.886 343.485 786.111 343.731C786.342 343.982 786.653 344.195 787.045 344.371C787.441 344.546 787.951 344.634 788.573 344.634C789.426 344.634 790.132 344.426 790.689 344.009C791.246 343.598 791.524 342.94 791.524 342.037V339.763H791.381C791.246 340.009 791.05 340.283 790.794 340.584C790.543 340.885 790.197 341.146 789.755 341.367C789.314 341.588 788.739 341.698 788.031 341.698C787.118 341.698 786.295 341.485 785.562 341.058C784.834 340.626 784.257 339.992 783.83 339.153C783.409 338.31 783.198 337.274 783.198 336.044C783.198 334.814 783.406 333.76 783.823 332.882C784.244 332.004 784.822 331.331 785.554 330.865C786.287 330.393 787.118 330.157 788.046 330.157C788.764 330.157 789.344 330.277 789.785 330.518C790.227 330.754 790.571 331.03 790.817 331.346C791.068 331.663 791.261 331.941 791.396 332.182H791.562V330.307H793.768V342.127C793.768 343.121 793.537 343.936 793.075 344.574C792.613 345.211 791.989 345.683 791.201 345.989C790.418 346.295 789.534 346.448 788.551 346.448ZM788.528 339.831C789.176 339.831 789.723 339.68 790.169 339.379C790.621 339.073 790.962 338.636 791.193 338.069C791.429 337.497 791.547 336.812 791.547 336.014C791.547 335.236 791.432 334.551 791.201 333.959C790.97 333.367 790.631 332.905 790.184 332.574C789.738 332.237 789.186 332.069 788.528 332.069C787.851 332.069 787.286 332.245 786.834 332.596C786.382 332.942 786.041 333.414 785.81 334.011C785.584 334.609 785.472 335.276 785.472 336.014C785.472 336.772 785.587 337.437 785.818 338.009C786.049 338.581 786.39 339.028 786.842 339.349C787.298 339.67 787.861 339.831 788.528 339.831Z" fill="#101828"/>
<path d="M418.088 375.172L414.399 361.681H416.059L418.878 372.669H419.01L421.882 361.681H423.726L426.598 372.669H426.73L429.55 361.681H431.21L427.521 375.172H425.834L422.857 364.421H422.751L419.774 375.172H418.088ZM436.335 375.383C435.36 375.383 434.519 375.167 433.812 374.737C433.109 374.302 432.567 373.696 432.185 372.919C431.807 372.137 431.618 371.228 431.618 370.192C431.618 369.155 431.807 368.242 432.185 367.451C432.567 366.657 433.098 366.037 433.779 365.594C434.464 365.146 435.263 364.922 436.176 364.922C436.703 364.922 437.224 365.01 437.738 365.185C438.251 365.361 438.719 365.647 439.141 366.042C439.562 366.433 439.898 366.951 440.149 367.596C440.399 368.242 440.524 369.037 440.524 369.981V370.64H432.725V369.296H438.943C438.943 368.725 438.829 368.216 438.601 367.768C438.377 367.32 438.056 366.966 437.639 366.707C437.226 366.448 436.739 366.318 436.176 366.318C435.557 366.318 435.021 366.472 434.569 366.78C434.121 367.083 433.776 367.478 433.535 367.965C433.293 368.453 433.173 368.975 433.173 369.533V370.429C433.173 371.193 433.304 371.841 433.568 372.372C433.836 372.899 434.207 373.301 434.681 373.578C435.155 373.85 435.707 373.986 436.335 373.986C436.743 373.986 437.112 373.929 437.441 373.815C437.775 373.696 438.063 373.521 438.304 373.288C438.546 373.051 438.732 372.757 438.864 372.405L440.366 372.827C440.208 373.336 439.942 373.784 439.569 374.171C439.196 374.553 438.735 374.851 438.186 375.066C437.637 375.277 437.02 375.383 436.335 375.383ZM444.233 361.681V366.318H442.784V361.681H444.233ZM447.001 375.172V365.054H448.503V366.582H448.608C448.793 366.081 449.127 365.675 449.61 365.363C450.093 365.051 450.637 364.896 451.243 364.896C451.358 364.896 451.5 364.898 451.672 364.902C451.843 364.907 451.972 364.913 452.06 364.922V366.503C452.008 366.49 451.887 366.47 451.698 366.444C451.513 366.413 451.318 366.398 451.112 366.398C450.62 366.398 450.181 366.501 449.794 366.707C449.412 366.909 449.109 367.19 448.885 367.55C448.666 367.906 448.556 368.312 448.556 368.769V375.172H447.001ZM457.837 375.383C456.862 375.383 456.021 375.167 455.314 374.737C454.612 374.302 454.069 373.696 453.687 372.919C453.31 372.137 453.121 371.228 453.121 370.192C453.121 369.155 453.31 368.242 453.687 367.451C454.069 366.657 454.601 366.037 455.281 365.594C455.967 365.146 456.766 364.922 457.679 364.922C458.206 364.922 458.727 365.01 459.24 365.185C459.754 365.361 460.222 365.647 460.644 366.042C461.065 366.433 461.401 366.951 461.651 367.596C461.902 368.242 462.027 369.037 462.027 369.981V370.64H454.227V369.296H460.446C460.446 368.725 460.332 368.216 460.103 367.768C459.879 367.32 459.559 366.966 459.142 366.707C458.729 366.448 458.241 366.318 457.679 366.318C457.06 366.318 456.524 366.472 456.072 366.78C455.624 367.083 455.279 367.478 455.038 367.965C454.796 368.453 454.675 368.975 454.675 369.533V370.429C454.675 371.193 454.807 371.841 455.071 372.372C455.339 372.899 455.71 373.301 456.184 373.578C456.658 373.85 457.209 373.986 457.837 373.986C458.246 373.986 458.615 373.929 458.944 373.815C459.278 373.696 459.565 373.521 459.807 373.288C460.049 373.051 460.235 372.757 460.367 372.405L461.869 372.827C461.711 373.336 461.445 373.784 461.072 374.171C460.698 374.553 460.237 374.851 459.688 375.066C459.139 375.277 458.522 375.383 457.837 375.383ZM471.164 369.085V375.172H469.609V361.681H471.164V366.635H471.295C471.532 366.112 471.888 365.697 472.362 365.39C472.841 365.078 473.478 364.922 474.273 364.922C474.962 364.922 475.566 365.06 476.084 365.337C476.603 365.609 477.004 366.029 477.29 366.595C477.58 367.157 477.725 367.873 477.725 368.743V375.172H476.17V368.848C476.17 368.044 475.961 367.423 475.544 366.984C475.131 366.54 474.558 366.318 473.825 366.318C473.315 366.318 472.859 366.426 472.455 366.641C472.055 366.856 471.739 367.17 471.506 367.583C471.278 367.996 471.164 368.497 471.164 369.085ZM483.546 375.409C482.905 375.409 482.323 375.288 481.801 375.047C481.278 374.801 480.863 374.447 480.556 373.986C480.248 373.521 480.094 372.959 480.094 372.3C480.094 371.72 480.209 371.25 480.437 370.89C480.665 370.526 480.971 370.24 481.353 370.034C481.735 369.827 482.156 369.674 482.617 369.573C483.083 369.467 483.551 369.384 484.02 369.322C484.635 369.243 485.134 369.184 485.516 369.144C485.902 369.101 486.183 369.028 486.359 368.927C486.539 368.826 486.629 368.65 486.629 368.4V368.347C486.629 367.697 486.451 367.192 486.095 366.832C485.744 366.472 485.211 366.292 484.495 366.292C483.753 366.292 483.171 366.455 482.749 366.78C482.327 367.105 482.031 367.451 481.86 367.82L480.384 367.293C480.648 366.679 480.999 366.2 481.438 365.857C481.882 365.51 482.365 365.269 482.887 365.133C483.414 364.992 483.933 364.922 484.442 364.922C484.767 364.922 485.14 364.961 485.562 365.041C485.988 365.115 486.398 365.271 486.794 365.508C487.193 365.745 487.525 366.103 487.788 366.582C488.052 367.061 488.184 367.702 488.184 368.505V375.172H486.629V373.802H486.55C486.445 374.021 486.269 374.256 486.023 374.507C485.777 374.757 485.45 374.97 485.041 375.146C484.633 375.321 484.135 375.409 483.546 375.409ZM483.783 374.012C484.398 374.012 484.916 373.892 485.338 373.65C485.764 373.409 486.084 373.097 486.3 372.715C486.519 372.333 486.629 371.931 486.629 371.509V370.086C486.563 370.165 486.418 370.238 486.194 370.304C485.975 370.365 485.72 370.42 485.43 370.469C485.145 370.512 484.866 370.552 484.594 370.587C484.326 370.618 484.108 370.644 483.941 370.666C483.537 370.719 483.16 370.804 482.808 370.923C482.461 371.037 482.18 371.211 481.965 371.443C481.754 371.672 481.649 371.984 481.649 372.379C481.649 372.919 481.849 373.327 482.248 373.604C482.652 373.876 483.164 374.012 483.783 374.012ZM498.933 365.054L495.191 375.172H493.61L489.868 365.054H491.555L494.348 373.117H494.453L497.246 365.054H498.933ZM500.985 375.172V365.054H502.539V375.172H500.985ZM501.775 363.367C501.472 363.367 501.211 363.264 500.991 363.058C500.776 362.851 500.668 362.603 500.668 362.313C500.668 362.024 500.776 361.775 500.991 361.569C501.211 361.363 501.472 361.259 501.775 361.259C502.078 361.259 502.337 361.363 502.552 361.569C502.772 361.775 502.882 362.024 502.882 362.313C502.882 362.603 502.772 362.851 502.552 363.058C502.337 363.264 502.078 363.367 501.775 363.367ZM506.941 369.085V375.172H505.387V365.054H506.888V366.635H507.02C507.257 366.121 507.617 365.708 508.101 365.396C508.584 365.08 509.207 364.922 509.971 364.922C510.656 364.922 511.256 365.062 511.77 365.344C512.284 365.62 512.683 366.042 512.969 366.608C513.254 367.17 513.397 367.882 513.397 368.743V375.172H511.842V368.848C511.842 368.053 511.636 367.434 511.223 366.99C510.81 366.542 510.244 366.318 509.523 366.318C509.027 366.318 508.584 366.426 508.193 366.641C507.806 366.856 507.501 367.17 507.277 367.583C507.053 367.996 506.941 368.497 506.941 369.085ZM520.322 379.177C519.571 379.177 518.925 379.08 518.385 378.887C517.845 378.698 517.395 378.448 517.035 378.136C516.679 377.829 516.396 377.499 516.185 377.148L517.423 376.279C517.564 376.463 517.742 376.674 517.957 376.911C518.172 377.152 518.466 377.361 518.84 377.537C519.217 377.717 519.711 377.807 520.322 377.807C521.139 377.807 521.813 377.609 522.344 377.214C522.875 376.819 523.141 376.2 523.141 375.356V373.301H523.009C522.895 373.486 522.733 373.714 522.522 373.986C522.316 374.254 522.017 374.493 521.626 374.704C521.24 374.911 520.717 375.014 520.058 375.014C519.241 375.014 518.508 374.821 517.858 374.434C517.213 374.048 516.701 373.486 516.323 372.748C515.95 372.01 515.763 371.114 515.763 370.06C515.763 369.024 515.946 368.121 516.31 367.353C516.675 366.58 517.182 365.983 517.832 365.561C518.482 365.135 519.233 364.922 520.085 364.922C520.743 364.922 521.266 365.032 521.652 365.251C522.043 365.467 522.342 365.712 522.548 365.989C522.759 366.261 522.922 366.485 523.036 366.661H523.194V365.054H524.696V375.462C524.696 376.331 524.498 377.038 524.103 377.583C523.712 378.132 523.185 378.534 522.522 378.788C521.863 379.047 521.13 379.177 520.322 379.177ZM520.269 373.617C520.893 373.617 521.42 373.475 521.85 373.189C522.28 372.904 522.608 372.493 522.832 371.957C523.055 371.421 523.167 370.78 523.167 370.034C523.167 369.305 523.058 368.661 522.838 368.104C522.619 367.546 522.294 367.109 521.863 366.793C521.433 366.477 520.901 366.318 520.269 366.318C519.61 366.318 519.061 366.485 518.622 366.819C518.187 367.153 517.86 367.601 517.641 368.163C517.425 368.725 517.318 369.349 517.318 370.034C517.318 370.736 517.428 371.358 517.647 371.898C517.871 372.434 518.201 372.855 518.635 373.163C519.075 373.466 519.619 373.617 520.269 373.617ZM537.159 365.054V366.371H531.915V365.054H537.159ZM533.444 362.63H534.998V372.273C534.998 372.713 535.062 373.042 535.189 373.262C535.321 373.477 535.488 373.622 535.69 373.696C535.896 373.767 536.114 373.802 536.342 373.802C536.513 373.802 536.654 373.793 536.764 373.775C536.874 373.753 536.961 373.736 537.027 373.723L537.343 375.119C537.238 375.159 537.091 375.198 536.902 375.238C536.713 375.282 536.474 375.304 536.184 375.304C535.745 375.304 535.315 375.209 534.893 375.02C534.476 374.832 534.129 374.544 533.852 374.157C533.58 373.771 533.444 373.283 533.444 372.695V362.63ZM539.498 375.172V365.054H540.999V366.582H541.105C541.289 366.081 541.623 365.675 542.106 365.363C542.589 365.051 543.134 364.896 543.74 364.896C543.854 364.896 543.997 364.898 544.168 364.902C544.339 364.907 544.469 364.913 544.557 364.922V366.503C544.504 366.49 544.383 366.47 544.194 366.444C544.01 366.413 543.814 366.398 543.608 366.398C543.116 366.398 542.677 366.501 542.291 366.707C541.909 366.909 541.606 367.19 541.382 367.55C541.162 367.906 541.052 368.312 541.052 368.769V375.172H539.498ZM550.202 375.383C549.289 375.383 548.487 375.165 547.798 374.731C547.113 374.296 546.577 373.688 546.19 372.906C545.808 372.124 545.617 371.211 545.617 370.165C545.617 369.112 545.808 368.191 546.19 367.405C546.577 366.619 547.113 366.009 547.798 365.574C548.487 365.139 549.289 364.922 550.202 364.922C551.115 364.922 551.915 365.139 552.6 365.574C553.289 366.009 553.825 366.619 554.207 367.405C554.594 368.191 554.787 369.112 554.787 370.165C554.787 371.211 554.594 372.124 554.207 372.906C553.825 373.688 553.289 374.296 552.6 374.731C551.915 375.165 551.115 375.383 550.202 375.383ZM550.202 373.986C550.896 373.986 551.467 373.808 551.915 373.453C552.363 373.097 552.694 372.629 552.909 372.049C553.125 371.47 553.232 370.842 553.232 370.165C553.232 369.489 553.125 368.859 552.909 368.275C552.694 367.691 552.363 367.219 551.915 366.859C551.467 366.499 550.896 366.318 550.202 366.318C549.508 366.318 548.937 366.499 548.489 366.859C548.041 367.219 547.71 367.691 547.495 368.275C547.279 368.859 547.172 369.489 547.172 370.165C547.172 370.842 547.279 371.47 547.495 372.049C547.71 372.629 548.041 373.097 548.489 373.453C548.937 373.808 549.508 373.986 550.202 373.986ZM563.536 371.035V365.054H565.091V375.172H563.536V373.459H563.431C563.194 373.973 562.825 374.41 562.324 374.77C561.824 375.126 561.191 375.304 560.427 375.304C559.795 375.304 559.233 375.165 558.741 374.889C558.249 374.608 557.863 374.186 557.581 373.624C557.3 373.057 557.16 372.344 557.16 371.483V365.054H558.715V371.378C558.715 372.115 558.921 372.704 559.334 373.143C559.751 373.582 560.282 373.802 560.928 373.802C561.314 373.802 561.707 373.703 562.107 373.505C562.511 373.308 562.849 373.005 563.121 372.596C563.398 372.188 563.536 371.667 563.536 371.035ZM568.149 375.172V361.681H569.704V366.661H569.836C569.95 366.485 570.108 366.261 570.31 365.989C570.516 365.712 570.811 365.467 571.193 365.251C571.579 365.032 572.102 364.922 572.76 364.922C573.612 364.922 574.363 365.135 575.013 365.561C575.663 365.987 576.17 366.591 576.535 367.372C576.899 368.154 577.082 369.076 577.082 370.139C577.082 371.211 576.899 372.139 576.535 372.926C576.17 373.707 575.665 374.313 575.02 374.744C574.374 375.17 573.63 375.383 572.787 375.383C572.137 375.383 571.616 375.275 571.226 375.06C570.835 374.84 570.534 374.592 570.323 374.316C570.112 374.034 569.95 373.802 569.836 373.617H569.651V375.172H568.149ZM569.678 370.113C569.678 370.877 569.79 371.551 570.013 372.135C570.237 372.715 570.565 373.169 570.995 373.499C571.425 373.824 571.952 373.986 572.576 373.986C573.226 373.986 573.768 373.815 574.203 373.472C574.642 373.125 574.972 372.66 575.191 372.076C575.415 371.487 575.527 370.833 575.527 370.113C575.527 369.401 575.417 368.76 575.198 368.189C574.983 367.614 574.655 367.159 574.216 366.826C573.781 366.488 573.235 366.318 572.576 366.318C571.944 366.318 571.412 366.479 570.982 366.799C570.551 367.116 570.226 367.559 570.007 368.13C569.787 368.697 569.678 369.357 569.678 370.113ZM581.014 361.681V375.172H579.46V361.681H581.014ZM588.104 375.383C587.129 375.383 586.288 375.167 585.581 374.737C584.878 374.302 584.336 373.696 583.954 372.919C583.576 372.137 583.387 371.228 583.387 370.192C583.387 369.155 583.576 368.242 583.954 367.451C584.336 366.657 584.867 366.037 585.548 365.594C586.233 365.146 587.032 364.922 587.946 364.922C588.473 364.922 588.993 365.01 589.507 365.185C590.021 365.361 590.489 365.647 590.91 366.042C591.332 366.433 591.668 366.951 591.918 367.596C592.168 368.242 592.294 369.037 592.294 369.981V370.64H584.494V369.296H590.713C590.713 368.725 590.598 368.216 590.37 367.768C590.146 367.32 589.825 366.966 589.408 366.707C588.995 366.448 588.508 366.318 587.946 366.318C587.327 366.318 586.791 366.472 586.339 366.78C585.891 367.083 585.546 367.478 585.304 367.965C585.063 368.453 584.942 368.975 584.942 369.533V370.429C584.942 371.193 585.074 371.841 585.337 372.372C585.605 372.899 585.976 373.301 586.451 373.578C586.925 373.85 587.476 373.986 588.104 373.986C588.512 373.986 588.881 373.929 589.211 373.815C589.544 373.696 589.832 373.521 590.074 373.288C590.315 373.051 590.502 372.757 590.634 372.405L592.135 372.827C591.977 373.336 591.712 373.784 591.338 374.171C590.965 374.553 590.504 374.851 589.955 375.066C589.406 375.277 588.789 375.383 588.104 375.383ZM603.986 375.383C603.038 375.383 602.221 375.159 601.536 374.711C600.851 374.263 600.324 373.646 599.955 372.86C599.586 372.074 599.401 371.176 599.401 370.165C599.401 369.138 599.59 368.231 599.968 367.445C600.35 366.654 600.881 366.037 601.562 365.594C602.247 365.146 603.046 364.922 603.96 364.922C604.671 364.922 605.312 365.054 605.883 365.317C606.454 365.581 606.922 365.95 607.286 366.424C607.651 366.898 607.877 367.451 607.965 368.084H606.41C606.292 367.623 606.028 367.214 605.62 366.859C605.216 366.499 604.671 366.318 603.986 366.318C603.38 366.318 602.849 366.477 602.392 366.793C601.94 367.105 601.586 367.546 601.331 368.117C601.081 368.683 600.956 369.349 600.956 370.113C600.956 370.894 601.079 371.575 601.325 372.155C601.575 372.735 601.926 373.185 602.379 373.505C602.836 373.826 603.371 373.986 603.986 373.986C604.39 373.986 604.757 373.916 605.086 373.775C605.416 373.635 605.694 373.433 605.923 373.169C606.151 372.906 606.314 372.59 606.41 372.221H607.965C607.877 372.818 607.66 373.356 607.313 373.835C606.97 374.309 606.516 374.687 605.949 374.968C605.387 375.244 604.733 375.383 603.986 375.383ZM614.348 375.383C613.435 375.383 612.633 375.165 611.944 374.731C611.259 374.296 610.723 373.688 610.336 372.906C609.954 372.124 609.763 371.211 609.763 370.165C609.763 369.112 609.954 368.191 610.336 367.405C610.723 366.619 611.259 366.009 611.944 365.574C612.633 365.139 613.435 364.922 614.348 364.922C615.261 364.922 616.061 365.139 616.746 365.574C617.435 366.009 617.971 366.619 618.353 367.405C618.74 368.191 618.933 369.112 618.933 370.165C618.933 371.211 618.74 372.124 618.353 372.906C617.971 373.688 617.435 374.296 616.746 374.731C616.061 375.165 615.261 375.383 614.348 375.383ZM614.348 373.986C615.042 373.986 615.613 373.808 616.061 373.453C616.509 373.097 616.84 372.629 617.055 372.049C617.271 371.47 617.378 370.842 617.378 370.165C617.378 369.489 617.271 368.859 617.055 368.275C616.84 367.691 616.509 367.219 616.061 366.859C615.613 366.499 615.042 366.318 614.348 366.318C613.654 366.318 613.083 366.499 612.635 366.859C612.187 367.219 611.856 367.691 611.641 368.275C611.425 368.859 611.318 369.489 611.318 370.165C611.318 370.842 611.425 371.47 611.641 372.049C611.856 372.629 612.187 373.097 612.635 373.453C613.083 373.808 613.654 373.986 614.348 373.986ZM622.861 369.085V375.172H621.306V365.054H622.808V366.635H622.94C623.177 366.121 623.537 365.708 624.02 365.396C624.503 365.08 625.127 364.922 625.891 364.922C626.576 364.922 627.175 365.062 627.689 365.344C628.203 365.62 628.603 366.042 628.888 366.608C629.173 367.17 629.316 367.882 629.316 368.743V375.172H627.762V368.848C627.762 368.053 627.555 367.434 627.142 366.99C626.73 366.542 626.163 366.318 625.443 366.318C624.947 366.318 624.503 366.426 624.112 366.641C623.726 366.856 623.42 367.17 623.197 367.583C622.973 367.996 622.861 368.497 622.861 369.085ZM633.712 369.085V375.172H632.157V365.054H633.659V366.635H633.791C634.028 366.121 634.388 365.708 634.871 365.396C635.354 365.08 635.978 364.922 636.742 364.922C637.427 364.922 638.026 365.062 638.54 365.344C639.054 365.62 639.454 366.042 639.739 366.608C640.024 367.17 640.167 367.882 640.167 368.743V375.172H638.613V368.848C638.613 368.053 638.406 367.434 637.993 366.99C637.581 366.542 637.014 366.318 636.294 366.318C635.798 366.318 635.354 366.426 634.963 366.641C634.577 366.856 634.272 367.17 634.048 367.583C633.824 367.996 633.712 368.497 633.712 369.085ZM647.25 375.383C646.275 375.383 645.434 375.167 644.727 374.737C644.025 374.302 643.482 373.696 643.1 372.919C642.723 372.137 642.534 371.228 642.534 370.192C642.534 369.155 642.723 368.242 643.1 367.451C643.482 366.657 644.014 366.037 644.694 365.594C645.379 365.146 646.179 364.922 647.092 364.922C647.619 364.922 648.14 365.01 648.653 365.185C649.167 365.361 649.635 365.647 650.056 366.042C650.478 366.433 650.814 366.951 651.064 367.596C651.315 368.242 651.44 369.037 651.44 369.981V370.64H643.64V369.296H649.859C649.859 368.725 649.745 368.216 649.516 367.768C649.292 367.32 648.972 366.966 648.555 366.707C648.142 366.448 647.654 366.318 647.092 366.318C646.473 366.318 645.937 366.472 645.485 366.78C645.037 367.083 644.692 367.478 644.451 367.965C644.209 368.453 644.088 368.975 644.088 369.533V370.429C644.088 371.193 644.22 371.841 644.484 372.372C644.751 372.899 645.123 373.301 645.597 373.578C646.071 373.85 646.622 373.986 647.25 373.986C647.659 373.986 648.028 373.929 648.357 373.815C648.691 373.696 648.978 373.521 649.22 373.288C649.461 373.051 649.648 372.757 649.78 372.405L651.282 372.827C651.124 373.336 650.858 373.784 650.485 374.171C650.111 374.553 649.65 374.851 649.101 375.066C648.552 375.277 647.935 375.383 647.25 375.383ZM657.915 375.383C656.967 375.383 656.15 375.159 655.465 374.711C654.78 374.263 654.253 373.646 653.884 372.86C653.515 372.074 653.33 371.176 653.33 370.165C653.33 369.138 653.519 368.231 653.897 367.445C654.279 366.654 654.81 366.037 655.491 365.594C656.176 365.146 656.975 364.922 657.889 364.922C658.6 364.922 659.241 365.054 659.812 365.317C660.383 365.581 660.851 365.95 661.215 366.424C661.58 366.898 661.806 367.451 661.894 368.084H660.339C660.221 367.623 659.957 367.214 659.549 366.859C659.145 366.499 658.6 366.318 657.915 366.318C657.309 366.318 656.778 366.477 656.321 366.793C655.869 367.105 655.515 367.546 655.26 368.117C655.01 368.683 654.885 369.349 654.885 370.113C654.885 370.894 655.008 371.575 655.254 372.155C655.504 372.735 655.856 373.185 656.308 373.505C656.765 373.826 657.3 373.986 657.915 373.986C658.319 373.986 658.686 373.916 659.015 373.775C659.345 373.635 659.624 373.433 659.852 373.169C660.08 372.906 660.243 372.59 660.339 372.221H661.894C661.806 372.818 661.589 373.356 661.242 373.835C660.899 374.309 660.445 374.687 659.878 374.968C659.316 375.244 658.662 375.383 657.915 375.383ZM668.567 365.054V366.371H663.323V365.054H668.567ZM664.852 362.63H666.406V372.273C666.406 372.713 666.47 373.042 666.597 373.262C666.729 373.477 666.896 373.622 667.098 373.696C667.304 373.767 667.522 373.802 667.75 373.802C667.921 373.802 668.062 373.793 668.172 373.775C668.281 373.753 668.369 373.736 668.435 373.723L668.751 375.119C668.646 375.159 668.499 375.198 668.31 375.238C668.121 375.282 667.882 375.304 667.592 375.304C667.153 375.304 666.722 375.209 666.301 375.02C665.884 374.832 665.537 374.544 665.26 374.157C664.988 373.771 664.852 373.283 664.852 372.695V362.63ZM670.905 375.172V365.054H672.46V375.172H670.905ZM671.696 363.367C671.393 363.367 671.132 363.264 670.912 363.058C670.697 362.851 670.589 362.603 670.589 362.313C670.589 362.024 670.697 361.775 670.912 361.569C671.132 361.363 671.393 361.259 671.696 361.259C671.999 361.259 672.258 361.363 672.473 361.569C672.693 361.775 672.803 362.024 672.803 362.313C672.803 362.603 672.693 362.851 672.473 363.058C672.258 363.264 671.999 363.367 671.696 363.367ZM676.862 369.085V375.172H675.307V365.054H676.809V366.635H676.941C677.178 366.121 677.538 365.708 678.021 365.396C678.505 365.08 679.128 364.922 679.892 364.922C680.577 364.922 681.177 365.062 681.691 365.344C682.204 365.62 682.604 366.042 682.89 366.608C683.175 367.17 683.318 367.882 683.318 368.743V375.172H681.763V368.848C681.763 368.053 681.557 367.434 681.144 366.99C680.731 366.542 680.165 366.318 679.444 366.318C678.948 366.318 678.505 366.426 678.114 366.641C677.727 366.856 677.422 367.17 677.198 367.583C676.974 367.996 676.862 368.497 676.862 369.085ZM690.243 379.177C689.492 379.177 688.846 379.08 688.306 378.887C687.766 378.698 687.316 378.448 686.956 378.136C686.6 377.829 686.317 377.499 686.106 377.148L687.344 376.279C687.485 376.463 687.663 376.674 687.878 376.911C688.093 377.152 688.387 377.361 688.761 377.537C689.138 377.717 689.632 377.807 690.243 377.807C691.059 377.807 691.734 377.609 692.265 377.214C692.796 376.819 693.062 376.2 693.062 375.356V373.301H692.93C692.816 373.486 692.654 373.714 692.443 373.986C692.236 374.254 691.938 374.493 691.547 374.704C691.16 374.911 690.638 375.014 689.979 375.014C689.162 375.014 688.429 374.821 687.779 374.434C687.133 374.048 686.622 373.486 686.244 372.748C685.871 372.01 685.684 371.114 685.684 370.06C685.684 369.024 685.866 368.121 686.231 367.353C686.595 366.58 687.103 365.983 687.753 365.561C688.403 365.135 689.154 364.922 690.006 364.922C690.664 364.922 691.187 365.032 691.573 365.251C691.964 365.467 692.263 365.712 692.469 365.989C692.68 366.261 692.842 366.485 692.957 366.661H693.115V365.054H694.617V375.462C694.617 376.331 694.419 377.038 694.024 377.583C693.633 378.132 693.106 378.534 692.443 378.788C691.784 379.047 691.051 379.177 690.243 379.177ZM690.19 373.617C690.814 373.617 691.341 373.475 691.771 373.189C692.201 372.904 692.528 372.493 692.752 371.957C692.976 371.421 693.088 370.78 693.088 370.034C693.088 369.305 692.979 368.661 692.759 368.104C692.539 367.546 692.214 367.109 691.784 366.793C691.354 366.477 690.822 366.318 690.19 366.318C689.531 366.318 688.982 366.485 688.543 366.819C688.108 367.153 687.781 367.601 687.562 368.163C687.346 368.725 687.239 369.349 687.239 370.034C687.239 370.736 687.349 371.358 687.568 371.898C687.792 372.434 688.122 372.855 688.556 373.163C688.995 373.466 689.54 373.617 690.19 373.617ZM698.595 375.277C698.27 375.277 697.992 375.161 697.759 374.928C697.526 374.695 697.41 374.417 697.41 374.092C697.41 373.767 697.526 373.488 697.759 373.255C697.992 373.022 698.27 372.906 698.595 372.906C698.92 372.906 699.199 373.022 699.432 373.255C699.665 373.488 699.781 373.767 699.781 374.092C699.781 374.307 699.726 374.504 699.616 374.684C699.511 374.864 699.368 375.009 699.188 375.119C699.013 375.225 698.815 375.277 698.595 375.277ZM707.999 375.172V361.681H712.557C713.616 361.681 714.481 361.872 715.153 362.254C715.829 362.632 716.33 363.143 716.655 363.789C716.98 364.434 717.142 365.155 717.142 365.95C717.142 366.744 716.98 367.467 716.655 368.117C716.334 368.767 715.838 369.285 715.166 369.671C714.494 370.053 713.633 370.245 712.584 370.245H709.316V368.795H712.531C713.256 368.795 713.837 368.67 714.277 368.42C714.716 368.17 715.034 367.831 715.232 367.405C715.434 366.975 715.535 366.49 715.535 365.95C715.535 365.409 715.434 364.926 715.232 364.5C715.034 364.074 714.714 363.741 714.27 363.499C713.826 363.253 713.238 363.13 712.505 363.13H709.633V375.172H707.999ZM721.118 361.681V375.172H719.563V361.681H721.118ZM728.207 375.383C727.232 375.383 726.391 375.167 725.684 374.737C724.982 374.302 724.439 373.696 724.057 372.919C723.68 372.137 723.491 371.228 723.491 370.192C723.491 369.155 723.68 368.242 724.057 367.451C724.439 366.657 724.971 366.037 725.651 365.594C726.336 365.146 727.136 364.922 728.049 364.922C728.576 364.922 729.097 365.01 729.61 365.185C730.124 365.361 730.592 365.647 731.013 366.042C731.435 366.433 731.771 366.951 732.021 367.596C732.272 368.242 732.397 369.037 732.397 369.981V370.64H724.597V369.296H730.816C730.816 368.725 730.702 368.216 730.473 367.768C730.249 367.32 729.929 366.966 729.512 366.707C729.099 366.448 728.611 366.318 728.049 366.318C727.43 366.318 726.894 366.472 726.442 366.78C725.994 367.083 725.649 367.478 725.408 367.965C725.166 368.453 725.045 368.975 725.045 369.533V370.429C725.045 371.193 725.177 371.841 725.441 372.372C725.708 372.899 726.08 373.301 726.554 373.578C727.028 373.85 727.579 373.986 728.207 373.986C728.616 373.986 728.985 373.929 729.314 373.815C729.648 373.696 729.935 373.521 730.177 373.288C730.418 373.051 730.605 372.757 730.737 372.405L732.239 372.827C732.081 373.336 731.815 373.784 731.442 374.171C731.068 374.553 730.607 374.851 730.058 375.066C729.509 375.277 728.892 375.383 728.207 375.383ZM737.739 375.409C737.098 375.409 736.516 375.288 735.994 375.047C735.471 374.801 735.056 374.447 734.749 373.986C734.441 373.521 734.287 372.959 734.287 372.3C734.287 371.72 734.402 371.25 734.63 370.89C734.858 370.526 735.164 370.24 735.546 370.034C735.928 369.827 736.349 369.674 736.81 369.573C737.276 369.467 737.744 369.384 738.213 369.322C738.828 369.243 739.327 369.184 739.709 369.144C740.095 369.101 740.376 369.028 740.552 368.927C740.732 368.826 740.822 368.65 740.822 368.4V368.347C740.822 367.697 740.644 367.192 740.288 366.832C739.937 366.472 739.404 366.292 738.688 366.292C737.946 366.292 737.364 366.455 736.942 366.78C736.521 367.105 736.224 367.451 736.053 367.82L734.577 367.293C734.841 366.679 735.192 366.2 735.631 365.857C736.075 365.51 736.558 365.269 737.08 365.133C737.607 364.992 738.126 364.922 738.635 364.922C738.96 364.922 739.333 364.961 739.755 365.041C740.181 365.115 740.591 365.271 740.987 365.508C741.386 365.745 741.718 366.103 741.981 366.582C742.245 367.061 742.377 367.702 742.377 368.505V375.172H740.822V373.802H740.743C740.638 374.021 740.462 374.256 740.216 374.507C739.97 374.757 739.643 374.97 739.234 375.146C738.826 375.321 738.328 375.409 737.739 375.409ZM737.976 374.012C738.591 374.012 739.109 373.892 739.531 373.65C739.957 373.409 740.277 373.097 740.493 372.715C740.712 372.333 740.822 371.931 740.822 371.509V370.086C740.756 370.165 740.611 370.238 740.387 370.304C740.168 370.365 739.913 370.42 739.623 370.469C739.338 370.512 739.059 370.552 738.787 370.587C738.519 370.618 738.301 370.644 738.134 370.666C737.73 370.719 737.353 370.804 737.001 370.923C736.654 371.037 736.373 371.211 736.158 371.443C735.947 371.672 735.842 371.984 735.842 372.379C735.842 372.919 736.042 373.327 736.441 373.604C736.845 373.876 737.357 374.012 737.976 374.012ZM752.381 367.32L750.985 367.715C750.897 367.482 750.767 367.256 750.596 367.036C750.429 366.813 750.201 366.628 749.911 366.483C749.621 366.338 749.25 366.266 748.798 366.266C748.178 366.266 747.662 366.408 747.25 366.694C746.841 366.975 746.637 367.333 746.637 367.768C746.637 368.154 746.778 368.459 747.059 368.683C747.34 368.907 747.779 369.094 748.376 369.243L749.878 369.612C750.783 369.832 751.457 370.168 751.9 370.62C752.344 371.068 752.566 371.645 752.566 372.352C752.566 372.932 752.399 373.45 752.065 373.907C751.736 374.364 751.275 374.724 750.682 374.987C750.089 375.251 749.399 375.383 748.613 375.383C747.581 375.383 746.727 375.159 746.051 374.711C745.374 374.263 744.946 373.608 744.766 372.748L746.242 372.379C746.382 372.923 746.648 373.332 747.039 373.604C747.434 373.876 747.95 374.012 748.587 374.012C749.311 374.012 749.887 373.859 750.313 373.551C750.743 373.24 750.958 372.866 750.958 372.432C750.958 372.08 750.835 371.786 750.589 371.549C750.344 371.307 749.966 371.127 749.456 371.009L747.77 370.613C746.843 370.394 746.163 370.053 745.728 369.592C745.298 369.127 745.082 368.545 745.082 367.847C745.082 367.276 745.243 366.771 745.563 366.332C745.888 365.892 746.33 365.548 746.887 365.297C747.449 365.047 748.086 364.922 748.798 364.922C749.799 364.922 750.585 365.142 751.156 365.581C751.731 366.02 752.14 366.6 752.381 367.32ZM759.148 375.383C758.173 375.383 757.332 375.167 756.625 374.737C755.922 374.302 755.38 373.696 754.998 372.919C754.62 372.137 754.432 371.228 754.432 370.192C754.432 369.155 754.62 368.242 754.998 367.451C755.38 366.657 755.911 366.037 756.592 365.594C757.277 365.146 758.077 364.922 758.99 364.922C759.517 364.922 760.037 365.01 760.551 365.185C761.065 365.361 761.533 365.647 761.954 366.042C762.376 366.433 762.712 366.951 762.962 367.596C763.212 368.242 763.338 369.037 763.338 369.981V370.64H755.538V369.296H761.757C761.757 368.725 761.642 368.216 761.414 367.768C761.19 367.32 760.87 366.966 760.452 366.707C760.04 366.448 759.552 366.318 758.99 366.318C758.371 366.318 757.835 366.472 757.383 366.78C756.935 367.083 756.59 367.478 756.348 367.965C756.107 368.453 755.986 368.975 755.986 369.533V370.429C755.986 371.193 756.118 371.841 756.381 372.372C756.649 372.899 757.02 373.301 757.495 373.578C757.969 373.85 758.52 373.986 759.148 373.986C759.556 373.986 759.925 373.929 760.255 373.815C760.589 373.696 760.876 373.521 761.118 373.288C761.359 373.051 761.546 372.757 761.678 372.405L763.18 372.827C763.021 373.336 762.756 373.784 762.382 374.171C762.009 374.553 761.548 374.851 760.999 375.066C760.45 375.277 759.833 375.383 759.148 375.383ZM775.03 375.383C774.082 375.383 773.265 375.159 772.58 374.711C771.895 374.263 771.368 373.646 770.999 372.86C770.63 372.074 770.445 371.176 770.445 370.165C770.445 369.138 770.634 368.231 771.012 367.445C771.394 366.654 771.925 366.037 772.606 365.594C773.291 365.146 774.09 364.922 775.004 364.922C775.715 364.922 776.356 365.054 776.927 365.317C777.498 365.581 777.966 365.95 778.33 366.424C778.695 366.898 778.921 367.451 779.009 368.084H777.454C777.336 367.623 777.072 367.214 776.664 366.859C776.26 366.499 775.715 366.318 775.03 366.318C774.424 366.318 773.893 366.477 773.436 366.793C772.984 367.105 772.63 367.546 772.375 368.117C772.125 368.683 772 369.349 772 370.113C772 370.894 772.123 371.575 772.369 372.155C772.619 372.735 772.971 373.185 773.423 373.505C773.88 373.826 774.415 373.986 775.03 373.986C775.434 373.986 775.801 373.916 776.13 373.775C776.46 373.635 776.738 373.433 776.967 373.169C777.195 372.906 777.358 372.59 777.454 372.221H779.009C778.921 372.818 778.704 373.356 778.357 373.835C778.014 374.309 777.56 374.687 776.993 374.968C776.431 375.244 775.777 375.383 775.03 375.383ZM782.836 369.085V375.172H781.282V361.681H782.836V366.635H782.968C783.205 366.112 783.561 365.697 784.035 365.39C784.514 365.078 785.151 364.922 785.945 364.922C786.635 364.922 787.239 365.06 787.757 365.337C788.275 365.609 788.677 366.029 788.962 366.595C789.252 367.157 789.397 367.873 789.397 368.743V375.172H787.843V368.848C787.843 368.044 787.634 367.423 787.217 366.984C786.804 366.54 786.231 366.318 785.498 366.318C784.988 366.318 784.531 366.426 784.127 366.641C783.728 366.856 783.412 367.17 783.179 367.583C782.95 367.996 782.836 368.497 782.836 369.085ZM796.484 375.383C795.509 375.383 794.668 375.167 793.961 374.737C793.258 374.302 792.716 373.696 792.334 372.919C791.956 372.137 791.767 371.228 791.767 370.192C791.767 369.155 791.956 368.242 792.334 367.451C792.716 366.657 793.247 366.037 793.928 365.594C794.613 365.146 795.412 364.922 796.325 364.922C796.852 364.922 797.373 365.01 797.887 365.185C798.401 365.361 798.868 365.647 799.29 366.042C799.711 366.433 800.047 366.951 800.298 367.596C800.548 368.242 800.673 369.037 800.673 369.981V370.64H792.874V369.296H799.092C799.092 368.725 798.978 368.216 798.75 367.768C798.526 367.32 798.205 366.966 797.788 366.707C797.375 366.448 796.888 366.318 796.325 366.318C795.706 366.318 795.17 366.472 794.718 366.78C794.27 367.083 793.925 367.478 793.684 367.965C793.442 368.453 793.322 368.975 793.322 369.533V370.429C793.322 371.193 793.453 371.841 793.717 372.372C793.985 372.899 794.356 373.301 794.83 373.578C795.304 373.85 795.856 373.986 796.484 373.986C796.892 373.986 797.261 373.929 797.59 373.815C797.924 373.696 798.212 373.521 798.453 373.288C798.695 373.051 798.881 372.757 799.013 372.405L800.515 372.827C800.357 373.336 800.091 373.784 799.718 374.171C799.345 374.553 798.884 374.851 798.335 375.066C797.786 375.277 797.169 375.383 796.484 375.383ZM807.148 375.383C806.2 375.383 805.383 375.159 804.698 374.711C804.013 374.263 803.486 373.646 803.117 372.86C802.748 372.074 802.564 371.176 802.564 370.165C802.564 369.138 802.753 368.231 803.13 367.445C803.512 366.654 804.044 366.037 804.724 365.594C805.409 365.146 806.209 364.922 807.122 364.922C807.834 364.922 808.475 365.054 809.046 365.317C809.617 365.581 810.084 365.95 810.449 366.424C810.813 366.898 811.039 367.451 811.127 368.084H809.573C809.454 367.623 809.191 367.214 808.782 366.859C808.378 366.499 807.834 366.318 807.148 366.318C806.542 366.318 806.011 366.477 805.554 366.793C805.102 367.105 804.748 367.546 804.494 368.117C804.243 368.683 804.118 369.349 804.118 370.113C804.118 370.894 804.241 371.575 804.487 372.155C804.738 372.735 805.089 373.185 805.541 373.505C805.998 373.826 806.534 373.986 807.148 373.986C807.553 373.986 807.919 373.916 808.249 373.775C808.578 373.635 808.857 373.433 809.085 373.169C809.314 372.906 809.476 372.59 809.573 372.221H811.127C811.039 372.818 810.822 373.356 810.475 373.835C810.133 374.309 809.678 374.687 809.112 374.968C808.549 375.244 807.895 375.383 807.148 375.383ZM814.849 371.483L814.823 369.559H815.139L819.566 365.054H821.489L816.773 369.823H816.641L814.849 371.483ZM813.4 375.172V361.681H814.955V375.172H813.4ZM819.829 375.172L815.877 370.165L816.983 369.085L821.805 375.172H819.829ZM829.709 378.966C829.445 378.966 829.21 378.944 829.004 378.9C828.797 378.861 828.655 378.821 828.576 378.782L828.971 377.412C829.348 377.508 829.682 377.543 829.972 377.517C830.262 377.491 830.519 377.361 830.743 377.128C830.971 376.9 831.18 376.529 831.369 376.015L831.658 375.225L827.917 365.054H829.603L832.396 373.117H832.502L835.295 365.054H836.981L832.686 376.647C832.493 377.17 832.253 377.603 831.968 377.945C831.683 378.292 831.351 378.549 830.973 378.716C830.6 378.883 830.178 378.966 829.709 378.966ZM842.781 375.383C841.868 375.383 841.066 375.165 840.377 374.731C839.692 374.296 839.156 373.688 838.769 372.906C838.387 372.124 838.196 371.211 838.196 370.165C838.196 369.112 838.387 368.191 838.769 367.405C839.156 366.619 839.692 366.009 840.377 365.574C841.066 365.139 841.868 364.922 842.781 364.922C843.695 364.922 844.494 365.139 845.179 365.574C845.868 366.009 846.404 366.619 846.786 367.405C847.173 368.191 847.366 369.112 847.366 370.165C847.366 371.211 847.173 372.124 846.786 372.906C846.404 373.688 845.868 374.296 845.179 374.731C844.494 375.165 843.695 375.383 842.781 375.383ZM842.781 373.986C843.475 373.986 844.046 373.808 844.494 373.453C844.942 373.097 845.273 372.629 845.489 372.049C845.704 371.47 845.811 370.842 845.811 370.165C845.811 369.489 845.704 368.859 845.489 368.275C845.273 367.691 844.942 367.219 844.494 366.859C844.046 366.499 843.475 366.318 842.781 366.318C842.087 366.318 841.516 366.499 841.068 366.859C840.62 367.219 840.289 367.691 840.074 368.275C839.859 368.859 839.751 369.489 839.751 370.165C839.751 370.842 839.859 371.47 840.074 372.049C840.289 372.629 840.62 373.097 841.068 373.453C841.516 373.808 842.087 373.986 842.781 373.986ZM856.116 371.035V365.054H857.67V375.172H856.116V373.459H856.01C855.773 373.973 855.404 374.41 854.904 374.77C854.403 375.126 853.771 375.304 853.006 375.304C852.374 375.304 851.812 375.165 851.32 374.889C850.828 374.608 850.442 374.186 850.161 373.624C849.88 373.057 849.739 372.344 849.739 371.483V365.054H851.294V371.378C851.294 372.115 851.5 372.704 851.913 373.143C852.33 373.582 852.861 373.802 853.507 373.802C853.893 373.802 854.287 373.703 854.686 373.505C855.09 373.308 855.428 373.005 855.701 372.596C855.977 372.188 856.116 371.667 856.116 371.035ZM860.518 375.172V365.054H862.02V366.582H862.125C862.309 366.081 862.643 365.675 863.126 365.363C863.609 365.051 864.154 364.896 864.76 364.896C864.874 364.896 865.017 364.898 865.188 364.902C865.359 364.907 865.489 364.913 865.577 364.922V366.503C865.524 366.49 865.403 366.47 865.214 366.444C865.03 366.413 864.835 366.398 864.628 366.398C864.136 366.398 863.697 366.501 863.311 366.707C862.929 366.909 862.626 367.19 862.402 367.55C862.182 367.906 862.072 368.312 862.072 368.769V375.172H860.518ZM493.445 395.085V401.172H491.891V391.054H493.393V392.635H493.524C493.762 392.121 494.122 391.708 494.605 391.396C495.088 391.08 495.711 390.922 496.476 390.922C497.161 390.922 497.76 391.062 498.274 391.344C498.788 391.62 499.187 392.042 499.473 392.608C499.758 393.17 499.901 393.882 499.901 394.743V401.172H498.346V394.848C498.346 394.053 498.14 393.434 497.727 392.99C497.314 392.542 496.748 392.318 496.028 392.318C495.531 392.318 495.088 392.426 494.697 392.641C494.31 392.856 494.005 393.17 493.781 393.583C493.557 393.996 493.445 394.497 493.445 395.085ZM506.984 401.383C506.009 401.383 505.168 401.167 504.461 400.737C503.758 400.302 503.216 399.696 502.834 398.919C502.456 398.137 502.267 397.228 502.267 396.192C502.267 395.155 502.456 394.242 502.834 393.451C503.216 392.657 503.747 392.037 504.428 391.594C505.113 391.146 505.912 390.922 506.826 390.922C507.353 390.922 507.873 391.01 508.387 391.185C508.901 391.361 509.369 391.647 509.79 392.042C510.212 392.433 510.548 392.951 510.798 393.596C511.048 394.242 511.174 395.037 511.174 395.981V396.64H503.374V395.296H509.593C509.593 394.725 509.478 394.216 509.25 393.768C509.026 393.32 508.705 392.966 508.288 392.707C507.875 392.448 507.388 392.318 506.826 392.318C506.207 392.318 505.671 392.472 505.219 392.78C504.771 393.083 504.426 393.478 504.184 393.965C503.943 394.453 503.822 394.975 503.822 395.533V396.429C503.822 397.193 503.954 397.841 504.217 398.372C504.485 398.899 504.856 399.301 505.331 399.578C505.805 399.85 506.356 399.986 506.984 399.986C507.392 399.986 507.761 399.929 508.091 399.815C508.424 399.696 508.712 399.521 508.954 399.288C509.195 399.051 509.382 398.757 509.514 398.405L511.015 398.827C510.857 399.336 510.592 399.784 510.218 400.171C509.845 400.553 509.384 400.851 508.835 401.066C508.286 401.277 507.669 401.383 506.984 401.383ZM517.939 391.054V392.371H512.695V391.054H517.939ZM514.223 388.63H515.778V398.273C515.778 398.713 515.842 399.042 515.969 399.262C516.101 399.477 516.268 399.622 516.47 399.696C516.676 399.767 516.894 399.802 517.122 399.802C517.293 399.802 517.434 399.793 517.544 399.775C517.653 399.753 517.741 399.736 517.807 399.723L518.123 401.119C518.018 401.159 517.871 401.198 517.682 401.238C517.493 401.282 517.254 401.304 516.964 401.304C516.525 401.304 516.094 401.209 515.673 401.02C515.256 400.832 514.909 400.544 514.632 400.157C514.36 399.771 514.223 399.283 514.223 398.695V388.63ZM522.57 401.172L519.487 391.054H521.12L523.307 398.8H523.413L525.574 391.054H527.234L529.368 398.774H529.473L531.66 391.054H533.294L530.211 401.172H528.683L526.469 393.399H526.311L524.098 401.172H522.57ZM539.115 401.383C538.202 401.383 537.401 401.165 536.711 400.731C536.026 400.296 535.49 399.688 535.104 398.906C534.722 398.124 534.531 397.211 534.531 396.165C534.531 395.112 534.722 394.191 535.104 393.405C535.49 392.619 536.026 392.009 536.711 391.574C537.401 391.139 538.202 390.922 539.115 390.922C540.029 390.922 540.828 391.139 541.513 391.574C542.203 392.009 542.739 392.619 543.121 393.405C543.507 394.191 543.7 395.112 543.7 396.165C543.7 397.211 543.507 398.124 543.121 398.906C542.739 399.688 542.203 400.296 541.513 400.731C540.828 401.165 540.029 401.383 539.115 401.383ZM539.115 399.986C539.809 399.986 540.38 399.808 540.828 399.453C541.276 399.097 541.608 398.629 541.823 398.049C542.038 397.47 542.146 396.842 542.146 396.165C542.146 395.489 542.038 394.859 541.823 394.275C541.608 393.691 541.276 393.219 540.828 392.859C540.38 392.499 539.809 392.318 539.115 392.318C538.422 392.318 537.851 392.499 537.403 392.859C536.955 393.219 536.623 393.691 536.408 394.275C536.193 394.859 536.085 395.489 536.085 396.165C536.085 396.842 536.193 397.47 536.408 398.049C536.623 398.629 536.955 399.097 537.403 399.453C537.851 399.808 538.422 399.986 539.115 399.986ZM546.073 401.172V391.054H547.575V392.582H547.681C547.865 392.081 548.199 391.675 548.682 391.363C549.165 391.051 549.71 390.896 550.316 390.896C550.43 390.896 550.573 390.898 550.744 390.902C550.915 390.907 551.045 390.913 551.132 390.922V392.503C551.08 392.49 550.959 392.47 550.77 392.444C550.586 392.413 550.39 392.398 550.184 392.398C549.692 392.398 549.253 392.501 548.866 392.707C548.484 392.909 548.181 393.19 547.957 393.55C547.738 393.906 547.628 394.312 547.628 394.769V401.172H546.073ZM554.425 397.483L554.398 395.559H554.714L559.141 391.054H561.065L556.348 395.823H556.216L554.425 397.483ZM552.975 401.172V387.681H554.53V401.172H552.975ZM559.405 401.172L555.452 396.165L556.559 395.085L561.381 401.172H559.405ZM572.393 401.383C571.445 401.383 570.628 401.159 569.943 400.711C569.258 400.263 568.731 399.646 568.362 398.86C567.993 398.074 567.808 397.176 567.808 396.165C567.808 395.138 567.997 394.231 568.375 393.445C568.757 392.654 569.288 392.037 569.969 391.594C570.654 391.146 571.453 390.922 572.367 390.922C573.078 390.922 573.719 391.054 574.29 391.317C574.861 391.581 575.329 391.95 575.693 392.424C576.058 392.898 576.284 393.451 576.372 394.084H574.817C574.699 393.623 574.435 393.214 574.027 392.859C573.623 392.499 573.078 392.318 572.393 392.318C571.787 392.318 571.256 392.477 570.799 392.793C570.347 393.105 569.993 393.546 569.738 394.117C569.488 394.683 569.363 395.349 569.363 396.113C569.363 396.894 569.486 397.575 569.732 398.155C569.982 398.735 570.334 399.185 570.786 399.505C571.243 399.826 571.778 399.986 572.393 399.986C572.797 399.986 573.164 399.916 573.493 399.775C573.823 399.635 574.101 399.433 574.33 399.169C574.558 398.906 574.721 398.59 574.817 398.221H576.372C576.284 398.818 576.067 399.356 575.72 399.835C575.377 400.309 574.923 400.687 574.356 400.968C573.794 401.244 573.14 401.383 572.393 401.383ZM582.755 401.383C581.842 401.383 581.04 401.165 580.351 400.731C579.666 400.296 579.13 399.688 578.743 398.906C578.361 398.124 578.17 397.211 578.17 396.165C578.17 395.112 578.361 394.191 578.743 393.405C579.13 392.619 579.666 392.009 580.351 391.574C581.04 391.139 581.842 390.922 582.755 390.922C583.669 390.922 584.468 391.139 585.153 391.574C585.842 392.009 586.378 392.619 586.76 393.405C587.147 394.191 587.34 395.112 587.34 396.165C587.34 397.211 587.147 398.124 586.76 398.906C586.378 399.688 585.842 400.296 585.153 400.731C584.468 401.165 583.669 401.383 582.755 401.383ZM582.755 399.986C583.449 399.986 584.02 399.808 584.468 399.453C584.916 399.097 585.247 398.629 585.462 398.049C585.678 397.47 585.785 396.842 585.785 396.165C585.785 395.489 585.678 394.859 585.462 394.275C585.247 393.691 584.916 393.219 584.468 392.859C584.02 392.499 583.449 392.318 582.755 392.318C582.061 392.318 581.49 392.499 581.042 392.859C580.594 393.219 580.263 393.691 580.048 394.275C579.832 394.859 579.725 395.489 579.725 396.165C579.725 396.842 579.832 397.47 580.048 398.049C580.263 398.629 580.594 399.097 581.042 399.453C581.49 399.808 582.061 399.986 582.755 399.986ZM591.268 395.085V401.172H589.713V391.054H591.215V392.635H591.347C591.584 392.121 591.944 391.708 592.427 391.396C592.91 391.08 593.534 390.922 594.298 390.922C594.983 390.922 595.582 391.062 596.096 391.344C596.61 391.62 597.01 392.042 597.295 392.608C597.58 393.17 597.723 393.882 597.723 394.743V401.172H596.169V394.848C596.169 394.053 595.962 393.434 595.549 392.99C595.137 392.542 594.57 392.318 593.85 392.318C593.354 392.318 592.91 392.426 592.519 392.641C592.133 392.856 591.828 393.17 591.604 393.583C591.38 393.996 591.268 394.497 591.268 395.085ZM602.119 395.085V401.172H600.564V391.054H602.066V392.635H602.198C602.435 392.121 602.795 391.708 603.278 391.396C603.761 391.08 604.385 390.922 605.149 390.922C605.834 390.922 606.433 391.062 606.947 391.344C607.461 391.62 607.861 392.042 608.146 392.608C608.432 393.17 608.574 393.882 608.574 394.743V401.172H607.02V394.848C607.02 394.053 606.813 393.434 606.4 392.99C605.988 392.542 605.421 392.318 604.701 392.318C604.205 392.318 603.761 392.426 603.37 392.641C602.984 392.856 602.679 393.17 602.455 393.583C602.231 393.996 602.119 394.497 602.119 395.085ZM615.657 401.383C614.682 401.383 613.841 401.167 613.134 400.737C612.432 400.302 611.889 399.696 611.507 398.919C611.13 398.137 610.941 397.228 610.941 396.192C610.941 395.155 611.13 394.242 611.507 393.451C611.889 392.657 612.421 392.037 613.101 391.594C613.786 391.146 614.586 390.922 615.499 390.922C616.026 390.922 616.547 391.01 617.06 391.185C617.574 391.361 618.042 391.647 618.464 392.042C618.885 392.433 619.221 392.951 619.471 393.596C619.722 394.242 619.847 395.037 619.847 395.981V396.64H612.047V395.296H618.266C618.266 394.725 618.152 394.216 617.923 393.768C617.699 393.32 617.379 392.966 616.962 392.707C616.549 392.448 616.061 392.318 615.499 392.318C614.88 392.318 614.344 392.472 613.892 392.78C613.444 393.083 613.099 393.478 612.858 393.965C612.616 394.453 612.495 394.975 612.495 395.533V396.429C612.495 397.193 612.627 397.841 612.891 398.372C613.158 398.899 613.53 399.301 614.004 399.578C614.478 399.85 615.029 399.986 615.657 399.986C616.066 399.986 616.435 399.929 616.764 399.815C617.098 399.696 617.385 399.521 617.627 399.288C617.868 399.051 618.055 398.757 618.187 398.405L619.689 398.827C619.531 399.336 619.265 399.784 618.892 400.171C618.518 400.553 618.057 400.851 617.508 401.066C616.959 401.277 616.342 401.383 615.657 401.383ZM626.322 401.383C625.374 401.383 624.557 401.159 623.872 400.711C623.187 400.263 622.66 399.646 622.291 398.86C621.922 398.074 621.737 397.176 621.737 396.165C621.737 395.138 621.926 394.231 622.304 393.445C622.686 392.654 623.217 392.037 623.898 391.594C624.583 391.146 625.382 390.922 626.296 390.922C627.007 390.922 627.648 391.054 628.219 391.317C628.79 391.581 629.258 391.95 629.622 392.424C629.987 392.898 630.213 393.451 630.301 394.084H628.746C628.628 393.623 628.364 393.214 627.956 392.859C627.552 392.499 627.007 392.318 626.322 392.318C625.716 392.318 625.185 392.477 624.728 392.793C624.276 393.105 623.922 393.546 623.668 394.117C623.417 394.683 623.292 395.349 623.292 396.113C623.292 396.894 623.415 397.575 623.661 398.155C623.911 398.735 624.263 399.185 624.715 399.505C625.172 399.826 625.707 399.986 626.322 399.986C626.726 399.986 627.093 399.916 627.422 399.775C627.752 399.635 628.031 399.433 628.259 399.169C628.487 398.906 628.65 398.59 628.746 398.221H630.301C630.213 398.818 629.996 399.356 629.649 399.835C629.306 400.309 628.852 400.687 628.285 400.968C627.723 401.244 627.069 401.383 626.322 401.383ZM636.974 391.054V392.371H631.73V391.054H636.974ZM633.259 388.63H634.813V398.273C634.813 398.713 634.877 399.042 635.004 399.262C635.136 399.477 635.303 399.622 635.505 399.696C635.711 399.767 635.929 399.802 636.157 399.802C636.328 399.802 636.469 399.793 636.579 399.775C636.689 399.753 636.776 399.736 636.842 399.723L637.158 401.119C637.053 401.159 636.906 401.198 636.717 401.238C636.528 401.282 636.289 401.304 635.999 401.304C635.56 401.304 635.13 401.209 634.708 401.02C634.291 400.832 633.944 400.544 633.667 400.157C633.395 399.771 633.259 399.283 633.259 398.695V388.63ZM639.312 401.172V391.054H640.867V401.172H639.312ZM640.103 389.367C639.8 389.367 639.539 389.264 639.319 389.058C639.104 388.851 638.996 388.603 638.996 388.313C638.996 388.024 639.104 387.775 639.319 387.569C639.539 387.363 639.8 387.259 640.103 387.259C640.406 387.259 640.665 387.363 640.88 387.569C641.1 387.775 641.21 388.024 641.21 388.313C641.21 388.603 641.1 388.851 640.88 389.058C640.665 389.264 640.406 389.367 640.103 389.367ZM647.825 401.383C646.912 401.383 646.11 401.165 645.421 400.731C644.736 400.296 644.2 399.688 643.813 398.906C643.431 398.124 643.24 397.211 643.24 396.165C643.24 395.112 643.431 394.191 643.813 393.405C644.2 392.619 644.736 392.009 645.421 391.574C646.11 391.139 646.912 390.922 647.825 390.922C648.738 390.922 649.538 391.139 650.223 391.574C650.912 392.009 651.448 392.619 651.83 393.405C652.217 394.191 652.41 395.112 652.41 396.165C652.41 397.211 652.217 398.124 651.83 398.906C651.448 399.688 650.912 400.296 650.223 400.731C649.538 401.165 648.738 401.383 647.825 401.383ZM647.825 399.986C648.519 399.986 649.09 399.808 649.538 399.453C649.986 399.097 650.317 398.629 650.532 398.049C650.748 397.47 650.855 396.842 650.855 396.165C650.855 395.489 650.748 394.859 650.532 394.275C650.317 393.691 649.986 393.219 649.538 392.859C649.09 392.499 648.519 392.318 647.825 392.318C647.131 392.318 646.56 392.499 646.112 392.859C645.664 393.219 645.333 393.691 645.118 394.275C644.902 394.859 644.795 395.489 644.795 396.165C644.795 396.842 644.902 397.47 645.118 398.049C645.333 398.629 645.664 399.097 646.112 399.453C646.56 399.808 647.131 399.986 647.825 399.986ZM656.338 395.085V401.172H654.783V391.054H656.285V392.635H656.417C656.654 392.121 657.014 391.708 657.497 391.396C657.98 391.08 658.604 390.922 659.368 390.922C660.053 390.922 660.652 391.062 661.166 391.344C661.68 391.62 662.079 392.042 662.365 392.608C662.65 393.17 662.793 393.882 662.793 394.743V401.172H661.239V394.848C661.239 394.053 661.032 393.434 660.619 392.99C660.206 392.542 659.64 392.318 658.92 392.318C658.424 392.318 657.98 392.426 657.589 392.641C657.203 392.856 656.897 393.17 656.673 393.583C656.45 393.996 656.338 394.497 656.338 395.085ZM673.829 401.409C673.187 401.409 672.606 401.288 672.083 401.047C671.56 400.801 671.145 400.447 670.838 399.986C670.531 399.521 670.377 398.959 670.377 398.3C670.377 397.72 670.491 397.25 670.719 396.89C670.948 396.526 671.253 396.24 671.635 396.034C672.017 395.827 672.439 395.674 672.9 395.573C673.365 395.467 673.833 395.384 674.303 395.322C674.918 395.243 675.416 395.184 675.798 395.144C676.185 395.101 676.466 395.028 676.641 394.927C676.821 394.826 676.911 394.65 676.911 394.4V394.347C676.911 393.697 676.734 393.192 676.378 392.832C676.027 392.472 675.493 392.292 674.777 392.292C674.035 392.292 673.453 392.455 673.032 392.78C672.61 393.105 672.314 393.451 672.142 393.82L670.667 393.293C670.93 392.679 671.281 392.2 671.721 391.857C672.164 391.51 672.647 391.269 673.17 391.133C673.697 390.992 674.215 390.922 674.724 390.922C675.049 390.922 675.423 390.961 675.844 391.041C676.27 391.115 676.681 391.271 677.076 391.508C677.476 391.745 677.807 392.103 678.071 392.582C678.334 393.061 678.466 393.702 678.466 394.505V401.172H676.911V399.802H676.832C676.727 400.021 676.551 400.256 676.305 400.507C676.06 400.757 675.732 400.97 675.324 401.146C674.916 401.321 674.417 401.409 673.829 401.409ZM674.066 400.012C674.681 400.012 675.199 399.892 675.62 399.65C676.046 399.409 676.367 399.097 676.582 398.715C676.802 398.333 676.911 397.931 676.911 397.509V396.086C676.846 396.165 676.701 396.238 676.477 396.304C676.257 396.365 676.002 396.42 675.713 396.469C675.427 396.512 675.148 396.552 674.876 396.587C674.608 396.618 674.391 396.644 674.224 396.666C673.82 396.719 673.442 396.804 673.091 396.923C672.744 397.037 672.463 397.211 672.248 397.443C672.037 397.672 671.931 397.984 671.931 398.379C671.931 398.919 672.131 399.327 672.531 399.604C672.935 399.876 673.447 400.012 674.066 400.012ZM682.858 395.085V401.172H681.304V391.054H682.806V392.635H682.937C683.174 392.121 683.535 391.708 684.018 391.396C684.501 391.08 685.124 390.922 685.888 390.922C686.573 390.922 687.173 391.062 687.687 391.344C688.201 391.62 688.6 392.042 688.886 392.608C689.171 393.17 689.314 393.882 689.314 394.743V401.172H687.759V394.848C687.759 394.053 687.553 393.434 687.14 392.99C686.727 392.542 686.161 392.318 685.44 392.318C684.944 392.318 684.501 392.426 684.11 392.641C683.723 392.856 683.418 393.17 683.194 393.583C682.97 393.996 682.858 394.497 682.858 395.085ZM695.975 401.383C695.132 401.383 694.388 401.17 693.742 400.744C693.097 400.313 692.592 399.707 692.227 398.926C691.863 398.139 691.68 397.211 691.68 396.139C691.68 395.076 691.863 394.154 692.227 393.372C692.592 392.591 693.099 391.987 693.749 391.561C694.399 391.135 695.15 390.922 696.002 390.922C696.66 390.922 697.181 391.032 697.563 391.251C697.949 391.467 698.244 391.712 698.446 391.989C698.652 392.261 698.812 392.485 698.926 392.661H699.058V387.681H700.613V401.172H699.111V399.617H698.926C698.812 399.802 698.65 400.034 698.439 400.316C698.228 400.592 697.927 400.84 697.536 401.06C697.146 401.275 696.625 401.383 695.975 401.383ZM696.186 399.986C696.81 399.986 697.337 399.824 697.767 399.499C698.197 399.169 698.525 398.715 698.749 398.135C698.973 397.551 699.085 396.877 699.085 396.113C699.085 395.357 698.975 394.697 698.755 394.13C698.536 393.559 698.211 393.116 697.78 392.799C697.35 392.479 696.818 392.318 696.186 392.318C695.527 392.318 694.978 392.488 694.539 392.826C694.104 393.159 693.777 393.614 693.558 394.189C693.343 394.76 693.235 395.401 693.235 396.113C693.235 396.833 693.345 397.487 693.564 398.076C693.788 398.66 694.118 399.125 694.552 399.472C694.992 399.815 695.536 399.986 696.186 399.986ZM713.293 391.054V392.371H708.05V391.054H713.293ZM709.578 388.63H711.133V398.273C711.133 398.713 711.196 399.042 711.324 399.262C711.456 399.477 711.622 399.622 711.824 399.696C712.031 399.767 712.248 399.802 712.477 399.802C712.648 399.802 712.788 399.793 712.898 399.775C713.008 399.753 713.096 399.736 713.162 399.723L713.478 401.119C713.373 401.159 713.225 401.198 713.037 401.238C712.848 401.282 712.608 401.304 712.319 401.304C711.879 401.304 711.449 401.209 711.027 401.02C710.61 400.832 710.263 400.544 709.987 400.157C709.714 399.771 709.578 399.283 709.578 398.695V388.63ZM715.632 401.172V391.054H717.134V392.582H717.239C717.424 392.081 717.757 391.675 718.241 391.363C718.724 391.051 719.268 390.896 719.874 390.896C719.988 390.896 720.131 390.898 720.302 390.902C720.474 390.907 720.603 390.913 720.691 390.922V392.503C720.638 392.49 720.518 392.47 720.329 392.444C720.144 392.413 719.949 392.398 719.742 392.398C719.251 392.398 718.811 392.501 718.425 392.707C718.043 392.909 717.74 393.19 717.516 393.55C717.296 393.906 717.187 394.312 717.187 394.769V401.172H715.632ZM723.843 404.966C723.58 404.966 723.345 404.944 723.138 404.9C722.932 404.861 722.789 404.821 722.71 404.782L723.105 403.412C723.483 403.508 723.817 403.543 724.107 403.517C724.396 403.491 724.653 403.361 724.877 403.128C725.106 402.9 725.314 402.529 725.503 402.015L725.793 401.225L722.051 391.054H723.738L726.531 399.117H726.636L729.429 391.054H731.116L726.821 402.647C726.627 403.17 726.388 403.603 726.103 403.945C725.817 404.292 725.486 404.549 725.108 404.716C724.735 404.883 724.313 404.966 723.843 404.966ZM741.362 401.409C740.721 401.409 740.139 401.288 739.617 401.047C739.094 400.801 738.679 400.447 738.372 399.986C738.064 399.521 737.91 398.959 737.91 398.3C737.91 397.72 738.025 397.25 738.253 396.89C738.481 396.526 738.787 396.24 739.169 396.034C739.551 395.827 739.972 395.674 740.433 395.573C740.899 395.467 741.367 395.384 741.836 395.322C742.451 395.243 742.95 395.184 743.332 395.144C743.718 395.101 743.999 395.028 744.175 394.927C744.355 394.826 744.445 394.65 744.445 394.4V394.347C744.445 393.697 744.267 393.192 743.912 392.832C743.56 392.472 743.027 392.292 742.311 392.292C741.569 392.292 740.987 392.455 740.565 392.78C740.144 393.105 739.847 393.451 739.676 393.82L738.2 393.293C738.464 392.679 738.815 392.2 739.254 391.857C739.698 391.51 740.181 391.269 740.703 391.133C741.23 390.992 741.749 390.922 742.258 390.922C742.583 390.922 742.956 390.961 743.378 391.041C743.804 391.115 744.215 391.271 744.61 391.508C745.009 391.745 745.341 392.103 745.604 392.582C745.868 393.061 746 393.702 746 394.505V401.172H744.445V399.802H744.366C744.261 400.021 744.085 400.256 743.839 400.507C743.593 400.757 743.266 400.97 742.858 401.146C742.449 401.321 741.951 401.409 741.362 401.409ZM741.599 400.012C742.214 400.012 742.732 399.892 743.154 399.65C743.58 399.409 743.901 399.097 744.116 398.715C744.335 398.333 744.445 397.931 744.445 397.509V396.086C744.379 396.165 744.234 396.238 744.01 396.304C743.791 396.365 743.536 396.42 743.246 396.469C742.961 396.512 742.682 396.552 742.41 396.587C742.142 396.618 741.924 396.644 741.757 396.666C741.353 396.719 740.976 396.804 740.624 396.923C740.277 397.037 739.996 397.211 739.781 397.443C739.57 397.672 739.465 397.984 739.465 398.379C739.465 398.919 739.665 399.327 740.064 399.604C740.469 399.876 740.98 400.012 741.599 400.012ZM752.921 405.177C752.17 405.177 751.525 405.08 750.985 404.887C750.445 404.698 749.994 404.448 749.634 404.136C749.279 403.829 748.995 403.499 748.785 403.148L750.023 402.279C750.163 402.463 750.341 402.674 750.557 402.911C750.772 403.152 751.066 403.361 751.439 403.537C751.817 403.717 752.311 403.807 752.921 403.807C753.738 403.807 754.412 403.609 754.944 403.214C755.475 402.819 755.741 402.2 755.741 401.356V399.301H755.609C755.495 399.486 755.332 399.714 755.122 399.986C754.915 400.254 754.617 400.493 754.226 400.704C753.839 400.911 753.317 401.014 752.658 401.014C751.841 401.014 751.108 400.821 750.458 400.434C749.812 400.048 749.301 399.486 748.923 398.748C748.55 398.01 748.363 397.114 748.363 396.06C748.363 395.024 748.545 394.121 748.91 393.353C749.274 392.58 749.781 391.983 750.431 391.561C751.081 391.135 751.832 390.922 752.684 390.922C753.343 390.922 753.866 391.032 754.252 391.251C754.643 391.467 754.941 391.712 755.148 391.989C755.359 392.261 755.521 392.485 755.635 392.661H755.793V391.054H757.295V401.462C757.295 402.331 757.098 403.038 756.703 403.583C756.312 404.132 755.785 404.534 755.122 404.788C754.463 405.047 753.729 405.177 752.921 405.177ZM752.869 399.617C753.492 399.617 754.019 399.475 754.45 399.189C754.88 398.904 755.207 398.493 755.431 397.957C755.655 397.421 755.767 396.78 755.767 396.034C755.767 395.305 755.657 394.661 755.438 394.104C755.218 393.546 754.893 393.109 754.463 392.793C754.032 392.477 753.501 392.318 752.869 392.318C752.21 392.318 751.661 392.485 751.222 392.819C750.787 393.153 750.46 393.601 750.24 394.163C750.025 394.725 749.918 395.349 749.918 396.034C749.918 396.736 750.027 397.358 750.247 397.898C750.471 398.434 750.8 398.855 751.235 399.163C751.674 399.466 752.219 399.617 752.869 399.617ZM763.119 401.409C762.477 401.409 761.896 401.288 761.373 401.047C760.85 400.801 760.435 400.447 760.128 399.986C759.821 399.521 759.667 398.959 759.667 398.3C759.667 397.72 759.781 397.25 760.009 396.89C760.238 396.526 760.543 396.24 760.925 396.034C761.307 395.827 761.729 395.674 762.19 395.573C762.655 395.467 763.123 395.384 763.593 395.322C764.208 395.243 764.706 395.184 765.088 395.144C765.475 395.101 765.756 395.028 765.931 394.927C766.111 394.826 766.201 394.65 766.201 394.4V394.347C766.201 393.697 766.024 393.192 765.668 392.832C765.317 392.472 764.783 392.292 764.067 392.292C763.325 392.292 762.743 392.455 762.322 392.78C761.9 393.105 761.603 393.451 761.432 393.82L759.957 393.293C760.22 392.679 760.571 392.2 761.011 391.857C761.454 391.51 761.937 391.269 762.46 391.133C762.987 390.992 763.505 390.922 764.014 390.922C764.339 390.922 764.713 390.961 765.134 391.041C765.56 391.115 765.971 391.271 766.366 391.508C766.766 391.745 767.097 392.103 767.361 392.582C767.624 393.061 767.756 393.702 767.756 394.505V401.172H766.201V399.802H766.122C766.017 400.021 765.841 400.256 765.595 400.507C765.35 400.757 765.022 400.97 764.614 401.146C764.206 401.321 763.707 401.409 763.119 401.409ZM763.356 400.012C763.971 400.012 764.489 399.892 764.91 399.65C765.336 399.409 765.657 399.097 765.872 398.715C766.092 398.333 766.201 397.931 766.201 397.509V396.086C766.136 396.165 765.991 396.238 765.767 396.304C765.547 396.365 765.292 396.42 765.003 396.469C764.717 396.512 764.438 396.552 764.166 396.587C763.898 396.618 763.681 396.644 763.514 396.666C763.11 396.719 762.732 396.804 762.381 396.923C762.034 397.037 761.753 397.211 761.538 397.443C761.327 397.672 761.221 397.984 761.221 398.379C761.221 398.919 761.421 399.327 761.821 399.604C762.225 399.876 762.737 400.012 763.356 400.012ZM770.594 401.172V391.054H772.148V401.172H770.594ZM771.384 389.367C771.081 389.367 770.82 389.264 770.6 389.058C770.385 388.851 770.277 388.603 770.277 388.313C770.277 388.024 770.385 387.775 770.6 387.569C770.82 387.363 771.081 387.259 771.384 387.259C771.687 387.259 771.946 387.363 772.161 387.569C772.381 387.775 772.491 388.024 772.491 388.313C772.491 388.603 772.381 388.851 772.161 389.058C771.946 389.264 771.687 389.367 771.384 389.367ZM776.55 395.085V401.172H774.996V391.054H776.498V392.635H776.629C776.866 392.121 777.227 391.708 777.71 391.396C778.193 391.08 778.816 390.922 779.58 390.922C780.266 390.922 780.865 391.062 781.379 391.344C781.893 391.62 782.292 392.042 782.578 392.608C782.863 393.17 783.006 393.882 783.006 394.743V401.172H781.451V394.848C781.451 394.053 781.245 393.434 780.832 392.99C780.419 392.542 779.853 392.318 779.132 392.318C778.636 392.318 778.193 392.426 777.802 392.641C777.415 392.856 777.11 393.17 776.886 393.583C776.662 393.996 776.55 394.497 776.55 395.085ZM786.98 401.277C786.655 401.277 786.376 401.161 786.143 400.928C785.91 400.695 785.794 400.417 785.794 400.092C785.794 399.767 785.91 399.488 786.143 399.255C786.376 399.022 786.655 398.906 786.98 398.906C787.305 398.906 787.584 399.022 787.816 399.255C788.049 399.488 788.165 399.767 788.165 400.092C788.165 400.307 788.11 400.504 788.001 400.684C787.895 400.864 787.753 401.009 787.573 401.119C787.397 401.225 787.199 401.277 786.98 401.277Z" fill="#667085"/>
<g filter="url(#filter0_d_3627_3960)">
<rect x="488.95" y="439.973" width="302.1" height="53.5" rx="10.6" fill="#FF9A33"/>
<rect x="489.612" y="440.635" width="300.775" height="52.175" rx="9.9375" stroke="#FF9A33" stroke-width="1.325"/>
<path d="M614.194 474.223V458.804H619.69C620.884 458.804 621.875 459.01 622.663 459.422C623.456 459.833 624.049 460.403 624.44 461.131C624.832 461.853 625.027 462.689 625.027 463.638C625.027 464.581 624.829 465.412 624.433 466.13C624.041 466.842 623.449 467.397 622.656 467.793C621.868 468.19 620.877 468.388 619.682 468.388H615.519V466.386H619.471C620.224 466.386 620.836 466.278 621.308 466.062C621.785 465.846 622.134 465.532 622.355 465.121C622.576 464.709 622.686 464.215 622.686 463.638C622.686 463.056 622.573 462.551 622.347 462.125C622.126 461.698 621.778 461.372 621.301 461.146C620.829 460.915 620.209 460.8 619.441 460.8H616.52V474.223H614.194ZM621.805 467.266L625.614 474.223H622.964L619.23 467.266H621.805ZM632.516 474.456C631.377 474.456 630.396 474.213 629.573 473.726C628.754 473.234 628.122 472.544 627.675 471.655C627.234 470.762 627.013 469.716 627.013 468.516C627.013 467.332 627.234 466.288 627.675 465.384C628.122 464.481 628.744 463.776 629.542 463.269C630.345 462.762 631.284 462.508 632.358 462.508C633.011 462.508 633.643 462.616 634.255 462.832C634.868 463.048 635.417 463.387 635.904 463.849C636.391 464.31 636.775 464.91 637.056 465.648C637.337 466.381 637.477 467.271 637.477 468.32V469.118H628.285V467.432H635.272C635.272 466.84 635.151 466.315 634.91 465.859C634.669 465.397 634.331 465.033 633.894 464.767C633.462 464.501 632.955 464.368 632.373 464.368C631.741 464.368 631.189 464.524 630.717 464.835C630.25 465.141 629.889 465.542 629.633 466.039C629.382 466.531 629.256 467.066 629.256 467.643V468.96C629.256 469.733 629.392 470.391 629.663 470.933C629.939 471.475 630.323 471.889 630.815 472.175C631.307 472.456 631.881 472.597 632.539 472.597C632.965 472.597 633.354 472.536 633.706 472.416C634.057 472.29 634.361 472.105 634.617 471.859C634.873 471.613 635.068 471.309 635.204 470.948L637.334 471.332C637.164 471.959 636.858 472.509 636.416 472.98C635.979 473.447 635.43 473.811 634.767 474.072C634.11 474.328 633.359 474.456 632.516 474.456ZM645.373 462.659V464.466H639.056V462.659H645.373ZM640.75 459.889H643.001V470.827C643.001 471.264 643.067 471.593 643.197 471.814C643.328 472.029 643.496 472.177 643.701 472.258C643.912 472.333 644.141 472.371 644.387 472.371C644.567 472.371 644.725 472.358 644.861 472.333C644.996 472.308 645.102 472.288 645.177 472.273L645.584 474.132C645.453 474.183 645.267 474.233 645.026 474.283C644.786 474.338 644.484 474.368 644.123 474.373C643.531 474.383 642.979 474.278 642.467 474.057C641.955 473.836 641.541 473.495 641.225 473.033C640.908 472.571 640.75 471.992 640.75 471.294V459.889ZM647.863 474.223V462.659H650.039V464.496H650.159C650.37 463.874 650.741 463.384 651.273 463.028C651.81 462.667 652.418 462.486 653.095 462.486C653.236 462.486 653.401 462.491 653.592 462.501C653.788 462.511 653.941 462.524 654.051 462.539V464.692C653.961 464.667 653.8 464.639 653.569 464.609C653.338 464.574 653.108 464.556 652.877 464.556C652.345 464.556 651.87 464.669 651.454 464.895C651.042 465.116 650.716 465.424 650.475 465.821C650.234 466.212 650.114 466.659 650.114 467.161V474.223H647.863ZM657.774 478.559C657.438 478.559 657.132 478.531 656.856 478.476C656.579 478.426 656.374 478.371 656.238 478.311L656.78 476.466C657.192 476.577 657.558 476.624 657.879 476.609C658.201 476.594 658.484 476.474 658.73 476.248C658.981 476.022 659.202 475.653 659.393 475.141L659.671 474.373L655.44 462.659H657.849L660.778 471.633H660.898L663.827 462.659H666.243L661.478 475.766C661.257 476.368 660.976 476.878 660.635 477.294C660.293 477.716 659.887 478.032 659.415 478.243C658.943 478.454 658.396 478.559 657.774 478.559Z" fill="white"/>
</g>
<defs>
<filter id="filter0_d_3627_3960" x="486.3" y="438.648" width="307.4" height="58.8" filterUnits="userSpaceOnUse" color-interpolation-filters="sRGB">
<feFlood flood-opacity="0" result="BackgroundImageFix"/>
<feColorMatrix in="SourceAlpha" type="matrix" values="0 0 0 0 0 0 0 0 0 0 0 0 0 0 0 0 0 0 127 0" result="hardAlpha"/>
<feOffset dy="1.325"/>
<feGaussianBlur stdDeviation="1.325"/>
<feColorMatrix type="matrix" values="0 0 0 0 0.0627451 0 0 0 0 0.0941176 0 0 0 0 0.156863 0 0 0 0.05 0"/>
<feBlend mode="normal" in2="BackgroundImageFix" result="effect1_dropShadow_3627_3960"/>
<feBlend mode="normal" in="SourceGraphic" in2="effect1_dropShadow_3627_3960" result="shape"/>
</filter>
</defs>
</svg>
