<svg width="20" height="20" viewBox="0 0 20 20" fill="none" xmlns="http://www.w3.org/2000/svg">
<g clip-path="url(#clip0_140_223)">
<g clip-path="url(#clip1_140_223)">
<path d="M14.1666 0H5.83329C4.72863 0.00132321 3.66959 0.440735 2.88848 1.22185C2.10736 2.00296 1.66795 3.062 1.66663 4.16667V16.6667C1.66663 17.5507 2.01782 18.3986 2.64294 19.0237C3.26806 19.6488 4.1159 20 4.99996 20H14.1666C15.2713 19.9987 16.3303 19.5593 17.1114 18.7782C17.8926 17.997 18.332 16.938 18.3333 15.8333V4.16667C18.332 3.062 17.8926 2.00296 17.1114 1.22185C16.3303 0.440735 15.2713 0.00132321 14.1666 0ZM16.6666 4.16667V13.3333H6.66663V1.66667H14.1666C14.8297 1.66667 15.4656 1.93006 15.9344 2.3989C16.4032 2.86774 16.6666 3.50363 16.6666 4.16667ZM4.99996 1.81V13.3333C4.41465 13.3328 3.83963 13.4872 3.33329 13.7808V4.16667C3.33337 3.64974 3.49368 3.14555 3.79215 2.7235C4.09063 2.30145 4.5126 1.98231 4.99996 1.81ZM14.1666 18.3333H4.99996C4.55793 18.3333 4.13401 18.1577 3.82145 17.8452C3.50889 17.5326 3.33329 17.1087 3.33329 16.6667C3.33329 16.2246 3.50889 15.8007 3.82145 15.4882C4.13401 15.1756 4.55793 15 4.99996 15H16.6666V15.8333C16.6666 16.4964 16.4032 17.1323 15.9344 17.6011C15.4656 18.0699 14.8297 18.3333 14.1666 18.3333Z" fill="white"/>
</g>
</g>
<defs>
<clipPath id="clip0_140_223">
<rect width="20" height="20" fill="white"/>
</clipPath>
<clipPath id="clip1_140_223">
<rect width="20" height="20" fill="white"/>
</clipPath>
</defs>
</svg>
