<svg width="20" height="20" viewBox="0 0 20 20" fill="none" xmlns="http://www.w3.org/2000/svg">
<path d="M16.8425 4.75C17.0746 4.75 17.3623 4.68852 17.5264 4.52443C17.6905 4.36033 17.7175 4.10706 17.7175 3.875C17.7175 3.64294 17.6905 3.42039 17.5264 3.2563C17.3623 3.0922 17.0746 3 16.8425 3L3.875 3.00002C3.64294 3.00002 3.42038 3.0922 3.25628 3.2563C3.09219 3.42039 3 3.64295 3 3.87502V16.125C3 16.3571 3.09219 16.5796 3.25628 16.7437C3.42038 16.9078 3.64294 17 3.875 17H5.625C5.85706 17 6.07962 16.9078 6.24372 16.7437C6.40781 16.5796 6.5 16.3571 6.5 16.125C6.5 15.8929 6.40781 15.6704 6.24372 15.5063C6.07962 15.3422 5.85706 15.25 5.625 15.25H4.75V4.75002L16.8425 4.75ZM17.7175 9.49252L15.25 5.99252C15.1162 5.80388 14.9131 5.67589 14.6852 5.63654C14.4573 5.59719 14.2231 5.64967 14.0337 5.78252C13.9391 5.84883 13.8586 5.93323 13.7967 6.03085C13.7349 6.12846 13.693 6.23736 13.6735 6.35126C13.6539 6.46515 13.6572 6.58178 13.683 6.69442C13.7088 6.80706 13.7566 6.91347 13.8237 7.00752L15.3287 9.12502H8.25C8.01793 9.12502 7.79538 9.21721 7.63128 9.3813C7.46719 9.54539 7.375 9.76795 7.375 10C7.375 10.2321 7.46719 10.4546 7.63128 10.6187C7.79538 10.7828 8.01793 10.875 8.25 10.875H15.25L13.675 12.975C13.6061 13.0669 13.5559 13.1715 13.5274 13.2828C13.4989 13.3942 13.4925 13.51 13.5088 13.6238C13.525 13.7375 13.5635 13.8469 13.6221 13.9458C13.6806 14.0447 13.7581 14.1311 13.85 14.2C14.0015 14.3136 14.1857 14.375 14.375 14.375C14.5108 14.375 14.6448 14.3434 14.7663 14.2826C14.8878 14.2219 14.9935 14.1337 15.075 14.025L17.7 10.525C17.8121 10.377 17.8742 10.1972 17.8773 10.0116C17.8804 9.82602 17.8245 9.64422 17.7175 9.49252Z" fill="#434343"/>
</svg>
