<svg width="328" height="120" viewBox="0 0 328 120" fill="none" xmlns="http://www.w3.org/2000/svg">
<rect width="328" height="120" rx="10" fill="url(#paint0_linear_3948_2870)"/>
<mask id="mask0_3948_2870" style="mask-type:alpha" maskUnits="userSpaceOnUse" x="0" y="0" width="328" height="120">
<rect width="328" height="120" rx="14" fill="white"/>
</mask>
<g mask="url(#mask0_3948_2870)">
<path d="M453 -13.5C453 1.40503 447.529 16.1641 436.901 29.9346C426.272 43.705 410.693 56.2172 391.053 66.7566C371.413 77.2961 348.098 85.6564 322.438 91.3603C296.777 97.0642 269.275 100 241.5 100C213.725 100 186.223 97.0642 160.562 91.3603C134.902 85.6564 111.586 77.2961 91.9469 66.7566C72.3073 56.2172 56.7283 43.705 46.0995 29.9346C35.4706 16.1641 30 1.40503 30 -13.5L241.5 -13.5H453Z" fill="url(#paint1_linear_3948_2870)" fill-opacity="0.16"/>
</g>
<defs>
<linearGradient id="paint0_linear_3948_2870" x1="376.544" y1="-11.7" x2="191.267" y2="299.027" gradientUnits="userSpaceOnUse">
<stop stop-color="#2CA4C7"/>
<stop offset="1" stop-color="#ADD755"/>
</linearGradient>
<linearGradient id="paint1_linear_3948_2870" x1="346.887" y1="-13.11" x2="252.584" y2="157.067" gradientUnits="userSpaceOnUse">
<stop stop-color="white" stop-opacity="0"/>
<stop offset="1" stop-color="white"/>
</linearGradient>
</defs>
</svg>
