<svg width="500" height="500" viewBox="0 0 500 500" fill="none" xmlns="http://www.w3.org/2000/svg">
<path d="M71.7291 366.9C71.553 366.898 71.3805 366.85 71.2291 366.76L48.5391 353.66C48.3879 353.573 48.2623 353.448 48.1745 353.297C48.0868 353.146 48.0401 352.975 48.0391 352.8V326.6C48.0384 326.424 48.0842 326.251 48.172 326.098C48.2599 325.945 48.3865 325.818 48.5391 325.73L71.2291 312.63C71.3811 312.542 71.5535 312.496 71.7291 312.496C71.9046 312.496 72.0771 312.542 72.2291 312.63L94.9191 325.73C95.0717 325.818 95.1983 325.945 95.2861 326.098C95.3739 326.251 95.4198 326.424 95.4191 326.6V352.8C95.418 352.975 95.3713 353.146 95.2836 353.297C95.1959 353.448 95.0702 353.573 94.9191 353.66L72.2291 366.76C72.0776 366.85 71.9052 366.898 71.7291 366.9ZM49.9991 352.22L71.6891 364.74L93.3791 352.22V327.17L71.7291 314.65L49.9991 327.17V352.22Z" fill="#EBEBEB"/>
<path d="M117.12 366.9C116.944 366.898 116.771 366.85 116.62 366.76L93.9199 353.66C93.7688 353.573 93.6431 353.448 93.5554 353.297C93.4677 353.146 93.421 352.975 93.4199 352.8V326.6C93.4192 326.424 93.4651 326.251 93.5529 326.098C93.6407 325.945 93.7673 325.818 93.9199 325.73L116.62 312.63C116.772 312.542 116.944 312.496 117.12 312.496C117.295 312.496 117.468 312.542 117.62 312.63L140.31 325.73C140.463 325.818 140.589 325.945 140.677 326.098C140.765 326.251 140.811 326.424 140.81 326.6V352.8C140.809 352.975 140.762 353.146 140.674 353.297C140.587 353.448 140.461 353.573 140.31 353.66L117.62 366.76C117.469 366.85 117.296 366.898 117.12 366.9ZM95.4199 352.22L117.12 364.74L138.81 352.22V327.17L117.12 314.65L95.4199 327.17V352.22Z" fill="#EBEBEB"/>
<path d="M117.119 314.49C116.854 314.49 116.6 314.385 116.412 314.197C116.224 314.01 116.119 313.755 116.119 313.49V298C116.119 297.735 116.224 297.48 116.412 297.293C116.6 297.105 116.854 297 117.119 297C117.384 297 117.639 297.105 117.826 297.293C118.014 297.48 118.119 297.735 118.119 298V313.54C118.106 313.796 117.995 314.038 117.809 314.215C117.623 314.392 117.376 314.49 117.119 314.49Z" fill="#EBEBEB"/>
<path d="M139.81 327.601C139.587 327.602 139.37 327.528 139.193 327.392C139.017 327.255 138.891 327.064 138.836 326.848C138.781 326.632 138.799 326.403 138.889 326.199C138.978 325.995 139.133 325.826 139.33 325.721L152.53 318.49C152.761 318.365 153.032 318.335 153.285 318.408C153.537 318.481 153.751 318.651 153.88 318.881C153.943 318.995 153.984 319.122 153.999 319.252C154.014 319.383 154.003 319.515 153.967 319.641C153.93 319.768 153.87 319.886 153.788 319.988C153.706 320.091 153.605 320.177 153.49 320.24L140.29 327.471C140.143 327.554 139.978 327.598 139.81 327.601Z" fill="#EBEBEB"/>
<path d="M53.1699 350.859C52.9047 350.859 52.6504 350.754 52.4628 350.566C52.2753 350.379 52.1699 350.125 52.1699 349.859V329.859C52.1699 329.594 52.2753 329.34 52.4628 329.152C52.6504 328.965 52.9047 328.859 53.1699 328.859C53.4351 328.859 53.6895 328.965 53.877 329.152C54.0646 329.34 54.1699 329.594 54.1699 329.859V349.859C54.1699 350.125 54.0646 350.379 53.877 350.566C53.6895 350.754 53.4351 350.859 53.1699 350.859Z" fill="#EBEBEB"/>
<path d="M100 350.859C99.7348 350.859 99.4804 350.754 99.2929 350.566C99.1054 350.379 99 350.125 99 349.859V329.859C99 329.594 99.1054 329.34 99.2929 329.152C99.4804 328.965 99.7348 328.859 100 328.859C100.265 328.859 100.52 328.965 100.707 329.152C100.895 329.34 101 329.594 101 329.859V349.859C101 350.125 100.895 350.379 100.707 350.566C100.52 350.754 100.265 350.859 100 350.859Z" fill="#EBEBEB"/>
<path d="M89.7997 329.78C89.6245 329.781 89.4521 329.736 89.2997 329.65L71.9997 319.59C71.782 319.452 71.6262 319.235 71.5648 318.984C71.5035 318.734 71.5413 318.469 71.6704 318.246C71.7994 318.022 72.0098 317.858 72.2575 317.786C72.5052 317.714 72.7711 317.74 72.9997 317.86L90.2897 327.92C90.4034 327.986 90.503 328.074 90.5827 328.179C90.6624 328.284 90.7206 328.403 90.754 328.53C90.7875 328.658 90.7955 328.79 90.7776 328.921C90.7597 329.051 90.7162 329.176 90.6497 329.29C90.562 329.438 90.4378 329.561 90.2889 329.646C90.14 329.732 89.9715 329.778 89.7997 329.78Z" fill="#EBEBEB"/>
<path d="M134.88 329.78C134.704 329.781 134.532 329.736 134.38 329.65L117.089 319.59C116.872 319.452 116.716 319.235 116.655 318.984C116.593 318.734 116.631 318.469 116.76 318.246C116.889 318.022 117.1 317.858 117.347 317.786C117.595 317.714 117.861 317.74 118.089 317.86L135.38 327.92C135.493 327.986 135.593 328.074 135.673 328.179C135.752 328.284 135.81 328.403 135.844 328.53C135.877 328.658 135.885 328.79 135.867 328.921C135.85 329.051 135.806 329.176 135.74 329.29C135.651 329.439 135.525 329.563 135.374 329.649C135.224 329.735 135.053 329.78 134.88 329.78Z" fill="#EBEBEB"/>
<path d="M390.809 247.361C390.633 247.359 390.461 247.311 390.309 247.221L367.619 234.121C367.468 234.034 367.342 233.908 367.255 233.758C367.167 233.607 367.12 233.436 367.119 233.261V207.061C367.118 206.885 367.164 206.712 367.252 206.559C367.34 206.406 367.467 206.279 367.619 206.191L390.309 193.091C390.461 193.003 390.634 192.957 390.809 192.957C390.985 192.957 391.157 193.003 391.309 193.091L413.999 206.191C414.152 206.279 414.278 206.406 414.366 206.559C414.454 206.712 414.5 206.885 414.499 207.061V233.261C414.498 233.436 414.451 233.607 414.364 233.758C414.276 233.908 414.15 234.034 413.999 234.121L391.309 247.221C391.158 247.311 390.985 247.359 390.809 247.361ZM369.119 232.681L390.809 245.201L412.499 232.681V207.631L390.809 195.111L369.119 207.631V232.681Z" fill="#E55858"/>
<path d="M390.81 195C390.544 195 390.29 194.895 390.102 194.707C389.915 194.52 389.81 194.265 389.81 194V178.41C389.81 178.145 389.915 177.891 390.102 177.703C390.29 177.516 390.544 177.41 390.81 177.41C391.075 177.41 391.329 177.516 391.517 177.703C391.704 177.891 391.81 178.145 391.81 178.41V194C391.81 194.265 391.704 194.52 391.517 194.707C391.329 194.895 391.075 195 390.81 195Z" fill="#08BD80"/>
<path d="M433.92 191.46C433.655 191.46 433.4 191.355 433.213 191.167C433.025 190.98 432.92 190.725 432.92 190.46V174.91C432.92 174.645 433.025 174.391 433.213 174.203C433.4 174.016 433.655 173.91 433.92 173.91C434.185 173.91 434.439 174.016 434.627 174.203C434.815 174.391 434.92 174.645 434.92 174.91V190.46C434.92 190.725 434.815 190.98 434.627 191.167C434.439 191.355 434.185 191.46 433.92 191.46Z" fill="#08BD80"/>
<path d="M413.499 208.061C413.319 208.062 413.143 208.014 412.988 207.922C412.833 207.831 412.706 207.699 412.619 207.541C412.556 207.426 412.516 207.299 412.502 207.168C412.488 207.037 412.5 206.904 412.537 206.778C412.574 206.652 412.636 206.534 412.718 206.431C412.801 206.329 412.904 206.244 413.019 206.181L426.219 198.951C426.334 198.885 426.461 198.843 426.592 198.826C426.724 198.81 426.857 198.819 426.985 198.854C427.112 198.889 427.232 198.948 427.336 199.029C427.441 199.11 427.529 199.211 427.594 199.326C427.66 199.441 427.702 199.568 427.719 199.699C427.736 199.83 427.726 199.964 427.692 200.091C427.657 200.219 427.597 200.339 427.516 200.443C427.435 200.548 427.334 200.635 427.219 200.701L413.999 207.931C413.848 208.02 413.675 208.065 413.499 208.061Z" fill="#08BD80"/>
<path d="M454.049 208.061C453.88 208.062 453.715 208.017 453.569 207.931L440.369 200.701C440.254 200.635 440.153 200.548 440.072 200.443C439.991 200.339 439.932 200.219 439.897 200.091C439.862 199.964 439.853 199.83 439.869 199.699C439.886 199.568 439.928 199.441 439.994 199.326C440.06 199.211 440.147 199.11 440.252 199.029C440.357 198.948 440.476 198.889 440.604 198.854C440.732 198.819 440.865 198.81 440.996 198.826C441.127 198.843 441.254 198.885 441.369 198.951L454.569 206.181C454.685 206.244 454.787 206.329 454.87 206.431C454.953 206.534 455.015 206.652 455.052 206.778C455.089 206.904 455.101 207.037 455.087 207.168C455.072 207.299 455.032 207.426 454.969 207.541C454.88 207.705 454.746 207.841 454.583 207.933C454.421 208.025 454.236 208.069 454.049 208.061Z" fill="#08BD80"/>
<path d="M409.17 231.32C408.905 231.32 408.65 231.215 408.463 231.027C408.275 230.84 408.17 230.586 408.17 230.32V210.32C408.17 210.055 408.275 209.801 408.463 209.613C408.65 209.426 408.905 209.32 409.17 209.32C409.435 209.32 409.689 209.426 409.877 209.613C410.065 209.801 410.17 210.055 410.17 210.32V230.32C410.17 230.586 410.065 230.84 409.877 231.027C409.689 231.215 409.435 231.32 409.17 231.32Z" fill="#08BD80"/>
<path d="M373.169 210.24C372.996 210.24 372.825 210.195 372.674 210.109C372.523 210.023 372.398 209.899 372.309 209.75C372.243 209.637 372.199 209.511 372.181 209.381C372.163 209.25 372.171 209.118 372.205 208.99C372.238 208.863 372.296 208.744 372.376 208.639C372.456 208.534 372.555 208.446 372.669 208.38L389.999 198.32C390.113 198.248 390.24 198.199 390.373 198.177C390.506 198.155 390.642 198.161 390.773 198.193C390.904 198.225 391.028 198.283 391.136 198.364C391.243 198.445 391.334 198.547 391.401 198.664C391.469 198.78 391.512 198.91 391.528 199.043C391.545 199.177 391.534 199.313 391.496 199.443C391.458 199.572 391.395 199.693 391.31 199.797C391.224 199.902 391.119 199.988 390.999 200.05L373.709 210.11C373.545 210.204 373.358 210.249 373.169 210.24Z" fill="#EBEBEB"/>
<path d="M269.74 137C269.564 136.998 269.391 136.95 269.24 136.86L246.55 123.76C246.399 123.673 246.273 123.547 246.185 123.396C246.098 123.246 246.051 123.074 246.05 122.9V96.6899C246.049 96.5137 246.095 96.3404 246.183 96.1877C246.271 96.0349 246.397 95.908 246.55 95.8199L269.24 82.7199C269.392 82.6321 269.564 82.5859 269.74 82.5859C269.915 82.5859 270.088 82.6321 270.24 82.7199L292.93 95.8199C293.082 95.908 293.209 96.0349 293.297 96.1877C293.385 96.3404 293.431 96.5137 293.43 96.6899V122.89C293.429 123.064 293.382 123.236 293.294 123.386C293.207 123.537 293.081 123.663 292.93 123.75L270.24 136.85C270.089 136.943 269.917 136.995 269.74 137ZM248.05 122.32L269.74 134.84L291.43 122.32V97.3199L269.74 84.7399L248.05 97.2599V122.32Z" fill="#EBEBEB"/>
<path d="M292.43 97.6901C292.207 97.6912 291.99 97.6177 291.813 97.4814C291.637 97.345 291.511 97.1535 291.456 96.9374C291.401 96.7214 291.419 96.493 291.509 96.2887C291.598 96.0845 291.754 95.916 291.95 95.81L305.15 88.5801C305.382 88.4474 305.657 88.4125 305.915 88.4828C306.173 88.5531 306.392 88.723 306.525 88.9551C306.657 89.1871 306.692 89.4623 306.622 89.7202C306.552 89.9781 306.382 90.1974 306.15 90.3301L292.95 97.56C292.793 97.6529 292.612 97.6981 292.43 97.6901Z" fill="#EBEBEB"/>
<path d="M252.1 121C251.834 121 251.58 120.895 251.393 120.707C251.205 120.52 251.1 120.265 251.1 120V100C251.1 99.7348 251.205 99.4804 251.393 99.2929C251.58 99.1054 251.834 99 252.1 99C252.365 99 252.619 99.1054 252.807 99.2929C252.994 99.4804 253.1 99.7348 253.1 100V120C253.1 120.265 252.994 120.52 252.807 120.707C252.619 120.895 252.365 121 252.1 121Z" fill="#EF6856"/>
<path d="M287.999 99.871C287.821 99.874 287.644 99.8291 287.489 99.741L270.219 89.681C270.1 89.6185 269.994 89.5324 269.909 89.4281C269.823 89.3237 269.76 89.2031 269.722 89.0735C269.685 88.944 269.674 88.8082 269.69 88.6743C269.706 88.5405 269.749 88.4112 269.817 88.2945C269.884 88.1777 269.975 88.0758 270.083 87.9949C270.191 87.914 270.314 87.8557 270.445 87.8236C270.576 87.7915 270.712 87.7863 270.845 87.8082C270.978 87.8301 271.105 87.8786 271.219 87.951L288.509 98.001C288.623 98.0672 288.722 98.1551 288.802 98.2599C288.882 98.3646 288.94 98.484 288.973 98.6113C289.007 98.7385 289.015 98.8712 288.997 99.0015C288.979 99.1319 288.936 99.2575 288.869 99.371C288.781 99.5236 288.654 99.6502 288.501 99.738C288.349 99.8258 288.175 99.8717 287.999 99.871Z" fill="#EF6856"/>
<path d="M270.72 132C270.498 132.002 270.283 131.93 270.107 131.796C269.931 131.661 269.804 131.472 269.747 131.259C269.69 131.045 269.705 130.818 269.791 130.614C269.876 130.409 270.027 130.239 270.22 130.13L287.5 120.07C287.614 120.004 287.74 119.961 287.871 119.944C288.002 119.927 288.135 119.936 288.262 119.97C288.389 120.005 288.509 120.064 288.613 120.144C288.717 120.225 288.805 120.326 288.87 120.44C289.001 120.669 289.037 120.94 288.969 121.194C288.902 121.449 288.737 121.667 288.51 121.8L271.22 131.9C271.065 131.976 270.892 132.011 270.72 132Z" fill="#EF6856"/>
<path d="M349 336.23C348.511 332.91 347.843 329.618 347 326.37C349.543 325.786 352.04 325.014 354.47 324.06C355 323.835 355.419 323.408 355.635 322.873C355.851 322.339 355.845 321.74 355.62 321.21C355.394 320.68 354.967 320.26 354.433 320.045C353.898 319.829 353.3 319.835 352.77 320.06C350.534 320.938 348.234 321.64 345.89 322.16C345.04 319.16 344 315.94 342.7 312.55C336.29 295.84 326.87 284.16 315.44 278.78C305.04 273.88 293.13 275.14 281.36 277.08C280.83 272.85 280.47 268.6 280.1 264.48C279.18 253.83 278.34 244.23 275.25 237.48C274.167 234.937 272.49 232.691 270.36 230.93C268.381 229.355 266.176 228.088 263.82 227.17C263.683 227.108 263.543 227.054 263.4 227.01H263.31C255.45 224.08 246.36 224.72 237.37 225.66C237.44 225.46 237.52 225.27 237.59 225.07C244.71 206.61 252.06 187.51 236.54 172.3C229.79 165.68 221.05 162.3 209.82 161.95C202.57 161.883 195.332 162.53 188.21 163.88C193.21 144.75 197.97 125.03 180.4 107.17C168.59 95.1699 146.24 93.9099 113.97 103.45C111.87 104.07 109.78 104.72 107.74 105.39C107.84 103.82 107.95 102.26 108.06 100.71C109.53 79.7799 110.81 61.7099 100.06 54.7599C99.8225 54.5832 99.5515 54.4571 99.2637 54.3894C98.9758 54.3217 98.677 54.3138 98.386 54.3663C98.0949 54.4187 97.8177 54.5304 97.5716 54.6944C97.3255 54.8583 97.1156 55.0711 96.9551 55.3194C96.7945 55.5678 96.6867 55.8465 96.6383 56.1383C96.5898 56.43 96.6018 56.7286 96.6735 57.0155C96.7452 57.3025 96.875 57.5716 97.0549 57.8063C97.2349 58.041 97.4611 58.2363 97.7196 58.3799C106.28 63.9399 105.03 81.6499 103.72 100.38C103.57 102.51 103.42 104.68 103.28 106.85C91.7671 110.863 80.5154 115.589 69.5896 121C69.3375 121.131 69.1137 121.311 68.931 121.529C68.7483 121.747 68.6103 121.998 68.5249 122.269C68.4394 122.541 68.4082 122.826 68.4331 123.109C68.4579 123.392 68.5383 123.668 68.6696 123.92C68.8009 124.172 68.9806 124.396 69.1985 124.579C69.4163 124.761 69.6679 124.899 69.9391 124.985C70.2102 125.07 70.4955 125.101 70.7787 125.076C71.0619 125.052 71.3375 124.971 71.5896 124.84C81.7878 119.799 92.2763 115.368 103 111.57C101.79 134 102.85 156.78 120.71 167.15H120.79C138.42 177.29 159.22 173.46 179.34 169.76L182.26 169.22C178.05 185.87 175.26 202.83 188.57 218.34C200.57 232.34 216.26 232.03 230.78 230.61C225.21 245.83 221.45 261.12 232.15 274.11C234.69 277.264 237.91 279.804 241.57 281.54C251.99 286.45 264.8 284.24 277.3 282.09L277.63 282.03C279.79 296.32 284.19 309.92 296.11 317.79C305.461 323.979 316.309 327.531 327.51 328.07H327.57H327.99C330.639 328.192 333.294 328.155 335.94 327.96C338.38 327.78 340.65 327.49 342.68 327.14C343.489 330.285 344.137 333.469 344.62 336.68C344.666 337.038 344.802 337.379 345.016 337.671C345.229 337.963 345.512 338.197 345.84 338.35C346.212 338.53 346.63 338.596 347.04 338.54C347.32 338.517 347.593 338.439 347.844 338.311C348.094 338.183 348.317 338.006 348.499 337.791C348.681 337.577 348.819 337.329 348.905 337.061C348.991 336.793 349.023 336.51 349 336.23ZM107.44 110.06C123.37 104.72 141.86 100.31 156.81 101.71L110.16 147C106.58 136.42 106.68 123.14 107.44 110.06ZM121.68 162.66C117.43 159.842 114.048 155.899 111.91 151.27L162.18 102.51C168.18 103.76 173.39 106.2 177.32 110.2C178.02 110.91 178.68 111.63 179.32 112.34L121.68 162.66ZM142.75 169.2C136.842 168.844 131.055 167.378 125.69 164.88L182 115.74C184.716 119.565 186.634 123.898 187.64 128.48C187.226 128.546 186.841 128.73 186.53 129.01L143.34 168.38C143.079 168.601 142.877 168.883 142.75 169.2ZM178.65 165.59C168.6 167.44 158.38 169.32 148.6 169.39L188.33 133.19C189.22 143.05 186.52 153.32 183.74 163.93L183.54 164.7L178.65 165.59ZM183.55 197.3C182.28 188.08 184.43 178.43 187.01 168.46C199.52 166.3 211.36 164.95 221.35 168.12L183.55 197.3ZM190.43 213.74C187.722 210.244 185.715 206.257 184.52 202C184.606 201.956 184.686 201.902 184.76 201.84L225.76 170.19L226 170C228.787 171.393 231.338 173.216 233.56 175.4C234.526 176.335 235.425 177.338 236.25 178.4L190.43 213.74ZM203.03 221.74C202.741 221.943 202.508 222.215 202.351 222.531C202.194 222.847 202.118 223.197 202.13 223.55C198.786 221.935 195.767 219.722 193.22 217.02L238.55 182.02C240.532 185.863 241.506 190.147 241.38 194.47L203.03 221.74ZM205.82 225.04L240.88 200.12C239.72 207.56 236.68 215.44 233.58 223.52C233.23 224.4 232.9 225.29 232.58 226.17C223.42 227.13 214.18 227.84 205.82 225.05V225.04ZM229.89 258C228.97 249.41 231.97 240 235.64 230.22C243.91 229.34 251.85 228.52 258.72 230.15L229.89 258ZM235.56 271.47C233.467 268.965 231.887 266.074 230.91 262.96C231.013 262.888 231.11 262.808 231.2 262.72L263.32 231.72C264.886 232.432 266.36 233.332 267.71 234.4C268.949 235.434 269.97 236.705 270.71 238.14L238.32 274.3C237.325 273.421 236.402 272.465 235.56 271.44V271.47ZM274.28 251.88L256.88 280.29C251.38 280.29 246.29 279.42 241.88 276.86L272.58 242.55C273.45 245.526 274.088 248.565 274.49 251.64C274.41 251.7 274.34 251.771 274.28 251.85V251.88ZM276.65 277.94C271.65 278.8 266.76 279.65 262.08 280.05L275.26 258.53C275.47 260.62 275.66 262.76 275.84 264.91C276.22 269.15 276.59 273.51 277.13 277.85L276.65 277.94ZM281.97 281.41C287.19 280.457 292.475 279.902 297.78 279.75L293.2 309.7C286.56 302.45 283.61 292.17 282 281.38L281.97 281.41ZM298.58 314.29C298.01 313.92 297.46 313.52 296.93 313.11C297.037 312.9 297.108 312.673 297.14 312.44L302.14 279.88C304.616 280.06 307.069 280.489 309.46 281.16L307.39 319.1C304.319 317.743 301.372 316.123 298.58 314.26V314.29ZM311.42 320.71C311.553 320.442 311.631 320.149 311.65 319.85L313.65 282.76C316.506 284.118 319.169 285.85 321.57 287.91C321.545 288.082 321.545 288.258 321.57 288.43L325.52 323.74C320.71 323.314 315.973 322.286 311.42 320.68V320.71ZM335.56 323.81C333.65 323.94 331.76 323.99 329.9 323.96L326.4 292.69C334.29 301.78 338.99 313.86 341.65 323.08C339.79 323.36 337.74 323.62 335.56 323.78V323.81Z" fill="#EBEBEB"/>
<path d="M288.71 282.719C288.41 282.719 288.11 282.719 287.8 282.719C288.102 282.679 288.408 282.679 288.71 282.719Z" fill="#EBEBEB"/>
<path d="M140.009 107.971C146.991 84.6831 133.773 60.1448 110.485 53.1627C87.1978 46.1806 62.6595 59.3986 55.6774 82.686C48.6953 105.973 61.9133 130.512 85.2007 137.494C108.488 144.476 133.026 131.258 140.009 107.971Z" fill="#EBEBEB"/>
<path d="M115.761 135.161C137.23 126.377 147.514 101.853 138.731 80.3846C129.948 58.9158 105.424 48.632 83.9547 57.4151C62.4859 66.1982 52.2022 90.7223 60.9853 112.191C69.7684 133.66 94.2924 143.944 115.761 135.161Z" fill="#DBDBDB"/>
<path d="M106.098 135.148C127.556 131.703 142.158 111.516 138.714 90.0581C135.269 68.6004 115.082 53.998 93.624 57.4426C72.1664 60.8873 57.5639 81.0746 61.0086 102.532C64.4532 123.99 84.6405 138.592 106.098 135.148Z" fill="white"/>
<path opacity="0.5" d="M138.309 88.0007C120.399 98.8107 90.9995 116.621 74.4895 126.381C69.8342 122.456 66.1513 117.507 63.7295 111.921L118.169 61.4707C123.261 64.1521 127.704 67.9172 131.183 72.5009C134.663 77.0846 137.095 82.3754 138.309 88.0007Z" fill="#EBEBEB"/>
<path opacity="0.5" d="M139.18 97.6797C139.036 102.055 138.157 106.376 136.58 110.46L87.4998 133.67C85.3593 132.962 83.2848 132.068 81.2998 131C96.1298 122.44 123.22 106.85 139.18 97.6797Z" fill="#EBEBEB"/>
<path d="M100.239 59.8105H99.4795V65.7705H100.239V59.8105Z" fill="#C7C7C7"/>
<path d="M81.9355 64.5067L81.2773 64.8867L84.2573 70.0482L84.9155 69.6682L81.9355 64.5067Z" fill="#C7C7C7"/>
<path d="M68.4425 77.7129L68.0625 78.3711L73.224 81.3511L73.604 80.6929L68.4425 77.7129Z" fill="#C7C7C7"/>
<path d="M69.3194 95.9199H63.3594V96.6799H69.3194V95.9199Z" fill="#C7C7C7"/>
<path d="M73.2211 111.249L68.0596 114.229L68.4396 114.887L73.6011 111.907L73.2211 111.249Z" fill="#C7C7C7"/>
<path d="M84.2528 122.547L81.2764 127.711L81.9348 128.09L84.9112 122.927L84.2528 122.547Z" fill="#C7C7C7"/>
<path d="M100.239 126.83H99.4795V132.79H100.239V126.83Z" fill="#C7C7C7"/>
<path d="M115.446 122.556L114.788 122.936L117.768 128.097L118.426 127.717L115.446 122.556Z" fill="#C7C7C7"/>
<path d="M126.483 111.223L126.103 111.881L131.264 114.861L131.644 114.203L126.483 111.223Z" fill="#C7C7C7"/>
<path d="M136.35 95.9199H130.39V96.6799H136.35V95.9199Z" fill="#C7C7C7"/>
<path d="M131.269 77.7329L126.107 80.7129L126.487 81.3711L131.649 78.3911L131.269 77.7329Z" fill="#C7C7C7"/>
<path d="M117.765 64.501L114.788 69.6641L115.446 70.0437L118.424 64.8806L117.765 64.501Z" fill="#C7C7C7"/>
<path d="M100.429 62.51L101.719 98.96L97.9893 98.91L99.4193 62.5L100.429 62.51Z" fill="#C7C7C7"/>
<path d="M123.129 83.5912L98.6091 99.2412L96.8291 95.9612L122.649 82.7012L123.129 83.5912Z" fill="#A6A6A6"/>
<path d="M101.129 96.3C101.125 96.5527 101.047 96.7986 100.903 97.0067C100.76 97.2147 100.558 97.3756 100.323 97.4691C100.088 97.5627 99.831 97.5846 99.5837 97.5321C99.3365 97.4797 99.1103 97.3552 98.9337 97.1745C98.7571 96.9937 98.638 96.7647 98.5913 96.5163C98.5447 96.2679 98.5726 96.0113 98.6716 95.7787C98.7705 95.5462 98.9361 95.3482 99.1475 95.2096C99.3588 95.071 99.6065 94.9981 99.8592 95C100.029 95 100.196 95.0338 100.352 95.0995C100.508 95.1652 100.65 95.2614 100.768 95.3826C100.886 95.5037 100.979 95.6472 101.041 95.8048C101.103 95.9624 101.133 96.1308 101.129 96.3Z" fill="#C7C7C7"/>
<path d="M44.3604 407.76L95.7703 407.51L147.18 407.43L250 407.26L352.82 407.43L404.23 407.51L455.64 407.76L404.23 408L352.82 408.09L250 408.26L147.18 408.09L95.7703 408L44.3604 407.76Z" fill="#263238"/>
<path d="M250 449.969C344.038 449.969 420.27 442.837 420.27 434.039C420.27 425.242 344.038 418.109 250 418.109C155.963 418.109 79.7305 425.242 79.7305 434.039C79.7305 442.837 155.963 449.969 250 449.969Z" fill="#EBEBEB"/>
<path opacity="0.5" d="M345.57 150.899C345.57 150.899 358.57 139.079 354.13 130.409C347.88 118.319 321.79 127.649 316.3 106.779C312.16 90.9995 325.36 78.2495 315.38 65.9995C308.68 57.7295 279.08 59.9995 279.08 59.9995C298.15 45.1095 325.86 38.9995 342.44 52.7995C357.34 65.1595 350.61 83.9895 357.06 93.3695C366.21 106.669 387.2 107.109 386.83 124.629C386.4 144.929 359.99 149.839 358.17 152.409L345.57 150.899Z" fill="#F47458"/>
<path d="M388.51 129.139L384.74 129.839L383.89 133.819L383.05 129.839L379.27 129.139L383.03 128.219L383.89 124.449L384.75 128.219L388.51 129.139Z" fill="white"/>
<path d="M342.7 103.53L338.92 104.23L338.08 108.21L337.24 104.23L333.46 103.53L337.22 102.61L338.08 98.8496L338.94 102.61L342.7 103.53Z" fill="white"/>
<path d="M351.39 91.5204L349.28 91.9104L348.8 94.1404L348.33 91.9104L346.22 91.5204L348.32 91.0004L348.8 88.9004L349.29 91.0004L351.39 91.5204Z" fill="white"/>
<path d="M321.52 81.3602L319.41 81.7502L318.94 83.9702L318.46 81.7502L316.35 81.3602L318.45 80.8402L318.94 78.7402L319.42 80.8402L321.52 81.3602Z" fill="white"/>
<path d="M365.59 143.169L363.48 143.559L363 145.789L362.53 143.559L360.42 143.169L362.52 142.659L363 140.549L363.49 142.659L365.59 143.169Z" fill="white"/>
<path d="M337.44 47.9186L335.33 48.3086L334.85 50.5386L334.38 48.3086L332.27 47.9186L334.37 47.4086L334.85 45.3086L335.33 47.4086L337.44 47.9186Z" fill="white"/>
<path d="M375.36 120.139C375.21 120.158 375.073 120.231 374.973 120.344C374.873 120.457 374.818 120.603 374.818 120.754C374.818 120.904 374.873 121.05 374.973 121.163C375.073 121.277 375.21 121.35 375.36 121.369C375.509 121.35 375.647 121.277 375.747 121.163C375.846 121.05 375.901 120.904 375.901 120.754C375.901 120.603 375.846 120.457 375.747 120.344C375.647 120.231 375.509 120.158 375.36 120.139Z" fill="white"/>
<path d="M304.249 47.3086C304.1 47.3277 303.962 47.4007 303.863 47.5139C303.763 47.6271 303.708 47.7728 303.708 47.9236C303.708 48.0744 303.763 48.2201 303.863 48.3333C303.962 48.4465 304.1 48.5195 304.249 48.5386C304.399 48.5195 304.537 48.4465 304.636 48.3333C304.736 48.2201 304.791 48.0744 304.791 47.9236C304.791 47.7728 304.736 47.6271 304.636 47.5139C304.537 47.4007 304.399 47.3277 304.249 47.3086Z" fill="white"/>
<path d="M323.23 66.2285C323.068 66.2285 322.913 66.2928 322.799 66.4072C322.684 66.5216 322.62 66.6767 322.62 66.8385C322.62 67.0003 322.684 67.1554 322.799 67.2698C322.913 67.3842 323.068 67.4485 323.23 67.4485C323.392 67.4485 323.547 67.3842 323.661 67.2698C323.776 67.1554 323.84 67.0003 323.84 66.8385C323.84 66.6767 323.776 66.5216 323.661 66.4072C323.547 66.2928 323.392 66.2285 323.23 66.2285Z" fill="white"/>
<path d="M292.75 55C292.636 55 292.527 55.0453 292.446 55.1259C292.366 55.2066 292.32 55.316 292.32 55.43C292.32 55.544 292.366 55.6534 292.446 55.7341C292.527 55.8147 292.636 55.86 292.75 55.86C292.864 55.86 292.974 55.8147 293.054 55.7341C293.135 55.6534 293.18 55.544 293.18 55.43C293.18 55.316 293.135 55.2066 293.054 55.1259C292.974 55.0453 292.864 55 292.75 55Z" fill="white"/>
<path d="M351.5 116.68C351.396 116.696 351.301 116.748 351.232 116.828C351.164 116.908 351.126 117.009 351.126 117.115C351.126 117.22 351.164 117.322 351.232 117.401C351.301 117.481 351.396 117.534 351.5 117.55C351.604 117.534 351.699 117.481 351.767 117.401C351.836 117.322 351.874 117.22 351.874 117.115C351.874 117.009 351.836 116.908 351.767 116.828C351.699 116.748 351.604 116.696 351.5 116.68Z" fill="white"/>
<path d="M318.119 103.1C318.005 103.1 317.896 103.145 317.815 103.226C317.735 103.306 317.689 103.416 317.689 103.53C317.689 103.644 317.735 103.753 317.815 103.834C317.896 103.914 318.005 103.96 318.119 103.96C318.233 103.96 318.343 103.914 318.423 103.834C318.504 103.753 318.549 103.644 318.549 103.53C318.549 103.416 318.504 103.306 318.423 103.226C318.343 103.145 318.233 103.1 318.119 103.1Z" fill="white"/>
<path d="M377.65 110.869C377.357 110.896 377.084 111.032 376.886 111.249C376.688 111.466 376.578 111.75 376.578 112.044C376.578 112.338 376.688 112.622 376.886 112.839C377.084 113.057 377.357 113.192 377.65 113.219C377.943 113.192 378.215 113.057 378.413 112.839C378.611 112.622 378.721 112.338 378.721 112.044C378.721 111.75 378.611 111.466 378.413 111.249C378.215 111.032 377.943 110.896 377.65 110.869Z" fill="white"/>
<path d="M329.52 109.699C329.227 109.726 328.955 109.862 328.756 110.079C328.558 110.296 328.448 110.58 328.448 110.874C328.448 111.168 328.558 111.452 328.756 111.669C328.955 111.887 329.227 112.022 329.52 112.049C329.813 112.022 330.085 111.887 330.283 111.669C330.481 111.452 330.591 111.168 330.591 110.874C330.591 110.58 330.481 110.296 330.283 110.079C330.085 109.862 329.813 109.726 329.52 109.699Z" fill="white"/>
<path d="M191.34 274.2C196.419 277.402 201.831 280.045 207.48 282.08C198.38 269.74 198.48 240.83 199.69 244.89C205.52 264.31 220.42 285.16 225.79 285.95C225.79 285.95 225.85 285.95 225.88 285.95C240.25 286.88 253.08 282.82 263.71 276.95C263.718 276.93 263.718 276.909 263.71 276.89C252 263 251.24 233.63 252.06 235.38C260.97 254.11 278.19 264.45 281.06 264.28C291.42 254.66 296.73 245.28 295.16 244.47C283.73 238.33 273.52 221.55 264.16 203.73C254.94 186.17 248.79 159.61 236.16 144.15C224.65 130 202.77 128.31 190.77 136.43C159.39 157.73 184.24 269.78 191.34 274.2Z" fill="#263238"/>
<path d="M193 135.1C190.33 136.458 187.968 138.35 186.06 140.66C184.175 142.861 182.501 145.235 181.06 147.75C178.38 152.722 176.283 157.987 174.81 163.44C171.78 174.2 172.1 195 172.31 206C172.72 217.012 174.19 227.959 176.7 238.69C177.28 241.38 178.05 244.03 178.7 246.69L181 254.64L183.63 262.49L186.53 270.26L184.17 262.35L182 254.35L180 246.35C179.43 243.67 178.76 241.02 178.27 238.35C176.021 227.661 174.713 216.796 174.36 205.88C173.96 195 173.7 174.38 176.36 163.69C177.652 158.299 179.544 153.069 182 148.1C183.279 145.572 184.796 143.171 186.53 140.93C187.433 139.798 188.415 138.732 189.47 137.74C190.519 136.7 191.707 135.812 193 135.1Z" fill="#263238"/>
<path d="M296.389 241.419C292.863 237.933 289.525 234.261 286.389 230.419C283.219 226.649 280.219 222.779 277.439 218.779C274.659 214.779 272.009 210.719 269.659 206.519C267.309 202.319 265.119 197.999 262.839 193.739C258.169 185.249 252.359 167.079 247.129 158.829C244.489 154.719 241.759 150.649 238.729 146.749C237.188 144.792 235.539 142.922 233.789 141.149C232.056 139.258 229.953 137.743 227.609 136.699C229.817 137.906 231.772 139.526 233.369 141.469C234.985 143.309 236.491 145.242 237.879 147.259C240.709 151.259 243.269 155.349 245.719 159.519C250.639 167.869 256.449 185.999 260.959 194.519C263.309 198.759 265.539 203.029 267.959 207.259C270.409 211.514 273.121 215.612 276.079 219.529C282.036 227.541 288.846 234.881 296.389 241.419Z" fill="#263238"/>
<path d="M214.41 239.419C233.84 257.939 269.9 285.659 284.86 289.969C301.49 294.759 334.57 254.479 356.31 229.849C360.63 224.949 324.7 189.019 320.31 194.479C309 208.759 286.22 240.999 282.12 241.169C278.76 241.339 246.65 229.769 228.6 223.029C199.87 212.309 200.74 226.379 214.41 239.419Z" fill="#D3766A"/>
<path d="M310.9 205.238C311.214 204.829 311.469 204.495 311.658 204.249L346.827 246.188C346.777 246.244 346.72 246.307 346.656 246.377C346.354 246.71 345.908 247.2 345.335 247.824C344.188 249.072 342.531 250.854 340.491 252.995C336.41 257.276 330.799 262.984 324.676 268.697C318.551 274.412 311.923 280.123 305.808 284.413C302.75 286.558 299.831 288.341 297.174 289.591C294.51 290.845 292.148 291.547 290.194 291.569C288.221 291.592 285.783 291.063 282.977 290.061C280.178 289.062 277.041 287.603 273.681 285.792C266.959 282.17 259.375 277.159 251.845 271.659C236.781 260.658 221.986 247.738 214.823 240.156C211.249 236.373 208.7 232.86 207.215 229.838C205.722 226.798 205.35 224.344 205.969 222.619C206.568 220.95 208.166 219.796 211.067 219.496C213.978 219.196 218.103 219.777 223.528 221.506C228.105 222.964 233.214 224.62 238.458 226.32C245.695 228.666 253.186 231.094 259.882 233.199C265.658 235.014 270.854 236.592 274.797 237.672C276.768 238.212 278.433 238.629 279.705 238.89C280.341 239.02 280.886 239.113 281.327 239.161C281.749 239.208 282.134 239.222 282.414 239.156C282.586 239.116 282.758 239.027 282.914 238.93C283.077 238.829 283.255 238.698 283.444 238.545C283.822 238.237 284.274 237.816 284.784 237.305C285.806 236.281 287.091 234.865 288.54 233.194C291.439 229.851 295.017 225.465 298.497 221.105C301.977 216.744 305.362 212.406 307.877 209.159C309.134 207.535 310.174 206.183 310.9 205.238Z" fill="white" stroke="#E4E4E4"/>
<path d="M335 255.82C322.89 236.69 307.26 218.43 304.76 215.05C304.64 214.89 304.4 215.05 304.53 215.25C307.15 218.44 322.75 241.25 334.74 256.05C334.92 256.22 335.16 256 335 255.82Z" fill="#263238"/>
<path d="M304.57 286.05C299.16 289.65 294.12 292.05 290.2 292.05C273.74 292.25 228.83 255.7 214.46 240.49C208.31 233.97 205.12 228.2 205.19 224.25C229 239.15 284.49 273.61 304.57 286.05Z" fill="#E7E7E7"/>
<path d="M344.229 243.629L312.229 205.029C312.689 203.919 315.229 201.289 317.469 197.669C317.469 197.669 322.419 184.779 322.469 172.209C322.469 161.659 321.349 145.979 327.019 145.789C335.299 145.489 339.139 165.129 340.659 176.539C345.659 172.779 350.319 170.009 353.659 169.389C364.659 167.329 380.049 215.159 372.659 223.769C365.449 232.069 350.399 242.889 344.229 243.629Z" fill="#F9B8A4"/>
<g opacity="0.7">
<path d="M376.749 248.171C375.976 254.773 373.373 261.027 369.233 266.227C365.093 271.427 359.581 275.365 353.32 277.597C347.059 279.83 340.299 280.266 333.803 278.859C327.307 277.451 321.334 274.255 316.559 269.631C311.784 265.008 308.397 259.141 306.781 252.693C305.164 246.246 305.383 239.475 307.413 233.146C309.442 226.816 313.201 221.18 318.265 216.875C323.329 212.569 329.496 209.766 336.069 208.781L342.179 156.251L339.319 155.921L339.969 150.301L364.229 153.131L363.579 158.751L360.709 158.421L354.589 211.001C361.85 213.906 367.954 219.119 371.959 225.836C375.963 232.554 377.647 240.402 376.749 248.171Z" fill="white"/>
<path d="M376.749 248.17C375.976 254.771 373.383 261.027 369.259 266.24L368.499 267.24C368.229 267.56 367.939 267.85 367.649 268.15C367.079 268.75 366.529 269.37 365.939 269.94C364.732 271.071 363.453 272.124 362.109 273.09C360.765 274.055 359.362 274.936 357.909 275.73C357.169 276.1 356.409 276.43 355.659 276.78C355.279 276.95 354.909 277.14 354.529 277.29L353.349 277.7C350.231 278.824 346.968 279.498 343.659 279.7L341.179 279.79C340.349 279.79 339.529 279.71 338.699 279.67C337.044 279.555 335.397 279.335 333.769 279.01C327.243 277.595 321.24 274.392 316.429 269.76L315.519 268.9L314.699 267.97C314.159 267.34 313.579 266.74 313.069 266.08C312.057 264.782 311.132 263.42 310.299 262C309.461 260.566 308.716 259.08 308.069 257.55C307.769 256.77 307.509 255.98 307.229 255.2C307.099 254.81 306.949 254.42 306.829 254.02L306.539 252.81C304.883 246.305 305.078 239.466 307.103 233.065C309.128 226.665 312.902 220.958 317.999 216.59C323.126 212.236 329.354 209.381 335.999 208.34L335.619 208.73C336.619 199.97 337.619 191.21 338.619 182.46L341.759 156.21L342.109 156.65L339.249 156.31H338.859V155.92L339.529 150.29V149.92H339.909L364.159 152.82H364.459V153.12L363.789 158.75V159.04H363.499L360.629 158.7L360.939 158.46L354.719 211L354.639 210.86C361.91 213.798 368.013 219.044 372.008 225.792C376.003 232.539 377.669 240.413 376.749 248.2V248.17ZM376.749 248.17C377.633 240.407 375.938 232.568 371.923 225.865C367.909 219.162 361.8 213.966 354.539 211.08H354.439V210.98L360.439 158.43V158.15H360.719L363.599 158.47L363.269 158.73L363.909 153.1L364.179 153.44L339.909 150.68L340.329 150.35L339.689 155.98L339.349 155.54L342.209 155.86L342.609 155.91L342.559 156.31L339.559 182.58C338.559 191.34 337.509 200.09 336.469 208.85V209.18L336.129 209.24C329.638 210.235 323.548 213.004 318.529 217.24C313.504 221.49 309.769 227.062 307.745 233.325C305.722 239.588 305.491 246.293 307.079 252.68L307.359 253.87C307.469 254.27 307.619 254.65 307.749 255.04C308.019 255.81 308.269 256.59 308.559 257.36C309.187 258.874 309.915 260.344 310.739 261.76C311.548 263.187 312.453 264.557 313.449 265.86C313.949 266.51 314.509 267.11 315.039 267.73L315.849 268.66L316.739 269.51C321.47 274.119 327.392 277.318 333.839 278.75C335.45 279.081 337.08 279.308 338.719 279.43C339.539 279.43 340.359 279.57 341.179 279.57L343.649 279.49C346.939 279.287 350.182 278.614 353.279 277.49L354.449 277.09C354.829 276.94 355.199 276.75 355.569 276.59C356.319 276.24 357.079 275.92 357.819 275.59C359.269 274.811 360.668 273.943 362.009 272.99C363.352 272.037 364.631 270.998 365.839 269.88C366.439 269.31 366.989 268.7 367.559 268.11C367.839 267.81 368.139 267.52 368.409 267.21L369.169 266.21C373.324 261.018 375.949 254.771 376.749 248.17Z" fill="#263238"/>
</g>
<path d="M370.39 247.429C369.884 251.752 368.42 255.907 366.105 259.591C363.789 263.276 360.68 266.397 357.005 268.728C353.329 271.058 349.18 272.539 344.86 273.061C340.54 273.584 336.157 273.136 332.032 271.75C327.907 270.363 324.143 268.073 321.016 265.047C317.888 262.021 315.475 258.335 313.954 254.258C312.432 250.181 311.839 245.816 312.219 241.48C312.599 237.145 313.942 232.949 316.15 229.199C321.684 232.322 327.648 234.613 333.85 235.999C346.25 238.799 356.19 232.909 367.29 230.519C369.998 235.716 371.078 241.609 370.39 247.429Z" fill="#E55858"/>
<path d="M312.3 240.66C312.3 240.66 313.82 220.48 335.08 216.09L312.3 240.66Z" fill="white"/>
<path d="M337.339 175.939C336.339 181.659 343.67 179.519 343.67 179.519C343.67 179.519 333.91 185.129 335.2 191.419C336.45 197.469 345.199 194.569 345.799 194.419C345.289 194.729 336.449 200.119 338.399 206.299C340.399 212.719 348.679 208.299 349.209 208.019C348.819 208.459 343.679 214.319 346.209 218.679C350.579 226.169 364.129 211.539 371.149 211.569C371.149 211.569 372.469 223.479 372.579 223.819C372.579 223.819 385.749 210.159 385.249 200.679C385.206 199.293 384.685 197.965 383.773 196.921C382.862 195.876 381.617 195.18 380.249 194.949C380.249 194.949 384.979 191.009 383.599 186.099C382.889 183.579 378.219 182.469 378.219 182.469C378.219 182.469 381.879 179.169 380.379 174.869C379.199 171.439 374.7 170.869 374.7 170.869C374.7 170.869 376.7 166.059 374.39 162.949C369.73 156.609 339.409 163.689 337.339 175.939Z" fill="#F9B8A4"/>
<path d="M374.06 170.62C374.16 170.62 374.16 170.45 374.06 170.45C363.52 170.35 351.91 173.45 343.26 179.59C342.98 179.8 343.18 180.34 343.54 180.18C353.66 175.57 363 172.28 374.06 170.62Z" fill="#263238"/>
<path d="M378.419 182.33C378.539 182.33 378.509 182.11 378.419 182.11C367.559 182.06 354.579 185.93 345.419 194.17C345.099 194.45 345.099 195.02 345.489 194.72C351.999 189.7 368.459 183.77 378.419 182.33Z" fill="#263238"/>
<path d="M348.77 208.769C357.84 201.199 368.42 197.309 379.86 194.859C380.01 194.859 379.94 194.629 379.81 194.619C373.89 194.289 366.76 196.619 361.37 198.879C356.319 200.887 351.884 204.187 348.51 208.449C348.38 208.619 348.58 208.929 348.77 208.769Z" fill="#263238"/>
<path d="M343.48 179.459C343.14 179.699 343.87 179.929 343.54 180.179C342.14 181.239 334.27 188.359 335.86 191.789C337.14 194.539 341.72 194.719 343.51 194.099L348.01 192.549L344.33 195.549C342.682 196.879 341.264 198.47 340.13 200.259C339.559 201.057 339.163 201.967 338.967 202.928C338.77 203.889 338.778 204.881 338.99 205.839C339.205 206.73 339.72 207.52 340.448 208.078C341.176 208.635 342.073 208.925 342.99 208.899C345.031 208.816 347.017 208.214 348.76 207.149L353.67 204.379L349.95 208.589C348.912 209.756 348.031 211.053 347.33 212.449C346.604 213.742 346.277 215.221 346.39 216.699C346.471 217.36 346.735 217.985 347.151 218.505C347.568 219.024 348.122 219.417 348.75 219.639C350.231 219.932 351.765 219.794 353.17 219.239C356.224 218.09 359.183 216.702 362.02 215.089C363.48 214.329 364.95 213.559 366.46 212.859C367.929 212.074 369.548 211.611 371.21 211.499C369.594 211.794 368.05 212.394 366.66 213.269C365.23 214.069 363.83 214.949 362.43 215.819C359.642 217.659 356.69 219.236 353.61 220.529C351.954 221.255 350.122 221.481 348.34 221.179C347.385 220.908 346.531 220.364 345.881 219.615C345.231 218.865 344.813 217.942 344.68 216.959C344.48 215.132 344.829 213.287 345.68 211.659C346.44 210.094 347.402 208.635 348.54 207.319L349.73 208.749C347.689 210.043 345.344 210.781 342.93 210.889C341.591 210.907 340.288 210.462 339.24 209.629C338.24 208.775 337.522 207.639 337.18 206.369C336.905 205.158 336.89 203.902 337.137 202.685C337.383 201.468 337.885 200.317 338.61 199.309C339.888 197.361 341.475 195.635 343.31 194.199L344.13 195.669C341.83 196.379 336.69 196.739 334.13 192.719C331.63 186.999 341.58 180.519 343.48 179.459Z" fill="#263238"/>
<path d="M343.669 179.52C342.478 179.628 341.278 179.554 340.109 179.3C339.639 179.208 339.201 178.993 338.841 178.677C338.481 178.36 338.211 177.954 338.059 177.5C337.869 176.455 337.99 175.376 338.409 174.4C338.799 173.3 339.279 172.16 339.809 171.01C338.765 171.774 337.893 172.748 337.249 173.87C336.471 175.081 336.201 176.551 336.499 177.96C336.747 178.707 337.214 179.362 337.839 179.84C338.453 180.259 339.168 180.504 339.909 180.55C341.24 180.614 342.557 180.253 343.669 179.52Z" fill="#263238"/>
<path d="M165.89 328.39C165.89 328.39 167.31 344.45 169.42 367.69C169.48 368.36 169.54 369.04 169.61 369.69C170.61 381.1 171.82 394.1 173.06 407.69H246.06C240.83 366.78 236.31 331.54 235.92 328.54V328.32L165.89 328.39Z" fill="#37474F"/>
<path d="M176.12 337.59C176.567 343.21 177.037 348.83 177.53 354.45C177.67 356.08 177.83 357.7 177.97 359.32V359.37C179.38 375.5 180.87 391.64 182.53 407.75H183.58C181.8 391.17 180.14 374.58 178.46 357.97C178.28 356.17 178.1 354.38 177.91 352.57C177.41 347.57 176.91 342.63 176.39 337.65C176.36 337.42 176.1 337.42 176.12 337.59Z" fill="#263238"/>
<path d="M148.85 328.389C148.85 328.389 152.18 347.229 156.85 373.619C156.94 374.039 157.01 374.459 157.09 374.909C158.88 384.999 160.85 396.149 162.91 407.739H213.76L214.92 400.089L215.14 398.589L215.2 398.199L216.04 392.579L216.37 390.479L225.8 328.389H148.85Z" fill="#263238"/>
<path d="M129.29 407.76H198.36C198.36 407.46 198.36 407.23 198.36 407.04C198.36 406.85 198.36 406.57 198.36 406.57C198.75 406.36 199.13 406.14 199.52 405.94C203.58 403.73 207.15 402.01 210.08 400.7L211.53 400.05C212.86 399.47 214.05 398.99 215.04 398.6C217.58 397.6 219.04 397.15 219.04 397.15C219.12 396.93 219.2 396.73 219.27 396.52C229.27 371.04 235.27 332.22 235.87 328.61V328.33H137.3C137.3 328.33 133.54 364.85 129.29 407.76Z" fill="#37474F"/>
<path d="M139 407.76H139.92C141.73 384.89 143.41 362.01 145.16 339.14C145.16 338.76 144.61 338.76 144.59 339.14C142.737 362.007 140.873 384.88 139 407.76Z" fill="#263238"/>
<path d="M222.61 395.319C214.246 398.362 206.163 402.127 198.45 406.569C198.15 406.739 198.35 407.209 198.67 407.069C206.81 403.579 215.11 400.229 223.05 396.289C223.179 396.231 223.279 396.124 223.329 395.991C223.379 395.859 223.374 395.713 223.315 395.584C223.257 395.455 223.15 395.355 223.018 395.306C222.885 395.256 222.739 395.261 222.61 395.319Z" fill="#263238"/>
<path d="M225.2 339.469C225.2 339.189 224.68 339.129 224.68 339.469C224.682 348.553 224.228 357.631 223.32 366.669C222.94 370.859 219.57 394.029 212.32 392.339C211.1 392.059 210.48 390.859 210.32 389.019C210.09 386.819 210.92 384.109 211.32 381.919C212.13 377.069 212.78 372.199 213.19 367.299C214.039 358.177 213.942 348.992 212.9 339.889C212.889 339.835 212.86 339.787 212.817 339.752C212.774 339.717 212.721 339.698 212.665 339.698C212.61 339.698 212.557 339.717 212.514 339.752C212.471 339.787 212.442 339.835 212.43 339.889C212.43 352.549 212.11 365.189 210.22 377.729C209.31 383.729 206.27 392.829 212.57 393.729C218.87 394.629 223.15 379.479 223.93 375.319C226 363.729 226.11 351.209 225.2 339.469Z" fill="#263238"/>
<path d="M212.49 392.919C211.844 394.482 211.3 396.085 210.86 397.719C210.389 398.981 210.158 400.321 210.18 401.669C210.18 401.929 210.54 401.949 210.68 401.779C211.432 400.59 212.002 399.296 212.37 397.939C212.92 396.449 213.51 394.939 214.02 393.479C214.067 393.283 214.041 393.077 213.946 392.9C213.851 392.722 213.694 392.586 213.505 392.517C213.316 392.448 213.108 392.45 212.921 392.524C212.734 392.599 212.581 392.739 212.49 392.919Z" fill="#263238"/>
<path d="M179.6 347.05C179.612 346.041 179.508 345.034 179.29 344.05C179.278 344.019 179.258 343.993 179.231 343.974C179.204 343.955 179.172 343.945 179.14 343.945C179.107 343.945 179.075 343.955 179.048 343.974C179.021 343.993 179.001 344.019 178.99 344.05C178.786 344.902 178.672 345.773 178.65 346.65C178.55 347.65 178.42 348.65 178.31 349.65C178.097 351.688 177.742 353.71 177.25 355.7C176.333 359.471 174.415 362.926 171.7 365.7C169.003 368.352 165.813 370.452 162.31 371.88C158.4 373.53 154.31 374.15 150.26 375.34C150.09 375.34 150.14 375.63 150.31 375.63C154.767 375.622 159.182 374.753 163.31 373.07C166.976 371.692 170.314 369.563 173.11 366.82C175.914 363.985 177.889 360.437 178.82 356.56C179.273 354.566 179.534 352.533 179.6 350.49C179.666 349.344 179.666 348.195 179.6 347.05Z" fill="#263238"/>
<path d="M245.05 347.18L236.71 300.77C236.71 300.77 245.5 287.32 244.22 271.43C243.29 259.87 218.22 219.43 216.13 217.43C207.59 209.43 193.19 212.64 187.28 217.11C154.53 241.87 142.09 295 131 347.18H245.05Z" fill="#FF6564"/>
<path d="M205.64 296.459C210.356 296.182 215.085 296.256 219.79 296.679C222.12 296.919 224.43 297.269 226.79 297.679C227.94 297.879 229.09 298.039 230.25 298.189C231.46 298.385 232.689 298.432 233.91 298.329C233.928 298.335 233.943 298.347 233.954 298.362C233.965 298.377 233.97 298.395 233.97 298.414C233.97 298.433 233.965 298.451 233.954 298.466C233.943 298.481 233.928 298.493 233.91 298.499C232.778 298.724 231.632 298.874 230.48 298.949C229.358 298.976 228.236 298.932 227.12 298.819C224.74 298.589 222.38 298.259 220.02 298.009C215.24 297.519 210.46 297.009 205.65 296.869C205.41 296.849 205.41 296.469 205.64 296.459Z" fill="#263238"/>
<path d="M194.75 302.299C198.523 301.312 202.349 300.544 206.21 299.999C208.14 299.729 210.07 299.579 212.02 299.479C212.95 299.429 213.88 299.399 214.81 299.379C215.74 299.359 216.86 299.479 217.89 299.439C217.99 299.439 218.02 299.599 217.89 299.609C216.89 299.669 215.97 299.899 215.01 300.019L212.12 300.369C210.19 300.609 208.26 300.869 206.33 301.089C202.46 301.529 198.62 302.009 194.77 302.589C194.58 302.649 194.55 302.349 194.75 302.299Z" fill="#263238"/>
<path d="M261.921 406.598L262.058 407.22H239.814L229.639 271.682L229.636 271.648L229.629 271.614L218.707 220.879C218.839 221.04 218.979 221.213 219.127 221.4C219.964 222.453 221.056 223.899 222.321 225.648C224.85 229.145 228.064 233.84 231.306 238.985C234.549 244.131 237.816 249.721 240.455 255.011C243.098 260.309 245.094 265.271 245.818 269.171C247.269 276.979 245.403 283.74 243.15 288.672C242.024 291.138 240.804 293.142 239.856 294.588C239.52 295.101 239.221 295.54 238.97 295.908C238.866 296.061 238.77 296.202 238.683 296.331C238.537 296.547 238.413 296.735 238.324 296.885C238.279 296.96 238.238 297.035 238.205 297.105C238.178 297.162 238.134 297.264 238.123 297.379C238.116 297.444 238.123 297.507 238.125 297.523L238.125 297.526C238.129 297.556 238.134 297.59 238.139 297.626C238.151 297.699 238.168 297.796 238.19 297.914C238.233 298.151 238.299 298.487 238.385 298.912C238.558 299.764 238.813 300.987 239.139 302.525C239.791 305.602 240.727 309.949 241.853 315.14C244.104 325.521 247.115 339.281 250.128 353.012C253.141 366.743 256.157 380.447 258.42 390.718C259.551 395.854 260.494 400.131 261.154 403.124L261.921 406.598Z" fill="white" stroke="#E4E4E4"/>
<path d="M220.29 223.41C221.38 226.11 222.5 228.8 223.63 231.48C224.76 234.16 225.87 236.86 227.02 239.53C229.307 244.863 231.64 250.197 234.02 255.53L234.25 254.53C231.72 256.59 226.6 261.32 226.6 261.32L235.68 273.7C235.68 273.7 234.87 311.3 234.58 314.7C235.25 311.34 237.21 273.3 237.21 273.3L228.21 261.03L227.98 262.22C230.46 260.11 232.92 257.99 235.37 255.83L235.86 255.39L235.59 254.81C233.123 249.543 230.62 244.29 228.08 239.05C226.82 236.42 225.52 233.82 224.23 231.21C222.94 228.6 221.63 226 220.29 223.41Z" fill="#DBDBDB"/>
<path d="M196.07 218.21C196.66 220.29 206.07 232.42 215.63 231.51C218.74 231.21 219.1 215.13 219.1 215.13L219.32 213.86L222.41 196L201 183.71L198 182.1C198 182.1 197.47 187.04 196.88 193.19C196.88 193.47 196.82 193.76 196.79 194.07C196.76 194.38 196.71 194.74 196.68 195.07C196.58 195.98 196.48 196.92 196.41 197.86C196.34 198.57 196.28 199.26 196.24 200.01C196.2 200.76 196.14 201.5 196.08 202.25C195.63 209.67 195.83 217.33 196.07 218.21Z" fill="#F9B8A4"/>
<path d="M196.84 193.19C198.862 198.06 201.92 202.433 205.802 206.002C209.684 209.572 214.297 212.253 219.32 213.86L222.41 196L201 183.71L198 182.1C198 182.1 197.43 187 196.84 193.19Z" fill="#F49D82"/>
<path d="M245.77 164.53C252.47 195.59 234.62 203.11 227.92 204.53C221.84 205.84 200.92 209.53 191.09 179.3C181.26 149.07 193.54 136.16 207.29 132.44C221.04 128.72 239.07 133.46 245.77 164.53Z" fill="#F9B8A4"/>
<path d="M239 159.999C238.267 159.989 237.536 159.939 236.81 159.849C236.033 159.907 235.26 159.707 234.61 159.279C234.427 159.106 234.309 158.877 234.272 158.628C234.236 158.38 234.284 158.127 234.41 157.909C234.722 157.524 235.131 157.229 235.595 157.053C236.059 156.878 236.56 156.828 237.05 156.909C238.075 156.912 239.063 157.297 239.82 157.989C239.969 158.158 240.069 158.365 240.107 158.588C240.145 158.811 240.12 159.04 240.035 159.249C239.949 159.458 239.807 159.639 239.624 159.772C239.441 159.904 239.225 159.983 239 159.999Z" fill="#263238"/>
<path d="M218.15 167.999C218.87 167.809 219.51 167.509 220.21 167.249C220.97 167.082 221.655 166.671 222.16 166.079C222.282 165.862 222.33 165.61 222.296 165.362C222.262 165.115 222.147 164.885 221.97 164.709C221.563 164.42 221.086 164.244 220.589 164.2C220.091 164.156 219.591 164.246 219.14 164.459C218.159 164.744 217.32 165.386 216.79 166.259C216.681 166.466 216.633 166.699 216.654 166.932C216.675 167.164 216.762 167.386 216.906 167.57C217.05 167.754 217.244 167.892 217.464 167.968C217.685 168.045 217.923 168.055 218.15 167.999Z" fill="#263238"/>
<path d="M223.48 171.89C223.48 171.82 223.33 172.02 223.34 172.11C223.77 174.23 223.9 176.73 222.09 177.77C222.03 177.77 222.09 177.9 222.09 177.88C224.42 177.16 224.22 173.84 223.48 171.89Z" fill="#263238"/>
<path d="M221.2 170C217.72 170.32 218.6 177.25 221.83 177C225.06 176.75 224.11 169.72 221.2 170Z" fill="#263238"/>
<path d="M219.879 170.52C219.329 170.99 218.819 171.76 218.099 171.93C217.379 172.1 216.539 171.47 215.899 170.85C215.829 170.78 215.779 170.85 215.789 170.94C215.939 172.27 216.619 173.57 218.069 173.58C219.519 173.59 220.179 172.3 220.339 170.93C220.369 170.67 220.109 170.33 219.879 170.52Z" fill="#263238"/>
<path d="M235.43 169.12C235.43 169.04 235.61 169.21 235.61 169.3C235.69 171.47 236.15 173.93 238.15 174.51C238.22 174.51 238.22 174.64 238.15 174.63C235.74 174.46 235.16 171.19 235.43 169.12Z" fill="#263238"/>
<path d="M237.209 166.74C240.659 166.23 241.409 173.18 238.209 173.64C235.009 174.1 234.309 167.16 237.209 166.74Z" fill="#263238"/>
<path d="M238.61 166.999C239.26 167.319 239.93 167.949 240.67 167.939C241.41 167.929 242.08 167.139 242.56 166.379C242.61 166.299 242.68 166.379 242.69 166.449C242.85 167.779 242.49 169.199 241.08 169.549C239.67 169.899 238.74 168.799 238.26 167.489C238.17 167.209 238.35 166.819 238.61 166.999Z" fill="#263238"/>
<path d="M225.829 188.499C226.389 188.959 226.959 189.609 227.749 189.619C228.553 189.537 229.331 189.285 230.029 188.879C230.044 188.873 230.061 188.872 230.076 188.876C230.092 188.879 230.106 188.888 230.117 188.9C230.127 188.911 230.134 188.926 230.137 188.942C230.139 188.958 230.136 188.974 230.129 188.989C229.855 189.436 229.465 189.802 229 190.046C228.536 190.291 228.014 190.406 227.489 190.379C227.039 190.301 226.622 190.091 226.291 189.776C225.96 189.461 225.73 189.055 225.629 188.609C225.589 188.489 225.749 188.429 225.829 188.499Z" fill="#263238"/>
<path d="M233.71 179.499C233.71 179.499 234.6 182.639 234.81 184.149C234.81 184.289 234.48 184.409 233.97 184.509C233.97 184.509 233.97 184.509 233.91 184.509C232.646 184.926 231.292 184.987 229.995 184.686C228.699 184.384 227.51 183.731 226.56 182.799C226.44 182.669 226.61 182.489 226.76 182.559C228.865 183.622 231.258 183.973 233.58 183.559C233.58 183.119 231.87 178.229 232.11 178.179C233.298 178.118 234.489 178.219 235.65 178.479C233.99 171.889 231.28 165.609 229.72 159.019C229.67 158.789 230.01 158.669 230.1 158.869C233.41 165.249 235.48 172.789 237.38 179.549C237.62 180.369 234.35 179.669 233.71 179.499Z" fill="#263238"/>
<path d="M189.31 178.529C194.71 178.949 195.95 167.619 195.95 167.619C195.95 167.619 206.95 167.619 210.54 151.879C210.224 156.592 208.538 161.111 205.69 164.879C205.69 164.879 225.04 162.879 233.18 146.639C233.18 146.639 229.93 154.889 226.89 157.819C226.89 157.819 235 155.559 238.96 148.969C238.96 148.969 242.35 158.309 244.96 160.889C244.96 160.889 244.17 127.039 212.8 130.639C212.8 130.639 193.16 131.939 186.11 147.489C179.06 163.039 189.31 178.529 189.31 178.529Z" fill="#263238"/>
<path d="M207.67 167.059C207.67 167.059 188.82 170.659 185.26 173.719C183.8 174.979 185.44 181.819 186.63 182.659C187.38 183.189 197.63 178.579 208.63 177.079C208.64 177.079 206.61 171.369 207.67 167.059Z" fill="#455A64"/>
<path opacity="0.2" d="M246.4 174.809C246.164 175.179 245.9 175.53 245.61 175.859C244.45 177.149 242.92 177.749 240.33 177.089C238.64 176.659 237.33 175.009 234.57 175.319C232.854 175.447 231.207 176.045 229.81 177.049C228.894 177.695 228.019 178.396 227.19 179.149C226.98 179.319 226.77 179.509 226.56 179.699C226.37 179.879 226.166 180.042 225.95 180.189C225.633 180.427 225.298 180.641 224.95 180.829C220.86 183.019 214.08 183.109 211.48 181.179C209.1 179.419 207.29 174.269 207.57 169.299C207.617 168.232 207.778 167.172 208.05 166.139C208.314 165.123 208.707 164.145 209.22 163.229C209.32 163.059 209.41 162.899 209.51 162.749C209.8 162.315 210.135 161.913 210.51 161.549C212.98 158.999 217.74 156.949 222.91 155.709L224.5 155.369C225.65 155.129 226.81 154.939 227.96 154.789C229.29 154.619 230.62 154.499 231.9 154.459C236.44 154.279 240.43 154.919 242.53 156.599C244.011 157.882 245.12 159.54 245.74 161.399C246.076 162.286 246.35 163.194 246.56 164.119C247.226 167.071 247.368 170.118 246.98 173.119C246.888 173.712 246.691 174.284 246.4 174.809Z" fill="white"/>
<g opacity="0.2">
<path d="M246.4 174.809C246.164 175.179 245.9 175.53 245.61 175.859L235 170.519C234.661 170.352 234.397 170.065 234.259 169.714C234.121 169.362 234.118 168.972 234.252 168.619C234.385 168.266 234.645 167.975 234.981 167.803C235.317 167.632 235.705 167.591 236.07 167.689C236.173 167.714 236.273 167.747 236.37 167.789L246.97 173.109C246.882 173.705 246.689 174.281 246.4 174.809Z" fill="white"/>
<path d="M229.81 177.049C228.895 177.695 228.02 178.396 227.19 179.149L207.55 169.299C207.597 168.231 207.758 167.172 208.03 166.139L229.81 177.049Z" fill="white"/>
<path d="M223.66 169.319C223.56 169.532 223.388 169.704 223.174 169.802C222.96 169.901 222.718 169.921 222.49 169.859C222.417 169.841 222.347 169.814 222.28 169.779L209.2 163.229C209.3 163.059 209.39 162.899 209.49 162.749C209.781 162.315 210.116 161.913 210.49 161.549L223.23 167.939C223.351 167.999 223.459 168.083 223.546 168.186C223.634 168.288 223.7 168.408 223.74 168.537C223.78 168.666 223.794 168.802 223.78 168.936C223.766 169.07 223.726 169.201 223.66 169.319Z" fill="white"/>
<path d="M246.51 164.119L227.91 154.789C229.24 154.619 230.57 154.499 231.85 154.459L245.69 161.399C246.026 162.285 246.3 163.194 246.51 164.119Z" fill="white"/>
<path d="M242.869 165.178C242.815 165.28 242.729 165.36 242.624 165.407C242.519 165.454 242.401 165.465 242.289 165.438H242.179L222.859 155.748L224.449 155.408L242.639 164.528C242.754 164.586 242.842 164.686 242.884 164.807C242.927 164.928 242.922 165.061 242.869 165.178Z" fill="white"/>
<path d="M226 180.189C225.683 180.427 225.348 180.641 225 180.829L215 175.829C214.94 175.798 214.886 175.756 214.843 175.705C214.799 175.653 214.766 175.594 214.746 175.53C214.725 175.466 214.718 175.398 214.724 175.331C214.729 175.264 214.748 175.199 214.78 175.139C214.83 175.034 214.915 174.95 215.022 174.902C215.128 174.855 215.248 174.846 215.36 174.879H215.47L226 180.189Z" fill="white"/>
</g>
<path d="M214.2 183.079C213.074 182.814 212.023 182.294 211.13 181.559C207.49 178.429 204.97 168.819 209.06 162.469C211.81 158.209 220.06 155.469 226.31 154.469C232.09 153.539 239.46 153.469 242.8 156.179C248.31 160.609 248.34 171.549 246.88 174.979C245.88 177.319 243.26 178.339 240.2 177.559C239.56 177.374 238.943 177.119 238.36 176.799C237.218 176.128 235.914 175.782 234.59 175.799C232.03 175.929 230.59 176.949 226.89 180.069C225.125 181.471 223.073 182.468 220.88 182.988C218.687 183.508 216.406 183.539 214.2 183.079ZM209.92 162.999C206.23 168.729 208.41 177.839 211.8 180.759C214.89 183.429 222.18 182.689 226.24 179.279C229.83 176.279 231.54 174.919 234.54 174.769C236.039 174.739 237.518 175.127 238.81 175.889C239.331 176.172 239.881 176.4 240.45 176.569C242.45 177.079 244.98 176.829 245.94 174.569C247.27 171.439 247.22 161.029 242.16 156.959C239.59 154.889 233.58 154.319 226.47 155.469C218.53 156.759 212.03 159.709 209.92 162.989V162.999Z" fill="#455A64"/>
<path d="M196.54 180.639C196.54 180.639 188.41 171.639 184.26 174.689C180.11 177.739 187.08 191.319 192.57 192.609C193.263 192.824 193.993 192.895 194.714 192.82C195.436 192.745 196.135 192.525 196.769 192.173C197.403 191.82 197.96 191.344 198.405 190.771C198.851 190.198 199.175 189.541 199.36 188.839L196.54 180.639Z" fill="#F99D91"/>
<path d="M186.36 178.54C186.344 178.546 186.331 178.556 186.322 178.57C186.313 178.583 186.308 178.599 186.308 178.615C186.308 178.632 186.313 178.647 186.322 178.661C186.331 178.674 186.344 178.685 186.36 178.69C190.22 179.69 192.59 182.87 194.36 186.24C193.1 185.02 191.51 184.46 189.86 185.99C189.77 186.07 189.86 186.21 189.98 186.17C190.599 185.883 191.293 185.795 191.965 185.919C192.636 186.042 193.253 186.371 193.73 186.86C194.526 187.681 195.23 188.587 195.83 189.56C196.05 189.87 196.62 189.62 196.44 189.26C196.444 189.23 196.444 189.2 196.44 189.17C195.92 184.48 191.45 178.38 186.36 178.54Z" fill="#263238"/>
<path d="M193.359 192.82C193.359 193.164 193.461 193.501 193.653 193.787C193.844 194.073 194.116 194.296 194.434 194.428C194.751 194.559 195.101 194.594 195.439 194.527C195.776 194.46 196.086 194.294 196.33 194.05C196.573 193.807 196.739 193.497 196.806 193.16C196.873 192.822 196.839 192.472 196.707 192.154C196.575 191.836 196.352 191.565 196.066 191.373C195.78 191.182 195.444 191.08 195.099 191.08C194.871 191.08 194.645 191.125 194.434 191.213C194.222 191.3 194.031 191.428 193.869 191.59C193.707 191.751 193.579 191.943 193.492 192.154C193.404 192.365 193.359 192.592 193.359 192.82Z" fill="white"/>
<path d="M218.999 216.829L218.149 225.689C217.739 235.389 216.469 239.269 214.379 239.419C207.509 239.889 196.779 221.969 196.039 218.209C195.299 214.449 218.999 216.829 218.999 216.829Z" fill="#F9B8A4"/>
<path d="M184.355 219.321L184.355 219.32C188.463 216.474 191.323 215.123 193.138 214.482C194.045 214.162 194.689 214.02 195.097 213.957C195.137 213.951 195.175 213.946 195.211 213.941L210.768 407.259H119.09C119.101 407.143 119.115 407.009 119.13 406.857C119.192 406.233 119.287 405.309 119.418 404.11C119.68 401.714 120.086 398.221 120.661 393.841C121.81 385.079 123.633 372.767 126.331 358.563C131.728 330.148 140.619 294.195 154.594 263.969C166.722 237.743 175.645 225.347 184.355 219.321Z" fill="white" stroke="#E4E4E4"/>
<path d="M192.43 234.89C189.32 244.89 162.52 310.58 152.77 322.34C145.36 331.28 122.06 342.78 115.84 319.17C111.7 303.44 159.41 239.95 180.92 221.36C190.8 212.83 199 213.85 192.43 234.89Z" fill="#EBEBEB"/>
<path d="M131.2 333.24C135.177 333.038 139.06 331.959 142.57 330.08C146.07 328.262 149.192 325.795 151.77 322.81C153.057 321.33 154.237 319.759 155.3 318.11C156.36 316.45 157.3 314.71 158.3 312.97C160.17 309.47 161.92 305.89 163.61 302.28C167.09 295.11 170.31 287.82 173.61 280.54L183.33 258.65C182 262.42 180.55 266.14 179.14 269.88C177.73 273.62 176.14 277.29 174.67 280.99C171.624 288.377 168.4 295.69 165 302.93C163.26 306.53 161.46 310.1 159.53 313.62C158.53 315.37 157.53 317.12 156.45 318.81C155.345 320.515 154.086 322.115 152.69 323.59C149.932 326.569 146.629 328.993 142.96 330.73C141.127 331.574 139.21 332.221 137.24 332.66C135.264 333.134 133.231 333.329 131.2 333.24Z" fill="#DBDBDB"/>
<path d="M179.67 267.45C180.376 266.293 181.158 265.184 182.01 264.13C182.84 263.08 183.68 262.06 184.56 261C184.137 262.317 183.457 263.537 182.56 264.59C181.734 265.673 180.761 266.635 179.67 267.45Z" fill="#263238"/>
<path d="M195.669 213.41C194.259 216.63 184.509 245.41 181.889 251.89L181.649 252.48L182.159 252.89C185.659 255.65 189.176 258.393 192.709 261.12L192.529 259.77L182.729 272.77L182.409 273.2L182.599 273.69C185.439 280.87 203.419 313.93 205.009 317.45C203.779 313.79 187.179 280.18 184.379 273L184.249 273.92L194.069 260.99L194.649 260.22L193.889 259.64C190.343 256.934 186.786 254.243 183.219 251.57L183.489 252.57C185.999 246 194.509 216.73 195.669 213.41Z" fill="#DBDBDB"/>
<path d="M142.7 359.399C142.33 371.099 142.87 384.329 145.36 386.759C150.02 391.319 162.44 390.939 166.36 390.899C170.28 390.859 184.17 390.899 187.43 383.689C188.87 380.529 189.25 364.199 189.21 358.419C189.21 356.079 188.67 344.529 188.49 343.239C188.49 342.929 187.63 342.969 187.6 343.169C187.4 344.489 187.53 349.279 187.46 350.169C165.08 353.049 151.22 350.639 144.04 349.259C144.04 347.099 144.04 345.419 144.04 343.259C151.035 344.542 158.129 345.211 165.24 345.259C173.013 345.099 180.773 344.549 188.49 343.609C188.67 343.609 188.54 342.719 188.27 342.729C185.35 342.729 175.27 343.729 165.06 343.729C157.776 343.592 150.507 343.025 143.29 342.029C142.88 342.199 142.87 353.789 142.7 359.399ZM146.7 385.399C144.23 382.559 143.92 374.399 143.93 369.509C143.93 362.779 143.93 357.409 143.93 350.679C161.16 354.679 180.13 352.679 187.32 351.259C187.32 351.549 187.45 365.739 187.32 370.259C187.15 376.039 186.97 381.259 184.75 384.259C182.85 386.839 177.48 389.419 165.15 389.409C156.3 389.419 148.78 387.799 146.72 385.429L146.7 385.399Z" fill="#DBDBDB"/>
<path d="M127.46 208.249C130.78 195.039 136.63 176.739 141.86 173.339C147.34 169.779 167.13 158.029 172.61 156.779C178.09 155.529 198.61 158.449 202.61 161.429C205.85 163.809 201.9 171.169 190.55 171.829C179.94 172.449 177.37 172.079 174.43 172.979C171.49 173.879 163.5 182.439 164.93 186.759C165.77 189.309 172.51 192.929 177.12 191.429C181.73 189.929 183.91 184.889 189.37 181.339C194.83 177.789 203.62 179.269 203.87 181.709C204.12 184.149 201.07 184.949 195.66 192.559C192.18 197.459 190.46 206.429 182.87 214.679C179.07 218.829 171.97 230.199 171.97 230.199L127.46 208.249Z" fill="#F9B8A4"/>
<path d="M141.859 173.34C146.859 167.11 159.089 156.23 170.349 153.27C177.959 151.27 201.769 166.27 200.509 170.98C199.249 175.69 194.959 175.25 188.679 173.8C186.399 173.27 174.619 167.53 172.249 169.88C168.849 173.24 163.649 185.45 163.649 185.45L141.859 173.34Z" fill="#F9B8A4"/>
<path d="M200.1 168.999C197.55 163.519 191.02 159.999 184.47 157.119C184.36 157.069 184.29 157.229 184.39 157.269C186.06 158.019 196.57 164.269 200.01 169.079C200.05 169.159 200.12 169.089 200.1 168.999Z" fill="#263238"/>
<path d="M141.859 173.339C146.859 167.109 159.089 156.229 170.349 153.269C177.959 151.269 196.149 169.099 194.889 173.829C193.629 178.559 187.419 178.259 180.889 175.149C178.769 174.149 171.889 168.149 169.569 170.469C166.169 173.839 157.849 182.209 157.849 182.209L141.859 173.339Z" fill="#F9B8A4"/>
<path d="M162.66 176.999C163.46 175.999 163.73 175.669 164.55 174.709C165.37 173.749 166.2 172.789 167.08 171.889C167.788 171.04 168.637 170.32 169.59 169.759C170.563 169.336 171.648 169.241 172.68 169.489C175.02 169.969 176.99 171.709 178.87 173.079C180.97 174.609 185.39 177.199 188.99 177.209C189.975 177.263 190.96 177.106 191.88 176.749C192.575 176.522 193.204 176.127 193.71 175.599C195.54 173.149 193.93 169.949 192.19 167.599C188.95 163.249 184.32 159.849 179.79 156.979C178.67 156.269 177.54 155.599 176.41 154.919C175.153 154.059 173.728 153.476 172.23 153.209C169.76 152.929 165.43 154.999 164.09 155.619C163.99 155.669 163.94 155.499 164.04 155.449C165.66 154.669 169.76 151.999 173.73 152.639C175.162 153.015 176.516 153.641 177.73 154.489C179.05 155.239 180.35 156.039 181.63 156.859C184.138 158.447 186.519 160.229 188.75 162.189C190.994 164.017 192.886 166.24 194.33 168.749C194.922 169.863 195.202 171.117 195.141 172.377C195.079 173.638 194.678 174.858 193.98 175.909C192.69 177.599 190.32 177.789 189.24 177.809C188.177 177.828 187.117 177.7 186.09 177.429C183.821 176.673 181.609 175.757 179.47 174.689C177.4 173.589 175.62 171.919 173.47 170.999C172.964 170.762 172.417 170.627 171.859 170.603C171.301 170.579 170.744 170.666 170.22 170.859C169.245 171.371 168.352 172.025 167.57 172.799C165.92 174.099 164.396 175.552 163.02 177.139C162.64 177.589 162.32 177.399 162.66 176.999Z" fill="#263238"/>
<path d="M138.05 178.84C139.97 175.84 144.05 162.98 147.05 159.23C150.05 155.48 163.12 142.82 168.45 144.01C175.16 145.51 166.75 157.01 162.64 161.63C158.53 166.25 158.2 174.91 158.2 174.91L138.05 178.84Z" fill="#F9B8A4"/>
<path d="M168.48 153.809C167.04 155.269 165.73 156.919 164.48 158.509C163.172 159.977 161.972 161.537 160.89 163.179C159.953 164.878 159.301 166.719 158.96 168.629C158.77 169.559 158.63 170.499 158.52 171.449C158.41 172.399 158.38 173.539 158.25 174.569C158.256 174.587 158.268 174.602 158.283 174.613C158.298 174.624 158.316 174.63 158.335 174.63C158.354 174.63 158.372 174.624 158.387 174.613C158.402 174.602 158.414 174.587 158.42 174.569C158.746 172.691 159.197 170.837 159.77 169.019C160.317 167.125 161.092 165.305 162.08 163.599C164.08 160.219 166.73 157.299 168.73 153.929C168.78 153.829 168.58 153.709 168.48 153.809Z" fill="#263238"/>
<path d="M158.1 176.359C158.032 177.961 158.197 179.565 158.59 181.119C158.938 182.679 159.392 184.212 159.95 185.709C160.485 187.209 161.103 188.678 161.8 190.109C162.46 191.549 163.32 192.879 164.14 194.279C165.899 197.035 167.209 200.053 168.02 203.219C168.769 206.389 168.948 209.667 168.55 212.899C168.582 209.694 168.165 206.499 167.31 203.409C166.368 200.37 165.023 197.471 163.31 194.789C162.439 193.418 161.651 191.995 160.95 190.529C160.264 189.047 159.679 187.521 159.2 185.959C158.29 182.869 157.51 179.579 158.1 176.359Z" fill="#263238"/>
<path d="M174.77 191.719C176.956 191.528 178.983 190.5 180.43 188.849C181.81 187.469 183.1 185.989 184.5 184.619C185.816 183.2 187.332 181.981 189 180.999C190.967 180.04 193.062 179.366 195.22 178.999C197.276 178.469 199.433 178.469 201.49 178.999C203.16 179.509 205.04 180.899 204.49 182.929C204.173 183.844 203.688 184.692 203.06 185.429C202.464 186.165 201.819 186.86 201.13 187.509C199.75 188.839 198.25 190.069 197 191.509C195.32 193.509 194.35 195.939 193.24 198.249C192.83 199.109 190.24 204.899 189.24 206.879C188.387 208.573 187.383 210.186 186.24 211.699C185.108 213.089 183.893 214.408 182.6 215.649C181.193 217 179.936 218.499 178.85 220.119C178.85 220.199 178.7 220.119 178.73 220.039C179.94 216.829 182.58 214.409 184.96 212.039C188.04 208.989 193.79 194.709 194.96 192.729C196.84 189.409 200.14 187.479 202.4 184.509C202.92 183.829 203.72 182.839 203.57 181.909C203.435 181.478 203.192 181.088 202.865 180.777C202.538 180.466 202.137 180.243 201.7 180.129C199.69 179.592 197.568 179.647 195.59 180.289C193.524 180.692 191.511 181.33 189.59 182.189C187.937 183.058 186.415 184.155 185.07 185.449C183.51 186.889 182.07 188.369 180.38 189.699C178.82 191.085 176.806 191.85 174.72 191.849C174.64 191.879 174.66 191.729 174.77 191.719Z" fill="#263238"/>
<path d="M199.12 160.27C197.63 159.79 196.12 159.27 194.66 158.81V158.75C196.41 159.17 198.21 159.47 199.97 159.88C200.691 159.975 201.385 160.217 202.009 160.59C202.633 160.963 203.175 161.46 203.6 162.05C203.902 162.668 204.04 163.353 203.999 164.04C203.959 164.727 203.742 165.392 203.37 165.97C202.498 167.191 201.377 168.214 200.08 168.97C200.074 168.975 200.066 168.978 200.058 168.98C200.051 168.981 200.042 168.981 200.035 168.98C200.027 168.979 200.019 168.976 200.012 168.971C200.006 168.967 200 168.962 199.995 168.955C199.991 168.948 199.987 168.941 199.986 168.933C199.984 168.925 199.984 168.917 199.985 168.909C199.986 168.902 199.989 168.894 199.994 168.887C199.998 168.88 200.004 168.875 200.01 168.87C201.84 167.41 204.63 164.62 202.61 162.19C201.65 161.236 200.44 160.571 199.12 160.27Z" fill="#263238"/>
<path d="M194.319 174.629C195.964 174.574 197.559 174.054 198.919 173.129C199.472 172.698 199.885 172.114 200.109 171.449C200.223 171.087 200.277 170.709 200.269 170.329C200.298 169.93 200.185 169.533 199.949 169.209C199.869 169.139 200.019 169.049 200.049 169.139C200.079 169.229 200.299 169.519 200.399 169.719C200.485 169.888 200.552 170.066 200.599 170.249C200.69 170.616 200.71 170.996 200.659 171.369C200.545 172.188 200.149 172.941 199.539 173.499C198.827 174.1 197.984 174.527 197.078 174.746C196.172 174.965 195.228 174.969 194.319 174.759C194.306 174.754 194.295 174.745 194.287 174.734C194.28 174.722 194.275 174.708 194.275 174.694C194.275 174.68 194.28 174.667 194.287 174.655C194.295 174.644 194.306 174.635 194.319 174.629Z" fill="#263238"/>
<path d="M172 230.199C170.36 243.099 151.86 310.949 145.91 321.339C139.96 331.729 124.55 338.339 117.19 322.199C109.83 306.059 123.86 221.659 127.47 208.249C129.47 200.789 172.59 225.529 172 230.199Z" fill="#F9B8A4"/>
<path d="M123.702 216.344C123.714 216.253 123.726 216.168 123.737 216.091L178.303 238.023C178.285 238.082 178.267 238.146 178.246 238.215C178.125 238.626 177.946 239.233 177.713 240.013C177.248 241.574 176.57 243.832 175.716 246.62C174.009 252.194 171.602 259.885 168.803 268.35C163.2 285.291 156.035 305.295 149.764 317.652C143.53 329.938 135.487 333.701 128.874 332.54C122.219 331.371 116.744 325.183 115.706 317.006C114.975 311.239 115.11 302.017 115.733 291.393C116.356 280.781 117.462 268.807 118.661 257.555C119.86 246.304 121.151 235.78 122.142 228.068C122.638 224.212 123.059 221.059 123.355 218.87C123.504 217.776 123.621 216.923 123.702 216.344Z" fill="white" stroke="#E4E4E4"/>
<path d="M173.22 247.88C164.85 244.88 131.05 231.11 123.95 227.65C123.46 227.41 123.49 227.04 124.04 227.22C149.34 235.75 165.27 244.13 173.33 247.54C173.53 247.63 173.43 248 173.22 247.88Z" fill="#E4E4E4"/>
<path d="M162.54 290.159C166.54 279.159 170.21 268.159 173.37 256.969C174.25 253.829 175.11 250.688 175.93 247.538C176.75 244.388 177.53 241.468 178.19 238.398C177 237.808 171.85 235.399 171.27 234.999C171.234 234.969 171.208 234.929 171.197 234.883C171.187 234.838 171.191 234.79 171.211 234.747C171.23 234.705 171.263 234.67 171.305 234.649C171.346 234.627 171.394 234.62 171.44 234.629C172.09 234.779 178.02 237.159 179.31 237.859C179.49 237.949 177.97 243.959 177.31 246.859C176.65 249.759 175.94 252.579 175.2 255.419C173.733 261.045 172.123 266.639 170.37 272.199C168.49 278.199 166.46 284.122 164.28 289.969C162.39 294.999 157.46 304.259 162.54 290.159Z" fill="#E4E4E4"/>
<path d="M266.93 367.201H262.99V444.061H266.93V367.201Z" fill="#263238"/>
<path d="M350.9 438.67H266.93V444.05H350.9V438.67Z" fill="#263238"/>
<path d="M295.63 362.101L295.34 426.441C295.331 428.454 294.522 430.381 293.092 431.798C291.662 433.215 289.728 434.006 287.715 433.996C285.702 433.987 283.775 433.178 282.359 431.748C280.942 430.318 280.151 428.384 280.16 426.371L280.45 362.031L295.63 362.101Z" fill="#EBEBEB"/>
<path d="M294.66 380.71L294.46 426.39C294.456 427.272 294.279 428.143 293.938 428.956C293.597 429.769 293.099 430.506 292.474 431.126C291.848 431.747 291.106 432.238 290.29 432.571C289.475 432.905 288.601 433.074 287.72 433.07C286.839 433.066 285.967 432.889 285.155 432.548C284.342 432.207 283.604 431.71 282.984 431.084C282.364 430.458 281.873 429.716 281.539 428.9C281.206 428.085 281.036 427.212 281.04 426.33L281.24 380.65L294.66 380.71Z" fill="#08BD80"/>
<path d="M298.03 356.44L278.09 356.35L278.044 366.35L297.984 366.44L298.03 356.44Z" fill="#90BAEC"/>
<path d="M319 362.101L318.71 426.441C318.701 428.454 317.893 430.381 316.463 431.798C315.033 433.215 313.098 434.006 311.085 433.996C309.072 433.987 307.145 433.178 305.729 431.748C304.312 430.318 303.521 428.384 303.53 426.371L303.82 362.031L319 362.101Z" fill="#EBEBEB"/>
<path d="M318.05 380.71L317.85 426.39C317.842 428.17 317.127 429.874 315.863 431.126C314.599 432.379 312.889 433.078 311.11 433.07C309.33 433.062 307.627 432.348 306.374 431.084C305.121 429.82 304.422 428.11 304.43 426.33L304.64 380.65L318.05 380.71Z" fill="#E55858"/>
<path d="M321.419 356.446L301.479 356.355L301.434 366.355L321.374 366.446L321.419 356.446Z" fill="#85BAF8"/>
<path d="M350.89 395.9V403.09H266.93V395.9H280.56V398.31C280.56 399.5 283.92 400.45 288.04 400.45C292.16 400.45 295.52 399.5 295.52 398.31V395.9H304V398.31C304 399.5 307.34 400.45 311.47 400.45C315.6 400.45 318.94 399.5 318.94 398.31V395.9H327.39V398.31C327.39 399.5 330.73 400.45 334.86 400.45C338.99 400.45 342.34 399.5 342.34 398.31V395.9H350.89Z" fill="#455A64"/>
<path d="M350.9 403.09H266.93V405.99H350.9V403.09Z" fill="#263238"/>
<path d="M354.831 367.201H350.891V444.061H354.831V367.201Z" fill="#263238"/>
<path d="M195.26 434.681H121.79C121.79 434.681 131.58 402.201 136.4 390.841C137.16 391.487 137.988 392.047 138.87 392.511C139.571 392.885 140.308 393.186 141.07 393.411C141.541 393.564 142.022 393.684 142.51 393.771H142.67L143.15 393.831C147.29 394.171 153.3 391.031 159.15 388.891C161.647 387.872 164.283 387.235 166.97 387.001C172.11 386.781 177.6 389.391 180.78 391.221C185.52 402.501 195.26 434.681 195.26 434.681Z" fill="#2176D9"/>
<path d="M159.11 388.91C152.99 391.16 146.65 394.53 142.51 393.77C140.25 393.351 138.142 392.34 136.4 390.84C136.04 388.84 142.23 386.32 149.99 387C153.076 387.391 156.126 388.03 159.11 388.91Z" fill="#4D91E1"/>
<g opacity="0.2">
<path d="M159.11 388.91C152.99 391.16 146.65 394.53 142.51 393.77C140.25 393.351 138.142 392.34 136.4 390.84C136.04 388.84 142.23 386.32 149.99 387C153.076 387.391 156.126 388.03 159.11 388.91Z" fill="black"/>
</g>
<path opacity="0.3" d="M132 412.571C131.839 412.571 131.679 412.541 131.53 412.481C131.243 412.354 131.018 412.119 130.904 411.827C130.79 411.535 130.795 411.209 130.92 410.921C137.02 396.991 146.76 374.091 146.92 371.921V346.741C146.947 346.446 147.084 346.171 147.303 345.971C147.522 345.771 147.808 345.66 148.105 345.66C148.402 345.66 148.688 345.771 148.907 345.971C149.126 346.171 149.263 346.446 149.29 346.741V372.001C149.29 374.641 136.87 403.211 133.06 411.911C132.964 412.11 132.813 412.278 132.625 412.394C132.438 412.511 132.221 412.573 132 412.571Z" fill="white"/>
<path opacity="0.3" d="M137.35 406.91C137.321 406.92 137.289 406.92 137.26 406.91C137.231 406.898 137.205 406.881 137.184 406.859C137.162 406.836 137.145 406.81 137.134 406.781C137.122 406.752 137.117 406.721 137.118 406.69C137.119 406.659 137.127 406.628 137.14 406.6C142 395.39 151.3 373.76 151.3 372V349.81C151.3 349.747 151.325 349.686 151.37 349.641C151.415 349.596 151.476 349.57 151.54 349.57C151.571 349.57 151.602 349.577 151.63 349.589C151.659 349.601 151.685 349.619 151.706 349.641C151.728 349.664 151.744 349.69 151.755 349.719C151.766 349.748 151.771 349.779 151.77 349.81V372C151.77 374.31 138.15 405.45 137.57 406.78C137.55 406.821 137.519 406.856 137.48 406.879C137.44 406.902 137.395 406.913 137.35 406.91Z" fill="white"/>
<g opacity="0.2">
<path d="M195.261 434.68H121.791C121.791 434.68 131.581 402.2 136.401 390.84L136.911 389.64C140.831 380.38 144.191 372.23 144.191 371.23V340.51H172.781V371.23C172.781 372.23 176.521 381.33 180.781 391.23C185.521 402.5 195.261 434.68 195.261 434.68Z" fill="white"/>
<path d="M195.261 434.681L158.631 434.891L121.791 435.011H121.351L121.471 434.591C123.831 426.764 126.264 418.957 128.771 411.171C130.041 407.291 131.321 403.401 132.671 399.541C134.021 395.681 135.461 391.831 137.091 388.091C138.721 384.351 140.241 380.551 141.751 376.761L142.851 373.911L143.361 372.481C143.522 372.05 143.639 371.605 143.711 371.151V365.021L143.761 340.511V340.061H144.211L172.801 340.121H173.191V340.511V365.031V371.161C173.254 371.633 173.375 372.097 173.551 372.541L174.001 374.001L175.101 376.861C176.601 380.651 178.181 384.421 179.761 388.191C182.912 395.74 185.682 403.443 188.061 411.271C190.531 419.001 192.921 426.851 195.261 434.681ZM195.261 434.681C192.821 426.881 190.311 419.104 187.731 411.351C186.421 407.471 185.101 403.611 183.731 399.771C182.361 395.931 180.901 392.121 179.241 388.381C177.581 384.641 176.051 380.851 174.531 377.051L173.411 374.191L172.881 372.741C172.679 372.233 172.545 371.702 172.481 371.161V365.001L172.421 340.481L172.811 340.871L144.221 340.931L144.671 340.481V364.991V371.121C144.603 371.682 144.465 372.233 144.261 372.761L143.731 374.211L142.611 377.071C141.091 380.871 139.491 384.631 137.901 388.401C136.311 392.171 134.811 395.931 133.451 399.791C132.091 403.651 130.781 407.511 129.501 411.381C126.954 419.141 124.487 426.927 122.101 434.741L121.791 434.321L158.421 434.441L195.261 434.681Z" fill="#263238"/>
<path d="M144.45 347.331C145.571 347.066 146.719 346.939 147.87 346.951C149.025 346.933 150.177 347.061 151.3 347.331C149.044 347.825 146.707 347.825 144.45 347.331Z" fill="#263238"/>
<path d="M144.45 350.88C144.985 350.627 145.569 350.496 146.16 350.496C146.752 350.496 147.336 350.627 147.87 350.88C147.333 351.124 146.75 351.25 146.16 351.25C145.57 351.25 144.987 351.124 144.45 350.88Z" fill="#263238"/>
<path d="M144.45 353.59C144.983 353.335 145.569 353.208 146.16 353.22C146.752 353.203 147.339 353.33 147.87 353.59C147.339 353.853 146.753 353.984 146.16 353.97C145.568 353.979 144.983 353.849 144.45 353.59Z" fill="#263238"/>
<path d="M144.45 356.31C144.985 356.057 145.569 355.926 146.16 355.926C146.752 355.926 147.336 356.057 147.87 356.31C147.333 356.553 146.75 356.679 146.16 356.679C145.57 356.679 144.987 356.553 144.45 356.31Z" fill="#263238"/>
<path d="M144.45 358.8C145.571 358.539 146.719 358.415 147.87 358.43C149.025 358.409 150.177 358.533 151.3 358.8C149.045 359.307 146.705 359.307 144.45 358.8Z" fill="#263238"/>
<path d="M144.45 362.35C144.983 362.091 145.568 361.961 146.16 361.97C146.753 361.956 147.339 362.087 147.87 362.35C147.333 362.593 146.75 362.719 146.16 362.719C145.57 362.719 144.987 362.593 144.45 362.35Z" fill="#263238"/>
<path d="M144.45 365.061C144.987 364.817 145.57 364.691 146.16 364.691C146.75 364.691 147.333 364.817 147.87 365.061C147.336 365.314 146.752 365.445 146.16 365.445C145.569 365.445 144.985 365.314 144.45 365.061Z" fill="#263238"/>
<path d="M144.45 367.781C144.983 367.523 145.568 367.393 146.16 367.401C146.753 367.388 147.339 367.518 147.87 367.781C147.339 368.042 146.752 368.168 146.16 368.151C145.569 368.163 144.983 368.037 144.45 367.781Z" fill="#263238"/>
</g>
<path d="M60.0901 395.301H66.6901C67.8037 395.301 68.9064 395.52 69.9353 395.946C70.9641 396.372 71.8989 396.997 72.6864 397.785C73.4738 398.572 74.0985 399.507 74.5246 400.536C74.9508 401.564 75.1701 402.667 75.1701 403.781V435.431H51.6201V403.781C51.6201 401.533 52.5122 399.378 54.1003 397.788C55.6885 396.198 57.8428 395.303 60.0901 395.301Z" fill="#DBDBDB"/>
<path d="M69.4701 389.41H57.3301V396.46H69.4701V389.41Z" fill="#DBDBDB"/>
<path d="M71.6104 386.121H55.1904V392.401H71.6104V386.121Z" fill="#E55858"/>
<path d="M70.9698 410.191H53.5898V426.071H70.9698V410.191Z" fill="white"/>
<path d="M88.47 395.301H95.07C97.319 395.301 99.476 396.194 101.066 397.785C102.657 399.375 103.55 401.532 103.55 403.781V435.431H80V403.781C80 401.533 80.8921 399.378 82.4802 397.788C84.0683 396.198 86.2227 395.303 88.47 395.301Z" fill="#DBDBDB"/>
<path d="M97.8402 389.41H85.7002V396.46H97.8402V389.41Z" fill="#DBDBDB"/>
<path d="M99.9806 386.121H83.5605V392.401H99.9806V386.121Z" fill="#08BD80"/>
<path d="M99.34 410.191H81.96V426.071H99.34V410.191Z" fill="white"/>
<path d="M446.37 407.58H437.5C437.5 407.58 435.38 374.93 415.62 373.29C405.16 372.43 395.52 379.87 388.01 388.24C395.44 379.81 408.62 368.92 421.18 368.92C440.11 368.92 446.37 407.58 446.37 407.58Z" fill="#263238"/>
<path d="M387.81 306.439L401.42 278.699L406.02 284.929L394.35 306.439H387.81Z" fill="#263238"/>
<path d="M406.962 280.5L391.44 309.928L398.499 313.651L414.021 284.223L406.962 280.5Z" fill="#455A64"/>
<path d="M398.51 313.69L402.74 312.54L415.52 288.87L414.04 284.26L398.51 313.69Z" fill="#37474F"/>
<path d="M364.476 309.519L364.065 309.336C362.727 308.743 361.162 309.346 360.568 310.684L354.174 325.1C353.581 326.438 354.184 328.003 355.522 328.597L355.933 328.779C357.271 329.372 358.837 328.769 359.43 327.431L365.824 313.016C366.418 311.678 365.814 310.112 364.476 309.519Z" fill="#37474F"/>
<path d="M380.67 319.224L380.258 319.041C378.92 318.448 377.355 319.051 376.761 320.389L370.367 334.805C369.774 336.143 370.377 337.708 371.715 338.302L372.127 338.484C373.464 339.077 375.03 338.474 375.623 337.136L382.018 322.721C382.611 321.383 382.008 319.817 380.67 319.224Z" fill="#37474F"/>
<path d="M371.918 315.848L371.187 315.524C369.375 314.72 367.254 315.538 366.45 317.35L358.361 335.587C357.557 337.399 358.374 339.52 360.187 340.324L360.918 340.648C362.73 341.452 364.851 340.635 365.655 338.822L373.744 320.586C374.548 318.773 373.731 316.652 371.918 315.848Z" fill="#37474F"/>
<path d="M402.792 235.118L402.061 234.793C400.249 233.99 398.128 234.807 397.324 236.62L389.235 254.856C388.431 256.669 389.248 258.789 391.061 259.593L391.792 259.918C393.605 260.722 395.725 259.904 396.529 258.092L404.618 239.855C405.422 238.043 404.605 235.922 402.792 235.118Z" fill="#37474F"/>
<path d="M414.741 240.395L414.01 240.071C412.198 239.267 410.077 240.084 409.273 241.897L401.184 260.133C400.38 261.946 401.198 264.067 403.01 264.871L403.741 265.195C405.554 265.999 407.675 265.181 408.479 263.369L416.568 245.132C417.371 243.32 416.554 241.199 414.741 240.395Z" fill="#37474F"/>
<path d="M360.66 309.919L389.23 250.439C389.23 250.439 397.39 250.709 411.51 260.509L381.16 319.849C373.726 317.959 366.752 314.581 360.66 309.919Z" fill="#37474F"/>
<path d="M386.84 324.829C386.84 324.829 359.92 316.879 352.52 309.599L354.88 304.289C367.458 306.266 379.294 311.519 389.2 319.519L386.84 324.829Z" fill="#455A64"/>
<path d="M412.54 262.199C412.54 262.199 401.88 253.119 387.42 250.389L389.89 245.129C405.17 244.869 415 256.999 415 256.999L412.54 262.199Z" fill="#455A64"/>
<path d="M392.7 298C392.7 298 380.92 290.21 370.77 287.69C370.625 287.634 370.494 287.547 370.386 287.437C370.277 287.326 370.194 287.193 370.141 287.047C370.088 286.901 370.067 286.746 370.078 286.591C370.09 286.437 370.135 286.286 370.21 286.15L372.98 280.26C373.129 279.998 373.367 279.797 373.651 279.695C373.935 279.592 374.247 279.594 374.53 279.7C382.456 281.62 389.913 285.123 396.45 290C396.729 290.132 396.944 290.37 397.049 290.66C397.154 290.95 397.14 291.27 397.01 291.55L394.24 297.43C394.177 297.57 394.087 297.695 393.976 297.8C393.864 297.904 393.733 297.986 393.589 298.039C393.446 298.092 393.293 298.116 393.141 298.109C392.988 298.102 392.838 298.065 392.7 298Z" fill="#455A64"/>
<path d="M411.68 290.73L413.81 289.73C413.81 289.73 443.52 303 442 338.39C441 361.85 423.86 378.08 423.86 378.08C423.86 378.08 444.68 351.21 436.86 326.34C429.04 301.47 411.68 290.73 411.68 290.73Z" fill="#455A64"/>
<path d="M439.58 340.83C437.87 362.47 423.84 378.08 423.84 378.08H402.53C392.76 365.23 377.22 357.72 377.22 357.72L394.22 360.72L395.73 359.94L398.73 358.41C398.73 358.41 403.04 365.01 409.53 364.86C410.858 364.834 412.167 364.541 413.38 364C420.96 360.72 424.79 340.59 421.25 328.57C417.71 316.55 402.2 309.1 402.2 309.1L411.68 290.73C428.63 298.34 441.28 319.19 439.58 340.83Z" fill="#37474F"/>
<path d="M409.57 364.851C409.57 364.851 403.99 366.741 395.76 359.921L398.76 358.391C398.76 358.391 403.07 364.991 409.56 364.841L409.57 364.851Z" fill="#455A64"/>
<path d="M437.5 407.58H374C375.59 405.1 378.33 400.64 382 395.73L382.23 395.41C382.33 395.28 382.43 395.16 382.52 395.03C382.576 394.944 382.636 394.861 382.7 394.78L383.25 394.07L383.41 393.86L384 393.1C384.32 392.69 384.67 392.25 385.06 391.78C385.45 391.31 385.61 391.11 385.89 390.78C386.33 390.26 386.79 389.71 387.29 389.14L388.07 388.25C395.58 379.88 405.22 372.44 415.68 373.3C435.38 374.93 437.5 407.58 437.5 407.58Z" fill="#455A64"/>
<path d="M392.217 353.079L329.754 347.867L329.094 355.78L391.557 360.992L392.217 353.079Z" fill="#263238"/>
<path d="M405.996 354.309L392.145 353.15L391.483 361.063L405.335 362.221L405.996 354.309Z" fill="#37474F"/>
<path d="M386.5 402.349C386.5 402.774 386.374 403.19 386.138 403.544C385.902 403.897 385.566 404.173 385.173 404.336C384.78 404.498 384.348 404.541 383.931 404.458C383.514 404.375 383.131 404.17 382.83 403.869C382.529 403.569 382.324 403.186 382.242 402.769C382.159 402.352 382.201 401.919 382.364 401.526C382.527 401.134 382.802 400.798 383.156 400.562C383.509 400.325 383.925 400.199 384.35 400.199C384.92 400.199 385.467 400.426 385.87 400.829C386.274 401.232 386.5 401.779 386.5 402.349Z" fill="#263238"/>
<path d="M431.159 402.349C431.159 402.774 431.034 403.189 430.798 403.543C430.562 403.896 430.227 404.172 429.834 404.335C429.442 404.498 429.01 404.541 428.594 404.459C428.177 404.376 427.794 404.173 427.493 403.873C427.192 403.573 426.986 403.191 426.902 402.775C426.818 402.358 426.859 401.926 427.02 401.533C427.181 401.14 427.455 400.804 427.808 400.566C428.16 400.329 428.575 400.201 428.999 400.199C429.283 400.198 429.563 400.253 429.825 400.36C430.087 400.467 430.325 400.626 430.526 400.825C430.727 401.025 430.886 401.263 430.995 401.524C431.103 401.786 431.159 402.066 431.159 402.349Z" fill="#263238"/>
<path d="M413.44 380.23C413.44 380.655 413.314 381.071 413.077 381.425C412.841 381.778 412.505 382.054 412.112 382.216C411.72 382.379 411.287 382.422 410.87 382.339C410.453 382.256 410.07 382.051 409.769 381.75C409.469 381.45 409.264 381.067 409.181 380.65C409.098 380.232 409.141 379.8 409.303 379.407C409.466 379.014 409.742 378.679 410.095 378.442C410.449 378.206 410.864 378.08 411.29 378.08C411.86 378.08 412.407 378.307 412.81 378.71C413.213 379.113 413.44 379.66 413.44 380.23Z" fill="#263238"/>
<path d="M396.92 264.83C396.92 265.255 396.794 265.671 396.558 266.024C396.322 266.378 395.986 266.653 395.593 266.816C395.2 266.979 394.768 267.021 394.351 266.938C393.934 266.855 393.551 266.651 393.25 266.35C392.949 266.049 392.744 265.666 392.661 265.249C392.578 264.832 392.621 264.4 392.784 264.007C392.947 263.614 393.222 263.278 393.576 263.042C393.929 262.806 394.345 262.68 394.77 262.68C395.34 262.68 395.887 262.906 396.29 263.309C396.694 263.713 396.92 264.259 396.92 264.83Z" fill="#263238"/>
<path d="M378.3 304.291C378.3 304.716 378.174 305.132 377.938 305.485C377.701 305.839 377.366 306.114 376.973 306.277C376.58 306.44 376.148 306.482 375.731 306.399C375.313 306.316 374.93 306.112 374.63 305.811C374.329 305.51 374.124 305.127 374.041 304.71C373.958 304.293 374.001 303.861 374.164 303.468C374.326 303.075 374.602 302.739 374.956 302.503C375.309 302.267 375.725 302.141 376.15 302.141C376.72 302.141 377.267 302.367 377.67 302.77C378.073 303.174 378.3 303.72 378.3 304.291Z" fill="#263238"/>
<path d="M417.67 305.05C417.67 305.476 417.544 305.891 417.308 306.245C417.072 306.598 416.736 306.874 416.343 307.037C415.95 307.199 415.518 307.242 415.101 307.159C414.684 307.076 414.301 306.871 414 306.571C413.699 306.27 413.494 305.887 413.411 305.47C413.328 305.053 413.371 304.62 413.534 304.228C413.697 303.835 413.972 303.499 414.326 303.263C414.679 303.026 415.095 302.9 415.52 302.9C416.09 302.9 416.637 303.127 417.04 303.53C417.444 303.933 417.67 304.48 417.67 305.05Z" fill="#263238"/>
<path d="M399.44 369.339C400.627 369.339 401.59 368.376 401.59 367.189C401.59 366.002 400.627 365.039 399.44 365.039C398.253 365.039 397.29 366.002 397.29 367.189C397.29 368.376 398.253 369.339 399.44 369.339Z" fill="#263238"/>
</svg>
