<svg width="27" height="31" viewBox="0 0 27 31" fill="none" xmlns="http://www.w3.org/2000/svg">
<path d="M23.7385 9.95875L25.2173 8.49625C25.5233 8.19026 25.6952 7.77524 25.6952 7.3425C25.6952 6.90976 25.5233 6.49474 25.2173 6.18875C24.9113 5.88276 24.4963 5.71085 24.0635 5.71085C23.6308 5.71085 23.2158 5.88276 22.9098 6.18875L21.4473 7.6675C19.1699 5.90576 16.3721 4.94991 13.4929 4.94991C10.6136 4.94991 7.81587 5.90576 5.53852 7.6675L4.05977 6.1725C3.75162 5.86651 3.33454 5.69546 2.90027 5.69698C2.46601 5.6985 2.05014 5.87248 1.74414 6.18062C1.43815 6.48877 1.2671 6.90586 1.26863 7.34012C1.27015 7.77438 1.44412 8.19026 1.75227 8.49625L3.24727 9.975C1.46467 12.246 0.497429 15.0504 0.501019 17.9375C0.495712 20.0101 0.986022 22.0539 1.93106 23.8984C2.87609 25.743 4.24846 27.3349 5.9337 28.5413C7.61895 29.7478 9.56822 30.5338 11.619 30.8338C13.6697 31.1339 15.7625 30.9393 17.7227 30.2662C19.6829 29.5931 21.4538 28.4611 22.8877 26.9646C24.3216 25.4681 25.3769 23.6505 25.9656 21.6633C26.5542 19.6761 26.6593 17.5769 26.2719 15.5409C25.8845 13.5048 25.0159 11.5909 23.7385 9.95875ZM13.501 27.6875C11.5727 27.6875 9.68759 27.1157 8.08421 26.0443C6.48083 24.973 5.23115 23.4502 4.49319 21.6687C3.75524 19.8871 3.56216 17.9267 3.93836 16.0354C4.31457 14.1441 5.24317 12.4068 6.60673 11.0432C7.97029 9.67965 9.70757 8.75105 11.5989 8.37484C13.4902 7.99864 15.4506 8.19172 17.2322 8.92967C19.0138 9.66763 20.5365 10.9173 21.6078 12.5207C22.6792 14.1241 23.251 16.0091 23.251 17.9375C23.251 20.5234 22.2238 23.0033 20.3953 24.8318C18.5668 26.6603 16.0869 27.6875 13.501 27.6875ZM10.251 3.3125H16.751C17.182 3.3125 17.5953 3.14129 17.9001 2.83655C18.2048 2.5318 18.376 2.11848 18.376 1.6875C18.376 1.25652 18.2048 0.843198 17.9001 0.538451C17.5953 0.233705 17.182 0.0625 16.751 0.0625H10.251C9.82004 0.0625 9.40672 0.233705 9.10197 0.538451C8.79722 0.843198 8.62602 1.25652 8.62602 1.6875C8.62602 2.11848 8.79722 2.5318 9.10197 2.83655C9.40672 3.14129 9.82004 3.3125 10.251 3.3125ZM15.126 13.0625C15.126 12.6315 14.9548 12.2182 14.6501 11.9135C14.3453 11.6087 13.932 11.4375 13.501 11.4375C13.07 11.4375 12.6567 11.6087 12.352 11.9135C12.0472 12.2182 11.876 12.6315 11.876 13.0625V16.1338C11.5081 16.4629 11.2487 16.8959 11.1323 17.3756C11.0159 17.8554 11.0478 18.3591 11.224 18.8203C11.4001 19.2815 11.7121 19.6783 12.1187 19.9582C12.5253 20.2382 13.0074 20.3881 13.501 20.3881C13.9947 20.3881 14.4767 20.2382 14.8833 19.9582C15.2899 19.6783 15.6019 19.2815 15.7781 18.8203C15.9542 18.3591 15.9862 17.8554 15.8698 17.3756C15.7533 16.8959 15.494 16.4629 15.126 16.1338V13.0625Z" fill="#FF6564"/>
</svg>
