<svg width="25" height="24" viewBox="0 0 25 24" fill="none" xmlns="http://www.w3.org/2000/svg">
<g clip-path="url(#clip0_1636_10183)">
<g clip-path="url(#clip1_1636_10183)">
<mask id="mask0_1636_10183" style="mask-type:luminance" maskUnits="userSpaceOnUse" x="3" y="2" width="19" height="21">
<path d="M13.6385 12.1698H8.7067C8.4451 12.1698 8.19422 12.2737 8.00923 12.4586C7.82426 12.6436 7.72033 12.8945 7.72033 13.1561C7.72033 13.4177 7.82426 13.6686 8.00923 13.8536C8.19422 14.0385 8.4451 14.1425 8.7067 14.1425H13.6385C13.9001 14.1425 14.151 14.0385 14.336 13.8536C14.5209 13.6686 14.6249 13.4177 14.6249 13.1561C14.6249 12.8945 14.5209 12.6436 14.336 12.4586C14.151 12.2737 13.9001 12.1698 13.6385 12.1698ZM14.6249 20.0607H6.73398C6.47237 20.0607 6.22149 19.9567 6.03652 19.7717C5.85154 19.5868 5.74762 19.3359 5.74762 19.0743V5.26523C5.74762 5.00363 5.85154 4.75275 6.03652 4.56778C6.22149 4.38279 6.47237 4.27888 6.73398 4.27888H11.6658V7.23796C11.6658 8.02275 11.9775 8.77541 12.5325 9.33034C13.0874 9.88527 13.8401 10.197 14.6249 10.197H17.584V11.1834C17.584 11.445 17.6878 11.6959 17.8728 11.8809C18.0579 12.0658 18.3086 12.1698 18.5702 12.1698C18.832 12.1698 19.0827 12.0658 19.2678 11.8809C19.4528 11.6959 19.5566 11.445 19.5566 11.1834V9.21068C19.5609 9.19117 19.5609 9.17098 19.5566 9.15149C19.5484 9.05956 19.525 8.9696 19.4875 8.88518V8.7964C19.4402 8.69498 19.3769 8.60176 19.3002 8.52022L13.382 2.60206C13.2983 2.52342 13.2015 2.45999 13.096 2.41466C13.096 2.41466 13.0467 2.41466 13.0171 2.41466C12.9199 2.35841 12.8127 2.32157 12.7015 2.30615H6.7833C5.99851 2.30615 5.24585 2.61792 4.6909 3.17285C4.13597 3.72778 3.82422 4.48044 3.82422 5.26523V19.0743C3.82422 19.859 4.13597 20.6117 4.6909 21.1667C5.24585 21.7216 5.99851 22.0334 6.7833 22.0334H14.6742C14.9358 22.0334 15.1867 21.9294 15.3716 21.7444C15.5566 21.5595 15.6606 21.3085 15.6606 21.047C15.6606 20.7854 15.5566 20.5345 15.3716 20.3495C15.1867 20.1646 14.9358 20.0607 14.6742 20.0607H14.6249ZM13.6385 5.66965L16.1833 8.22431H14.6249C14.3633 8.22431 14.1124 8.12039 13.9274 7.93542C13.7424 7.75044 13.6385 7.49956 13.6385 7.23796V5.66965ZM19.1325 20.3467C19.0857 20.3042 19.0363 20.2647 18.9845 20.2283C18.8762 20.1579 18.7559 20.1077 18.6294 20.0804C18.471 20.0486 18.3072 20.0563 18.1524 20.1027C17.9976 20.1492 17.8566 20.2329 17.7417 20.3467C17.6494 20.4384 17.576 20.5475 17.5258 20.6676C17.4758 20.7879 17.4499 20.9168 17.4499 21.047C17.4499 21.1772 17.4758 21.3062 17.5258 21.4263C17.576 21.5465 17.6494 21.6556 17.7417 21.7474C17.9254 21.9295 18.1734 22.0322 18.4322 22.0334C18.5946 22.0341 18.7547 21.9949 18.8982 21.919C19.0418 21.8431 19.1644 21.7329 19.2551 21.5982C19.3458 21.4636 19.402 21.3085 19.4184 21.147C19.4349 20.9856 19.4112 20.8224 19.3495 20.6722C19.2959 20.5524 19.2226 20.4423 19.1325 20.3467ZM13.6385 16.1152H8.7067C8.4451 16.1152 8.19422 16.2191 8.00923 16.404C7.82426 16.5891 7.72033 16.8399 7.72033 17.1016C7.72033 17.3632 7.82426 17.614 8.00923 17.7991C8.19422 17.984 8.4451 18.0879 8.7067 18.0879H13.6385C13.9001 18.0879 14.151 17.984 14.336 17.7991C14.5209 17.614 14.6249 17.3632 14.6249 17.1016C14.6249 16.8399 14.5209 16.5891 14.336 16.404C14.151 16.2191 13.9001 16.1152 13.6385 16.1152ZM18.4322 13.1561C17.9124 13.1558 17.4018 13.2924 16.9516 13.5521C16.5014 13.8118 16.1275 14.1855 15.8677 14.6357C15.8029 14.7483 15.761 14.8727 15.7443 15.0016C15.7276 15.1304 15.7363 15.2614 15.7703 15.3868C15.8042 15.5123 15.8624 15.6299 15.9418 15.7329C16.0211 15.8359 16.12 15.9221 16.2326 15.9869C16.3453 16.0517 16.4697 16.0936 16.5986 16.1103C16.7275 16.127 16.8584 16.1182 16.9839 16.0843C17.1093 16.0504 17.227 15.9923 17.3299 15.9128C17.4329 15.8335 17.5192 15.7347 17.584 15.6221C17.6707 15.4719 17.7954 15.3472 17.9456 15.2606C18.0959 15.1741 18.2662 15.1286 18.4396 15.1288C18.613 15.1291 18.7833 15.1751 18.9333 15.2621C19.0832 15.3491 19.2076 15.4741 19.2939 15.6246C19.3801 15.7751 19.4251 15.9455 19.4245 16.1189C19.4238 16.2923 19.3775 16.4625 19.2902 16.6122C19.2027 16.7621 19.0774 16.8861 18.9268 16.972C18.7762 17.058 18.6056 17.1027 18.4322 17.1016C18.1706 17.1016 17.9197 17.2055 17.7347 17.3904C17.5498 17.5754 17.4458 17.8263 17.4458 18.0879C17.4458 18.3495 17.5498 18.6004 17.7347 18.7853C17.9197 18.9703 18.1706 19.0743 18.4322 19.0743C19.2169 19.0743 19.9697 18.7626 20.5246 18.2076C21.0795 17.6526 21.3913 16.9 21.3913 16.1152C21.3913 15.3305 21.0795 14.5777 20.5246 14.0228C19.9697 13.4679 19.2169 13.1561 18.4322 13.1561ZM8.7067 10.197H9.69305C9.95466 10.197 10.2055 10.0931 10.3905 9.90813C10.5755 9.72316 10.6794 9.47227 10.6794 9.21068C10.6794 8.94908 10.5755 8.69819 10.3905 8.51321C10.2055 8.32823 9.95466 8.22431 9.69305 8.22431H8.7067C8.4451 8.22431 8.19422 8.32823 8.00923 8.51321C7.82426 8.69819 7.72033 8.94908 7.72033 9.21068C7.72033 9.47227 7.82426 9.72316 8.00923 9.90813C8.19422 10.0931 8.4451 10.197 8.7067 10.197Z" fill="white"/>
</mask>
<g mask="url(#mask0_1636_10183)">
<path d="M13.6385 12.1698H8.7067C8.4451 12.1698 8.19422 12.2737 8.00923 12.4586C7.82426 12.6436 7.72033 12.8945 7.72033 13.1561C7.72033 13.4177 7.82426 13.6686 8.00923 13.8536C8.19422 14.0385 8.4451 14.1425 8.7067 14.1425H13.6385C13.9001 14.1425 14.151 14.0385 14.336 13.8536C14.5209 13.6686 14.6249 13.4177 14.6249 13.1561C14.6249 12.8945 14.5209 12.6436 14.336 12.4586C14.151 12.2737 13.9001 12.1698 13.6385 12.1698ZM14.6249 20.0607H6.73398C6.47237 20.0607 6.22149 19.9567 6.03652 19.7717C5.85154 19.5868 5.74762 19.3359 5.74762 19.0743V5.26523C5.74762 5.00363 5.85154 4.75275 6.03652 4.56778C6.22149 4.38279 6.47237 4.27888 6.73398 4.27888H11.6658V7.23796C11.6658 8.02275 11.9775 8.77541 12.5325 9.33034C13.0874 9.88527 13.8401 10.197 14.6249 10.197H17.584V11.1834C17.584 11.445 17.6878 11.6959 17.8728 11.8809C18.0579 12.0658 18.3086 12.1698 18.5702 12.1698C18.832 12.1698 19.0827 12.0658 19.2678 11.8809C19.4528 11.6959 19.5566 11.445 19.5566 11.1834V9.21068C19.5609 9.19117 19.5609 9.17098 19.5566 9.15149C19.5484 9.05956 19.525 8.9696 19.4875 8.88518V8.7964C19.4402 8.69498 19.3769 8.60176 19.3002 8.52022L13.382 2.60206C13.2983 2.52342 13.2015 2.45999 13.096 2.41466C13.096 2.41466 13.0467 2.41466 13.0171 2.41466C12.9199 2.35841 12.8127 2.32157 12.7015 2.30615H6.7833C5.99851 2.30615 5.24585 2.61792 4.6909 3.17285C4.13597 3.72778 3.82422 4.48044 3.82422 5.26523V19.0743C3.82422 19.859 4.13597 20.6117 4.6909 21.1667C5.24585 21.7216 5.99851 22.0334 6.7833 22.0334H14.6742C14.9358 22.0334 15.1867 21.9294 15.3716 21.7444C15.5566 21.5595 15.6606 21.3085 15.6606 21.047C15.6606 20.7854 15.5566 20.5345 15.3716 20.3495C15.1867 20.1646 14.9358 20.0607 14.6742 20.0607H14.6249ZM13.6385 5.66965L16.1833 8.22431H14.6249C14.3633 8.22431 14.1124 8.12039 13.9274 7.93542C13.7424 7.75044 13.6385 7.49956 13.6385 7.23796V5.66965ZM19.1325 20.3467C19.0857 20.3042 19.0363 20.2647 18.9845 20.2283C18.8762 20.1579 18.7559 20.1077 18.6294 20.0804C18.471 20.0486 18.3072 20.0563 18.1524 20.1027C17.9976 20.1492 17.8566 20.2329 17.7417 20.3467C17.6494 20.4384 17.576 20.5475 17.5258 20.6676C17.4758 20.7879 17.4499 20.9168 17.4499 21.047C17.4499 21.1772 17.4758 21.3062 17.5258 21.4263C17.576 21.5465 17.6494 21.6556 17.7417 21.7474C17.9254 21.9295 18.1734 22.0322 18.4322 22.0334C18.5946 22.0341 18.7547 21.9949 18.8982 21.919C19.0418 21.8431 19.1644 21.7329 19.2551 21.5982C19.3458 21.4636 19.402 21.3085 19.4184 21.147C19.4349 20.9856 19.4112 20.8224 19.3495 20.6722C19.2959 20.5524 19.2226 20.4423 19.1325 20.3467ZM13.6385 16.1152H8.7067C8.4451 16.1152 8.19422 16.2191 8.00923 16.404C7.82426 16.5891 7.72033 16.8399 7.72033 17.1016C7.72033 17.3632 7.82426 17.614 8.00923 17.7991C8.19422 17.984 8.4451 18.0879 8.7067 18.0879H13.6385C13.9001 18.0879 14.151 17.984 14.336 17.7991C14.5209 17.614 14.6249 17.3632 14.6249 17.1016C14.6249 16.8399 14.5209 16.5891 14.336 16.404C14.151 16.2191 13.9001 16.1152 13.6385 16.1152ZM18.4322 13.1561C17.9124 13.1558 17.4018 13.2924 16.9516 13.5521C16.5014 13.8118 16.1275 14.1855 15.8677 14.6357C15.8029 14.7483 15.761 14.8727 15.7443 15.0016C15.7276 15.1304 15.7363 15.2614 15.7703 15.3868C15.8042 15.5123 15.8624 15.6299 15.9418 15.7329C16.0211 15.8359 16.12 15.9221 16.2326 15.9869C16.3453 16.0517 16.4697 16.0936 16.5986 16.1103C16.7275 16.127 16.8584 16.1182 16.9839 16.0843C17.1093 16.0504 17.227 15.9923 17.3299 15.9128C17.4329 15.8335 17.5192 15.7347 17.584 15.6221C17.6707 15.4719 17.7954 15.3472 17.9456 15.2606C18.0959 15.1741 18.2662 15.1286 18.4396 15.1288C18.613 15.1291 18.7833 15.1751 18.9333 15.2621C19.0832 15.3491 19.2076 15.4741 19.2939 15.6246C19.3801 15.7751 19.4251 15.9455 19.4245 16.1189C19.4238 16.2923 19.3775 16.4625 19.2902 16.6122C19.2027 16.7621 19.0774 16.8861 18.9268 16.972C18.7762 17.058 18.6056 17.1027 18.4322 17.1016C18.1706 17.1016 17.9197 17.2055 17.7347 17.3904C17.5498 17.5754 17.4458 17.8263 17.4458 18.0879C17.4458 18.3495 17.5498 18.6004 17.7347 18.7853C17.9197 18.9703 18.1706 19.0743 18.4322 19.0743C19.2169 19.0743 19.9697 18.7626 20.5246 18.2076C21.0795 17.6526 21.3913 16.9 21.3913 16.1152C21.3913 15.3305 21.0795 14.5777 20.5246 14.0228C19.9697 13.4679 19.2169 13.1561 18.4322 13.1561ZM8.7067 10.197H9.69305C9.95466 10.197 10.2055 10.0931 10.3905 9.90813C10.5755 9.72316 10.6794 9.47227 10.6794 9.21068C10.6794 8.94908 10.5755 8.69819 10.3905 8.51321C10.2055 8.32823 9.95466 8.22431 9.69305 8.22431H8.7067C8.4451 8.22431 8.19422 8.32823 8.00923 8.51321C7.82426 8.69819 7.72033 8.94908 7.72033 9.21068C7.72033 9.47227 7.82426 9.72316 8.00923 9.90813C8.19422 10.0931 8.4451 10.197 8.7067 10.197Z" fill="#7A8B94" stroke="white" stroke-width="0.443862"/>
</g>
</g>
</g>
<defs>
<clipPath id="clip0_1636_10183">
<rect width="23.6726" height="23.6726" fill="white" transform="translate(0.748047 0.333984)"/>
</clipPath>
<clipPath id="clip1_1636_10183">
<rect width="23.6726" height="23.6726" fill="white" transform="translate(0.748047 0.333984)"/>
</clipPath>
</defs>
</svg>
