<svg width="82" height="81" viewBox="0 0 82 81" fill="none" xmlns="http://www.w3.org/2000/svg">
<rect x="6.54688" y="6.11035" width="68.9055" height="68.9055" rx="34.4527" fill="#FEF0C7"/>
<rect x="6.54688" y="6.11035" width="68.9055" height="68.9055" rx="34.4527" stroke="#FFFAEB" stroke-width="11.4842"/>
<path d="M40.9985 34.8198V40.5619M40.9985 46.304H41.0128M38.5437 27.4411L26.3847 47.7395C26.1341 48.1737 26.0014 48.6659 26 49.1672C25.9986 49.6685 26.1285 50.1615 26.3767 50.597C26.625 51.0325 26.983 51.3955 27.415 51.6497C27.8471 51.9039 28.3382 52.0406 28.8395 52.0461H53.1574C53.6587 52.0406 54.1498 51.9039 54.5819 51.6497C55.0139 51.3955 55.3719 51.0325 55.6202 50.597C55.8684 50.1615 55.9983 49.6685 55.9969 49.1672C55.9955 48.6659 55.8628 48.1737 55.6122 47.7395L43.4532 27.4411C43.1973 27.0192 42.837 26.6704 42.407 26.4283C41.977 26.1863 41.4919 26.0591 40.9985 26.0591C40.505 26.0591 40.0199 26.1863 39.5899 26.4283C39.1599 26.6704 38.7996 27.0192 38.5437 27.4411Z" stroke="#FF9A33" stroke-width="2.87106" stroke-linecap="round" stroke-linejoin="round"/>
</svg>
