<svg width="24" height="24" viewBox="0 0 24 24" fill="none" xmlns="http://www.w3.org/2000/svg">
<g clip-path="url(#clip0_1636_10176)">
<g clip-path="url(#clip1_1636_10176)">
<path fill-rule="evenodd" clip-rule="evenodd" d="M11.4787 18.7161C11.6049 18.7918 11.7398 18.8252 11.8709 18.8236C12.0021 18.8252 12.137 18.7918 12.2632 18.7161L13.383 18.0442C15.5792 16.7265 18.265 16.5112 20.6429 17.4624C21.5201 17.8134 22.4743 17.1673 22.4743 16.2226V4.72272C22.4743 4.15265 22.1273 3.64002 21.5979 3.4283C18.5353 2.20321 15.0758 2.4804 12.2473 4.17755L11.8709 4.40334L11.4946 4.17755C8.66603 2.4804 5.20668 2.20321 2.14394 3.4283C1.61465 3.64002 1.26758 4.15265 1.26758 4.72272V16.2226C1.26758 17.1673 2.22178 17.8134 3.09897 17.4624C5.47689 16.5112 8.16274 16.7265 10.3589 18.0442L11.4787 18.7161ZM2.74712 4.78074V16.0122C5.50478 14.9785 8.58814 15.2563 11.1201 16.7755L11.1312 16.7821V5.68491L10.7334 5.44624C8.31782 3.9969 5.36722 3.75195 2.74712 4.78074ZM12.6218 16.7755L12.6107 16.7821V5.68491L13.0085 5.44624C15.4241 3.9969 18.3747 3.75195 20.9947 4.78074V16.0122C18.2371 14.9785 15.1538 15.2563 12.6218 16.7755Z" fill="#7A8B94"/>
<path d="M9.18336 19.116C7.18712 17.9516 4.71864 17.9516 2.72239 19.116L2.62105 19.1752C2.26814 19.381 2.14893 19.834 2.35481 20.1869C2.56067 20.5397 3.01363 20.659 3.36655 20.4532L3.46788 20.394C5.00347 19.4983 6.90229 19.4983 8.43786 20.394L9.51029 21.0195C10.9691 21.8706 12.773 21.8706 14.2318 21.0195L15.3042 20.394C16.8398 19.4983 18.7387 19.4983 20.2741 20.394L20.3755 20.4532C20.7285 20.659 21.1814 20.5397 21.3873 20.1869C21.5931 19.834 21.4739 19.381 21.121 19.1752L21.0197 19.116C19.0235 17.9516 16.555 17.9516 14.5587 19.116L13.4863 19.7417C12.4882 20.3239 11.2539 20.3239 10.2558 19.7417L9.18336 19.116Z" fill="#7A8B94"/>
</g>
</g>
<defs>
<clipPath id="clip0_1636_10176">
<rect width="23.6726" height="23.6726" fill="white" transform="translate(0.0351562 0.333984)"/>
</clipPath>
<clipPath id="clip1_1636_10176">
<rect width="23.6726" height="23.6726" fill="white" transform="translate(0.0351562 0.333984)"/>
</clipPath>
</defs>
</svg>
